<?xml version="1.0" encoding="UTF-8" standalone="no"?>
<!DOCTYPE svg PUBLIC "-//W3C//DTD SVG 1.1//EN" "http://www.w3.org/Graphics/SVG/1.1/DTD/svg11.dtd">
<svg version="1.1" xmlns="http://www.w3.org/2000/svg" xmlns:xlink="http://www.w3.org/1999/xlink" preserveAspectRatio="xMidYMid meet" viewBox="0 0 640 640" width="635" height="635"><defs><path d="M291.84 409.31C291.84 432.47 271.49 451.26 246.44 451.26C221.38 451.26 201.03 432.47 201.03 409.31C201.03 386.16 221.38 367.36 246.44 367.36C271.49 367.36 291.84 386.16 291.84 409.31Z" id="bavhoOybI"></path><path d="M333.68 361.95C333.68 385.11 313.33 403.91 288.28 403.91C263.22 403.91 242.87 385.11 242.87 361.95C242.87 338.8 263.22 320 288.28 320C313.33 320 333.68 338.8 333.68 361.95Z" id="c2NpCrosLd"></path><path d="M303.91 370.2L303.91 370.2L289.08 387.82L261.61 355.19L276.44 337.58L289.08 352.59L326.78 307.82L341.61 325.43L303.91 370.2Z" id="b5bzrOAiMu"></path><path d="M251.52 402.47C255.74 402.47 259.16 405.65 259.16 409.58C259.16 420.45 243.87 425.85 243.87 426.15C243.87 426.15 243.87 426.15 243.87 426.15C243.87 425.85 228.59 420.45 228.59 409.58C228.59 405.65 232.01 402.47 236.23 402.47C240.45 402.47 243.87 405.26 243.87 409.19C243.87 405.26 247.3 402.47 251.52 402.47Z" id="aeGnPi0us"></path></defs><g><g><g><use xlink:href="#bavhoOybI" opacity="1" fill="#294121" fill-opacity="1"></use></g><g><use xlink:href="#c2NpCrosLd" opacity="1" fill="#727a6f" fill-opacity="1"></use></g><g><use xlink:href="#b5bzrOAiMu" opacity="1" fill="#081a09" fill-opacity="1"></use></g><g><g><filter id="shadow440696" x="219.59" y="393.47" width="49.57" height="42.68" filterUnits="userSpaceOnUse" primitiveUnits="userSpaceOnUse"><feFlood></feFlood><feComposite in2="SourceAlpha" operator="in"></feComposite><feGaussianBlur stdDeviation="1"></feGaussianBlur><feOffset dx="-1" dy="1" result="afterOffset"></feOffset><feFlood flood-color="#000000" flood-opacity="0.5"></feFlood><feComposite in2="afterOffset" operator="in"></feComposite><feMorphology operator="dilate" radius="1"></feMorphology><feComposite in2="SourceAlpha" operator="out"></feComposite></filter><path d="M251.52 402.47C255.74 402.47 259.16 405.65 259.16 409.58C259.16 420.45 243.87 425.85 243.87 426.15C243.87 426.15 243.87 426.15 243.87 426.15C243.87 425.85 228.59 420.45 228.59 409.58C228.59 405.65 232.01 402.47 236.23 402.47C240.45 402.47 243.87 405.26 243.87 409.19C243.87 405.26 247.3 402.47 251.52 402.47Z" id="ayT3vqGDN" fill="white" fill-opacity="1" filter="url(#shadow440696)"></path></g><use xlink:href="#aeGnPi0us" opacity="1" fill="#010208" fill-opacity="1"></use></g></g></g></svg>