<svg xmlns="http://www.w3.org/2000/svg" viewBox="0 0 34 34" useColor="true" width="34"  height="34" ><defs></defs><g><g fill="#ffffff" stroke="#e8e8e8" transform="translate(1 1)"><circle cx="16" cy="16" r="16" stroke="none" fill="#ffffff"></circle><circle cx="16" cy="16" r="16.5" fill="none" stroke="#e8e8e8"></circle></g><path d="M22.748 20.099a7.745 7.745 0 01-.766 1.377A7 7 0 0121 22.671a1.914 1.914 0 01-1.268.558 3.178 3.178 0 01-1.171-.28 3.361 3.361 0 00-1.261-.278 3.475 3.475 0 00-1.3.279 3.489 3.489 0 01-1.121.295 1.8 1.8 0 01-1.3-.573 7.347 7.347 0 01-1.029-1.235 8.539 8.539 0 01-1.092-2.168A7.937 7.937 0 0111 16.686a4.718 4.718 0 01.62-2.469 3.634 3.634 0 011.3-1.312 3.49 3.49 0 011.754-.5 4.13 4.13 0 011.357.316 4.362 4.362 0 001.069.321 6.44 6.44 0 001.2-.373 3.944 3.944 0 011.62-.288 3.444 3.444 0 012.7 1.42 3 3 0 00-1.592 2.726 3.008 3.008 0 00.985 2.272 3.245 3.245 0 00.987.647q-.119.344-.252.66zM20 9.285a3.039 3.039 0 01-.78 1.993 2.654 2.654 0 01-2.2 1.088 2.218 2.218 0 01-.02-.267 3.123 3.123 0 01.827-2.014 3.182 3.182 0 011.006-.759 3 3 0 011.152-.327 2.587 2.587 0 01.015.286z"></path></g></svg>