<svg xmlns="http://www.w3.org/2000/svg" viewBox="0 0 18 18" class="SimilarImagesButton-icon-1OO" width="18"  height="18" ><path d="M16 2.5a.534.534 0 00-.563-.5H.563A.534.534 0 000 2.5v11a.534.534 0 00.563.5H1V3h15z" fill="#ffffff"></path><path d="M17.5 4h-15a.5.5 0 00-.5.5v11a.5.5 0 00.5.5h15a.5.5 0 00.5-.5v-11a.5.5 0 00-.5-.5zm-.5 9.687l-2.636-2.637a1 1 0 00-1.414 0l-1.536 1.536-3.778-3.779a1 1 0 00-1.414 0L3 12.03V5h14z" fill="#ffffff"></path><circle cx="14.5" cy="7.5" r="1.25" fill="#ffffff"></circle></svg>