<svg viewBox="0 0 34 34" xmlns="http://www.w3.org/2000/svg" width="34"  height="34" ><g transform="translate(-1693 -927)"><circle transform="translate(1694 928)" cx="16" cy="16" r="16" stroke="#e8e8e8" fill="#ffffff"></circle><path d="M1717.68 944.182a9.192 9.192 0 0 0-.145-1.636H1710v3.095h4.305a3.68 3.68 0 0 1-1.6 2.415v2.006h2.585a7.8 7.8 0 0 0 2.39-5.88z" fill="#4285f4" fill-rule="evenodd"></path><path d="M1710 952a7.638 7.638 0 0 0 5.294-1.938l-2.585-2.007a4.826 4.826 0 0 1-7.185-2.535h-2.673v2.073A8 8 0 0 0 1710 952z" fill="#34a853" fill-rule="evenodd"></path><path d="M1705.5 945.52a4.73 4.73 0 0 1 0-3.04v-2.073h-2.673a8.01 8.01 0 0 0 0 7.185l2.673-2.073z" fill="#fbbc05" fill-rule="evenodd"></path><path d="M1710 939.182a4.322 4.322 0 0 1 3.058 1.2l2.295-2.295A7.688 7.688 0 0 0 1710 936a8 8 0 0 0-7.149 4.407l2.673 2.073a4.768 4.768 0 0 1 4.476-3.3z" fill="#ea4335" fill-rule="evenodd"></path></g></svg>