<svg xmlns="http://www.w3.org/2000/svg" width="15.931" height="11.285" viewBox="5673 839.716 15.931 11.285" class="SignUpButtons-phone-2sR SignUpButtons-envelope-jAq"><g fill="#ffffff"><path d="M5680.86 846.605a.18.18 0 0 0 .21 0l7.86-5.764v-.46a.7.7 0 0 0-.724-.662h-14.482a.7.7 0 0 0-.724.663v.46z" fill="#ffffff"></path><path d="M5688.93 842.426l-4.378 3.21 4.38 2.41z" fill="#ffffff"></path><path d="M5683.428 846.46l-1.514 1.11a1.663 1.663 0 0 1-1.9 0l-1.514-1.116-5.5 3.032v.85a.7.7 0 0 0 .724.665h14.482a.7.7 0 0 0 .724-.663v-.85z" fill="#ffffff"></path><path d="M5677.372 845.63l-4.372-3.205v5.618z" fill="#ffffff"></path></g></svg>