<svg xmlns="http://www.w3.org/2000/svg" width="17" height="17" viewBox="0 0 17 17" class="Collection-icon-1ub Project-icon-29I"><path d="M5.69,3.395,7.97,5.487h6.217V7.579H2.858V3.743a.351.351,0,0,1,.354-.349ZM5.69,2H3.212a1.757,1.757,0,0,0-1.77,1.743V7.579h-1a.356.356,0,0,0-.27.123A.345.345,0,0,0,.1,7.985L1.336,14.68a.705.705,0,0,0,.7.572H15.012a.705.705,0,0,0,.7-.572L16.95,7.985a.345.345,0,0,0-.079-.283.356.356,0,0,0-.27-.123h-1V4.789a.7.7,0,0,0-.708-.7H8.523L6.859,2.514A1.657,1.657,0,0,0,5.69,2Z" transform="translate(-0.023 -0.5)" fill="#191919"></path></svg>