<?xml version="1.0" encoding="UTF-8" standalone="no"?>
<!DOCTYPE svg PUBLIC "-//W3C//DTD SVG 1.1//EN" "http://www.w3.org/Graphics/SVG/1.1/DTD/svg11.dtd">
<svg version="1.1" xmlns="http://www.w3.org/2000/svg" xmlns:xlink="http://www.w3.org/1999/xlink" preserveAspectRatio="xMidYMid meet" viewBox="223.67752022415138 123.95995263472886 167.99603170871646 241.02113617955408" width="160" height="233.02"><defs><path d="M295.54 271.4C300.85 274.78 302.4 281.82 299.02 287.12C289.03 302.76 265.21 340.08 255.23 355.72C251.85 361.02 244.81 362.57 239.51 359.19C237.59 357.97 241.43 360.42 239.51 359.19C234.2 355.81 232.65 348.77 236.03 343.46C246.02 327.83 269.84 290.51 279.82 274.87C283.2 269.57 290.24 268.01 295.54 271.4C297.46 272.62 293.62 270.17 295.54 271.4Z" id="a20wIsEKZD"></path><path d="M348.02 338.32C352.8 335.27 354.2 328.92 351.15 324.14C341.05 308.31 316.27 269.48 306.16 253.65C303.11 248.87 296.76 247.47 291.98 250.52C290.25 251.63 293.71 249.42 291.98 250.52C287.2 253.58 285.8 259.93 288.85 264.71C298.95 280.53 323.73 319.36 333.84 335.19C336.89 339.97 343.24 341.37 348.02 338.32C349.75 337.21 346.29 339.42 348.02 338.32Z" id="c5Q4yiLzF2"></path><path d="M377.4 178.42C382.04 177.47 386.56 180.47 387.5 185.1C387.84 186.78 387.16 183.42 387.5 185.1C388.44 189.73 385.45 194.25 380.82 195.2C366.07 198.19 330.22 205.48 315.47 208.48C310.84 209.42 306.32 206.43 305.38 201.8C305.04 200.12 305.72 203.48 305.38 201.8C304.44 197.16 307.43 192.64 312.06 191.7C326.81 188.7 362.66 181.41 377.4 178.42Z" id="ad9LyHr24"></path><path d="M295.13 196.28C299.98 199.8 301.05 206.59 297.53 211.43C296.25 213.19 298.8 209.68 297.53 211.43C294 216.28 287.22 217.35 282.37 213.83C270.57 205.24 243.95 185.88 232.15 177.3C227.3 173.77 226.23 166.99 229.75 162.14C231.03 160.39 228.48 163.9 229.75 162.14C233.28 157.3 240.06 156.23 244.91 159.75C256.71 168.33 283.33 187.7 295.13 196.28Z" id="c1Yr65y9WL"></path><path d="M340.44 153.1C340.44 166.98 327.23 178.24 310.96 178.24C294.69 178.24 281.48 166.98 281.48 153.1C281.48 139.23 294.69 127.96 310.96 127.96C327.23 127.96 340.44 139.23 340.44 153.1Z" id="aK4Ez2OMz"></path><path d="M267.79 279.6C260.33 276.34 256.93 267.64 260.19 260.18C267.45 243.58 283.33 207.28 290.6 190.68C293.86 183.22 302.56 179.82 310.02 183.08C314.76 185.16 315.46 185.46 320.2 187.54C327.66 190.8 331.06 199.5 327.8 206.96C320.54 223.56 304.66 259.85 297.39 276.46C294.13 283.92 285.43 287.32 277.97 284.06C273.23 281.98 272.53 281.67 267.79 279.6Z" id="bO7Syfzol"></path><path d="M310.96 262.2C310.96 278 297.75 290.82 281.48 290.82C265.22 290.82 252.01 278 252.01 262.2C252.01 246.4 265.22 233.57 281.48 233.57C297.75 233.57 310.96 246.4 310.96 262.2Z" id="eHrbzHlC4"></path></defs><g><g><use xlink:href="#a20wIsEKZD" opacity="1" fill="#f9f5f5" fill-opacity="1"></use></g><g><use xlink:href="#c5Q4yiLzF2" opacity="1" fill="#f9f5f5" fill-opacity="1"></use></g><g><use xlink:href="#ad9LyHr24" opacity="1" fill="#f9f5f5" fill-opacity="1"></use></g><g><use xlink:href="#c1Yr65y9WL" opacity="1" fill="#f9f5f5" fill-opacity="1"></use></g><g><use xlink:href="#aK4Ez2OMz" opacity="1" fill="#f9f5f5" fill-opacity="1"></use></g><g><use xlink:href="#bO7Syfzol" opacity="1" fill="#f9f5f5" fill-opacity="1"></use></g><g><use xlink:href="#eHrbzHlC4" opacity="1" fill="#f9f5f5" fill-opacity="1"></use></g></g></svg>