<?xml version="1.0" encoding="UTF-8" standalone="no"?>
<!DOCTYPE svg PUBLIC "-//W3C//DTD SVG 1.1//EN" "http://www.w3.org/Graphics/SVG/1.1/DTD/svg11.dtd">
<svg version="1.1" xmlns="http://www.w3.org/2000/svg" xmlns:xlink="http://www.w3.org/1999/xlink" preserveAspectRatio="xMidYMid meet" viewBox="0 0 640 640" width="640" height="640"><defs><path d="M219.18 204.89L219.26 204.9L219.34 204.91L219.41 204.93L219.48 204.94L219.55 204.97L219.62 204.99L219.69 205.02L219.75 205.05L219.81 205.09L219.87 205.13L219.93 205.17L219.99 205.21L220.04 205.26L220.1 205.3L220.15 205.36L220.2 205.41L220.25 205.47L220.3 205.52L220.34 205.58L220.39 205.65L220.43 205.71L220.48 205.78L220.52 205.85L220.56 205.92L220.6 205.99L220.64 206.07L220.68 206.14L220.72 206.22L220.75 206.3L220.79 206.38L220.83 206.46L220.86 206.55L220.9 206.63L220.93 206.72L220.97 206.81L221 206.9L221.04 206.99L221.07 207.08L222.85 212.77L223.4 212.92L224.64 213.29L225.85 213.71L227.03 214.16L228.19 214.65L228.29 214.69L234.28 211.73L234.37 211.69L234.47 211.65L234.57 211.6L234.67 211.56L234.76 211.52L234.86 211.49L234.95 211.45L235.05 211.41L235.14 211.38L235.23 211.34L235.32 211.31L235.42 211.28L235.5 211.25L235.59 211.22L235.68 211.2L235.77 211.18L235.85 211.15L235.94 211.13L236.02 211.12L236.11 211.1L236.19 211.09L236.27 211.08L236.35 211.07L236.43 211.07L236.51 211.07L236.58 211.07L236.66 211.07L236.73 211.08L236.81 211.09L236.88 211.1L236.95 211.12L237.02 211.13L237.09 211.16L237.16 211.18L237.23 211.21L237.29 211.25L237.36 211.29L237.42 211.33L237.48 211.37L237.54 211.42L246.26 218.87L246.31 218.92L246.37 218.98L246.42 219.03L246.46 219.09L246.5 219.14L246.54 219.2L246.57 219.26L246.6 219.32L246.62 219.39L246.64 219.45L246.66 219.51L246.68 219.58L246.69 219.64L246.69 219.71L246.7 219.78L246.7 219.85L246.69 219.92L246.69 219.99L246.68 220.06L246.66 220.13L246.65 220.2L246.63 220.27L246.61 220.35L246.58 220.42L246.56 220.5L246.53 220.57L246.5 220.65L246.46 220.73L246.43 220.8L246.39 220.88L246.35 220.96L246.3 221.03L246.26 221.11L246.21 221.19L246.16 221.27L246.11 221.35L246.06 221.43L246 221.51L245.95 221.59L245.89 221.66L242.43 226.78L242.5 226.89L243.08 227.88L243.61 228.89L244.09 229.93L244.53 230.98L244.7 231.46L251.36 232.98L251.47 233L251.57 233.02L251.68 233.04L251.78 233.07L251.88 233.09L251.98 233.12L252.08 233.15L252.17 233.17L252.27 233.2L252.36 233.23L252.45 233.26L252.54 233.3L252.63 233.33L252.71 233.36L252.8 233.4L252.88 233.44L252.96 233.47L253.03 233.51L253.11 233.55L253.18 233.6L253.24 233.64L253.31 233.68L253.37 233.73L253.43 233.78L253.49 233.82L253.54 233.87L253.59 233.93L253.64 233.98L253.69 234.03L253.73 234.09L253.76 234.15L253.8 234.2L253.83 234.26L253.85 234.33L253.88 234.39L253.89 234.46L253.91 234.52L253.92 234.59L253.93 234.66L253.93 234.73L253.93 245.27L253.93 245.34L253.92 245.41L253.91 245.48L253.89 245.54L253.88 245.61L253.85 245.67L253.83 245.73L253.8 245.78L253.76 245.84L253.73 245.9L253.69 245.95L253.64 246L253.59 246.05L253.54 246.1L253.49 246.15L253.43 246.19L253.37 246.24L253.31 246.28L253.24 246.32L253.18 246.36L253.11 246.4L253.03 246.44L252.96 246.48L252.88 246.51L252.8 246.55L252.71 246.59L252.63 246.62L252.54 246.65L252.45 246.69L252.36 246.72L252.27 246.75L252.17 246.78L252.08 246.81L251.98 246.84L251.88 246.88L251.78 246.91L251.68 246.94L251.57 246.96L251.47 246.99L251.36 247.02L244.7 248.54L244.53 249.02L244.09 250.07L243.61 251.11L243.08 252.12L242.5 253.11L242.44 253.21L245.89 258.31L245.95 258.39L246 258.47L246.06 258.55L246.11 258.63L246.16 258.71L246.21 258.79L246.26 258.87L246.3 258.94L246.35 259.02L246.39 259.1L246.43 259.18L246.46 259.25L246.5 259.33L246.53 259.41L246.56 259.48L246.58 259.56L246.61 259.63L246.63 259.7L246.65 259.78L246.66 259.85L246.68 259.92L246.69 259.99L246.69 260.06L246.7 260.13L246.7 260.2L246.69 260.27L246.69 260.34L246.68 260.4L246.66 260.47L246.64 260.53L246.62 260.59L246.6 260.66L246.57 260.72L246.54 260.78L246.5 260.83L246.46 260.89L246.42 260.95L246.37 261L246.31 261.06L246.26 261.11L237.54 268.56L237.48 268.61L237.42 268.65L237.36 268.69L237.29 268.73L237.23 268.76L237.16 268.79L237.09 268.82L237.02 268.84L236.95 268.86L236.88 268.88L236.81 268.89L236.73 268.9L236.66 268.91L236.58 268.91L236.51 268.91L236.43 268.91L236.35 268.91L236.27 268.9L236.19 268.89L236.11 268.88L236.02 268.86L235.94 268.84L235.85 268.83L235.77 268.8L235.68 268.78L235.59 268.76L235.5 268.73L235.42 268.7L235.32 268.67L235.23 268.64L235.14 268.6L235.05 268.57L234.95 268.53L234.86 268.49L234.76 268.45L234.67 268.42L234.57 268.37L234.47 268.33L234.37 268.29L234.28 268.25L228.31 265.29L228.19 265.35L227.03 265.84L225.85 266.29L224.64 266.71L223.4 267.08L222.85 267.23L221.07 272.92L221.04 273.01L221 273.1L220.97 273.19L220.93 273.28L220.9 273.37L220.86 273.45L220.83 273.54L220.79 273.62L220.75 273.7L220.72 273.78L220.68 273.86L220.64 273.93L220.6 274.01L220.56 274.08L220.52 274.15L220.48 274.22L220.43 274.29L220.39 274.35L220.34 274.42L220.3 274.48L220.25 274.53L220.2 274.59L220.15 274.64L220.1 274.7L220.04 274.74L219.99 274.79L219.93 274.83L219.87 274.87L219.81 274.91L219.75 274.95L219.69 274.98L219.62 275.01L219.55 275.03L219.48 275.06L219.41 275.07L219.34 275.09L219.26 275.1L219.18 275.11L219.1 275.12L219.02 275.12L206.7 275.12L206.61 275.12L206.53 275.11L206.45 275.1L206.37 275.09L206.3 275.07L206.22 275.06L206.15 275.03L206.08 275.01L206.01 274.98L205.94 274.95L205.88 274.91L205.82 274.87L205.75 274.83L205.69 274.79L205.64 274.74L205.58 274.7L205.52 274.64L205.47 274.59L205.42 274.53L205.37 274.48L205.32 274.42L205.27 274.35L205.23 274.29L205.18 274.22L205.14 274.15L205.1 274.08L205.06 274.01L205.02 273.93L204.98 273.86L204.94 273.78L204.91 273.7L204.87 273.62L204.84 273.54L204.81 273.45L204.78 273.37L204.75 273.28L204.72 273.19L204.69 273.1L204.67 273.01L204.64 272.92L202.87 267.23L202.31 267.08L201.08 266.71L199.87 266.29L198.68 265.84L197.52 265.35L197.38 265.28L191.44 268.23L191.35 268.28L191.25 268.32L191.16 268.37L191.07 268.41L190.98 268.46L190.89 268.5L190.79 268.54L190.7 268.58L190.61 268.61L190.52 268.65L190.43 268.68L190.34 268.71L190.25 268.74L190.16 268.77L190.07 268.79L189.99 268.82L189.9 268.84L189.81 268.86L189.73 268.87L189.64 268.89L189.56 268.9L189.48 268.9L189.39 268.91L189.31 268.91L189.23 268.91L189.15 268.91L189.07 268.91L189 268.9L188.92 268.88L188.85 268.87L188.77 268.85L188.7 268.83L188.63 268.81L188.56 268.78L188.49 268.75L188.42 268.71L188.36 268.67L188.29 268.63L188.23 268.59L188.17 268.54L179.46 261.09L179.4 261.04L179.35 260.98L179.3 260.93L179.26 260.87L179.22 260.82L179.18 260.76L179.15 260.7L179.12 260.64L179.1 260.58L179.08 260.52L179.07 260.46L179.06 260.4L179.05 260.33L179.04 260.27L179.04 260.2L179.05 260.13L179.05 260.07L179.06 260L179.07 259.93L179.09 259.86L179.1 259.79L179.12 259.72L179.15 259.64L179.17 259.57L179.2 259.5L179.23 259.42L179.26 259.34L179.29 259.27L179.33 259.19L179.37 259.11L179.41 259.03L179.45 258.95L179.49 258.87L179.53 258.79L179.58 258.71L179.63 258.63L179.67 258.55L179.72 258.46L179.77 258.38L179.82 258.29L183.27 253.2L183.21 253.11L182.64 252.12L182.11 251.11L181.63 250.07L181.19 249.02L181.02 248.54L174.35 247.02L174.25 246.99L174.14 246.96L174.04 246.94L173.94 246.91L173.84 246.88L173.74 246.84L173.64 246.81L173.54 246.78L173.45 246.75L173.35 246.72L173.26 246.69L173.17 246.65L173.09 246.62L173 246.59L172.92 246.55L172.84 246.51L172.76 246.48L172.68 246.44L172.61 246.4L172.54 246.36L172.47 246.32L172.4 246.28L172.34 246.24L172.28 246.19L172.22 246.15L172.17 246.1L172.12 246.05L172.07 246L172.03 245.95L171.99 245.9L171.95 245.84L171.92 245.78L171.89 245.73L171.86 245.67L171.84 245.61L171.82 245.54L171.8 245.48L171.79 245.41L171.79 245.34L171.79 245.27L171.79 234.73L171.79 234.66L171.79 234.59L171.8 234.52L171.82 234.46L171.84 234.39L171.86 234.33L171.89 234.26L171.92 234.2L171.95 234.15L171.99 234.09L172.03 234.03L172.07 233.98L172.12 233.93L172.17 233.87L172.22 233.82L172.28 233.78L172.34 233.73L172.4 233.68L172.47 233.64L172.54 233.6L172.61 233.55L172.68 233.51L172.76 233.47L172.84 233.44L172.92 233.4L173 233.36L173.09 233.33L173.17 233.3L173.26 233.26L173.35 233.23L173.45 233.2L173.54 233.17L173.64 233.15L173.74 233.12L173.84 233.09L173.94 233.07L174.04 233.04L174.14 233.02L174.25 233L174.35 232.98L181.02 231.46L181.19 230.98L181.63 229.93L182.11 228.89L182.64 227.88L183.21 226.89L183.28 226.79L179.82 221.69L179.77 221.6L179.72 221.52L179.67 221.43L179.63 221.35L179.58 221.27L179.53 221.19L179.49 221.11L179.45 221.03L179.41 220.95L179.37 220.87L179.33 220.79L179.29 220.71L179.26 220.63L179.23 220.56L179.2 220.48L179.17 220.41L179.15 220.34L179.12 220.26L179.1 220.19L179.09 220.12L179.07 220.05L179.06 219.98L179.05 219.91L179.05 219.84L179.04 219.78L179.04 219.71L179.05 219.65L179.06 219.58L179.07 219.52L179.08 219.46L179.1 219.4L179.12 219.34L179.15 219.28L179.18 219.22L179.22 219.16L179.26 219.11L179.3 219.05L179.35 219L179.4 218.94L179.46 218.89L188.17 211.44L188.23 211.39L188.29 211.35L188.36 211.3L188.42 211.27L188.49 211.23L188.56 211.2L188.63 211.17L188.7 211.15L188.77 211.13L188.85 211.11L188.92 211.09L189 211.08L189.07 211.07L189.15 211.07L189.23 211.07L189.31 211.07L189.39 211.07L189.48 211.07L189.56 211.08L189.64 211.09L189.73 211.11L189.81 211.12L189.9 211.14L189.99 211.16L190.07 211.18L190.16 211.21L190.25 211.24L190.34 211.27L190.43 211.3L190.52 211.33L190.61 211.37L190.7 211.4L190.79 211.44L190.89 211.48L190.98 211.52L191.07 211.57L191.16 211.61L191.25 211.66L191.35 211.7L191.44 211.75L197.4 214.71L197.52 214.65L198.68 214.16L199.87 213.71L201.08 213.29L202.31 212.92L202.87 212.77L204.64 207.08L204.67 206.99L204.69 206.9L204.72 206.81L204.75 206.72L204.78 206.63L204.81 206.55L204.84 206.46L204.87 206.38L204.91 206.3L204.94 206.22L204.98 206.14L205.02 206.07L205.06 205.99L205.1 205.92L205.14 205.85L205.18 205.78L205.23 205.71L205.27 205.65L205.32 205.58L205.37 205.52L205.42 205.47L205.47 205.41L205.52 205.36L205.58 205.3L205.64 205.26L205.69 205.21L205.75 205.17L205.82 205.13L205.88 205.09L205.94 205.05L206.01 205.02L206.08 204.99L206.15 204.97L206.22 204.94L206.3 204.93L206.37 204.91L206.45 204.9L206.53 204.89L206.61 204.88L206.7 204.88L219.02 204.88L219.1 204.88L219.18 204.89ZM211.38 224.69L210.66 224.75L209.94 224.84L209.24 224.95L208.54 225.08L207.85 225.24L207.18 225.42L206.51 225.62L205.86 225.84L205.22 226.09L204.6 226.35L203.99 226.63L203.39 226.94L202.81 227.26L202.25 227.6L201.7 227.96L201.16 228.33L200.65 228.73L200.15 229.14L199.67 229.56L199.21 230L198.77 230.46L198.36 230.93L197.96 231.41L197.58 231.91L197.23 232.42L196.89 232.94L196.59 233.47L196.3 234.02L196.04 234.58L195.8 235.14L195.59 235.72L195.41 236.31L195.25 236.9L195.12 237.51L195.02 238.12L194.95 238.74L194.9 239.37L194.89 240L194.9 240.63L194.95 241.26L195.02 241.88L195.12 242.49L195.25 243.1L195.41 243.69L195.59 244.28L195.8 244.86L196.04 245.42L196.3 245.98L196.59 246.53L196.89 247.06L197.23 247.58L197.58 248.09L197.96 248.59L198.36 249.07L198.77 249.54L199.21 250L199.67 250.44L200.15 250.86L200.65 251.27L201.16 251.67L201.7 252.04L202.25 252.4L202.81 252.74L203.39 253.06L203.99 253.37L204.6 253.65L205.22 253.91L205.86 254.16L206.51 254.38L207.18 254.58L207.85 254.76L208.54 254.92L209.24 255.05L209.94 255.16L210.66 255.25L211.38 255.31L212.12 255.35L212.86 255.36L213.6 255.35L214.33 255.31L215.06 255.25L215.77 255.16L216.48 255.05L217.18 254.92L217.86 254.76L218.54 254.58L219.2 254.38L219.85 254.16L220.49 253.91L221.11 253.65L221.73 253.37L222.32 253.06L222.9 252.74L223.47 252.4L224.02 252.04L224.55 251.67L225.07 251.27L225.56 250.86L226.04 250.44L226.5 250L226.94 249.54L227.36 249.07L227.76 248.59L228.13 248.09L228.49 247.58L228.82 247.06L229.13 246.53L229.41 245.98L229.67 245.42L229.91 244.86L230.12 244.28L230.3 243.69L230.46 243.1L230.59 242.49L230.69 241.88L230.77 241.26L230.81 240.63L230.83 240L230.81 239.37L230.77 238.74L230.69 238.12L230.59 237.51L230.46 236.9L230.3 236.31L230.12 235.72L229.91 235.14L229.67 234.58L229.41 234.02L229.13 233.47L228.82 232.94L228.49 232.42L228.13 231.91L227.76 231.41L227.36 230.93L226.94 230.46L226.5 230L226.04 229.56L225.56 229.14L225.07 228.73L224.55 228.33L224.02 227.96L223.47 227.6L222.9 227.26L222.32 226.94L221.73 226.63L221.11 226.35L220.49 226.09L219.85 225.84L219.2 225.62L218.54 225.42L217.86 225.24L217.18 225.08L216.48 224.95L215.77 224.84L215.06 224.75L214.33 224.69L213.6 224.65L212.86 224.64L212.12 224.65L211.38 224.69Z" id="b4wswU2R7R"></path><path d="M61.07 88.69L608.69 88.69L608.69 419.64L61.07 419.64L61.07 88.69Z" id="a1MWxVx3XA"></path><path d="M456.96 101.79C462.92 101.79 467.74 106.62 467.74 112.58C467.74 129.09 446.19 137.28 446.19 137.74C446.19 137.74 446.19 137.74 446.19 137.74C446.19 137.28 424.64 129.09 424.64 112.58C424.64 106.62 429.47 101.79 435.42 101.79C441.37 101.79 446.19 106.02 446.19 111.98C446.19 106.02 451.01 101.79 456.96 101.79Z" id="bN8obKF9e"></path><path d="M518.63 214.64C524.58 214.64 529.4 219.48 529.4 225.44C529.41 241.95 507.86 250.14 507.86 250.6C507.86 250.6 507.86 250.6 507.86 250.6C507.86 250.14 486.31 241.95 486.31 225.44C486.31 219.48 491.13 214.64 497.08 214.64C503.03 214.64 507.86 218.88 507.86 224.84C507.86 218.88 512.68 214.64 518.63 214.64Z" id="dcvOLyWvF"></path><path d="M130.22 227.64L212.78 269.29L167.3 294.51L130.22 227.64Z" id="a17NbHtAwt"></path><path d="M167.68 213.32L225.78 278.57L167.42 278.33L167.68 213.32Z" id="d3DauVbbr"></path><path d="M125.24 345.89L211.4 232.01L239.33 296.45L125.24 345.89Z" id="c8D1jgjlB"></path><path d="M394.17 323.93L378.93 363.33L394.17 363.33L383.28 391.79L424.64 352.38L402.87 352.38L418.11 323.93L394.17 323.93Z" id="c4sguRstJ"></path><path d="M299.46 153.44C310.81 153.44 320 162.18 320 172.96C320 202.82 278.93 217.63 278.93 218.45C278.93 218.45 278.93 218.45 278.93 218.45C278.93 217.63 237.86 202.82 237.86 172.96C237.86 162.18 247.05 153.44 258.39 153.44C269.74 153.44 278.93 161.1 278.93 171.88C278.93 161.1 288.12 153.44 299.46 153.44Z" id="axjpJOIT"></path><path d="M103.71 112.98L90.46 146.85L103.71 146.85L94.24 171.31L130.22 137.44L111.28 137.44L124.54 112.98L103.71 112.98Z" id="bJXydbE9V"></path><path d="M271.99 327.98L272.07 327.99L272.15 328.01L272.22 328.03L272.29 328.05L272.36 328.07L272.42 328.1L272.49 328.14L272.55 328.17L272.61 328.21L272.67 328.26L272.72 328.3L272.78 328.35L272.83 328.4L272.89 328.46L272.94 328.52L272.98 328.58L273.03 328.64L273.08 328.71L273.12 328.78L273.17 328.85L273.21 328.92L273.25 329L273.29 329.08L273.33 329.16L273.37 329.24L273.41 329.33L273.45 329.41L273.49 329.5L273.52 329.59L273.56 329.69L273.59 329.78L273.63 329.88L273.66 329.97L273.7 330.07L273.73 330.17L273.77 330.27L273.8 330.37L273.83 330.48L275.56 336.96L276.11 337.13L277.31 337.56L278.48 338.03L279.64 338.55L280.77 339.1L280.86 339.15L286.69 335.78L286.79 335.73L286.89 335.68L286.98 335.63L287.08 335.59L287.17 335.54L287.26 335.5L287.35 335.46L287.45 335.41L287.54 335.37L287.63 335.34L287.71 335.3L287.8 335.26L287.89 335.23L287.98 335.2L288.06 335.17L288.15 335.15L288.23 335.12L288.31 335.1L288.4 335.08L288.48 335.06L288.56 335.05L288.63 335.04L288.71 335.03L288.79 335.02L288.87 335.02L288.94 335.02L289.01 335.03L289.09 335.03L289.16 335.04L289.23 335.06L289.3 335.08L289.37 335.1L289.44 335.13L289.5 335.16L289.57 335.19L289.63 335.23L289.69 335.27L289.76 335.32L289.82 335.37L289.87 335.43L298.36 343.91L298.42 343.97L298.47 344.03L298.52 344.09L298.56 344.16L298.6 344.22L298.64 344.29L298.67 344.36L298.7 344.43L298.72 344.5L298.74 344.57L298.76 344.64L298.77 344.72L298.78 344.79L298.79 344.87L298.79 344.94L298.79 345.02L298.79 345.1L298.78 345.18L298.77 345.26L298.76 345.34L298.74 345.43L298.72 345.51L298.7 345.59L298.68 345.68L298.65 345.76L298.63 345.85L298.59 345.94L298.56 346.02L298.53 346.11L298.49 346.2L298.45 346.29L298.41 346.38L298.36 346.46L298.32 346.55L298.27 346.64L298.22 346.73L298.17 346.82L298.12 346.91L298.06 347L298.01 347.09L294.64 352.91L294.71 353.04L295.26 354.17L295.78 355.33L296.25 356.5L296.68 357.7L296.84 358.25L303.33 359.98L303.44 360L303.54 360.03L303.64 360.05L303.74 360.08L303.84 360.11L303.93 360.14L304.03 360.17L304.12 360.2L304.22 360.23L304.31 360.27L304.39 360.3L304.48 360.34L304.57 360.38L304.65 360.42L304.73 360.46L304.81 360.5L304.89 360.54L304.96 360.59L305.03 360.63L305.1 360.68L305.17 360.73L305.23 360.78L305.29 360.83L305.35 360.89L305.41 360.94L305.46 361L305.51 361.06L305.55 361.12L305.6 361.18L305.64 361.24L305.67 361.31L305.71 361.38L305.74 361.44L305.76 361.51L305.78 361.59L305.8 361.66L305.81 361.74L305.83 361.81L305.83 361.89L305.83 361.98L305.83 373.98L305.83 374.06L305.83 374.14L305.81 374.21L305.8 374.29L305.78 374.36L305.76 374.43L305.74 374.5L305.71 374.57L305.67 374.63L305.64 374.69L305.6 374.75L305.55 374.81L305.51 374.87L305.46 374.92L305.41 374.98L305.35 375.03L305.29 375.08L305.23 375.13L305.17 375.18L305.1 375.22L305.03 375.27L304.96 375.31L304.89 375.35L304.81 375.4L304.73 375.44L304.65 375.48L304.57 375.52L304.48 375.56L304.39 375.59L304.31 375.63L304.22 375.67L304.12 375.7L304.03 375.74L303.93 375.77L303.84 375.81L303.74 375.84L303.64 375.88L303.54 375.91L303.44 375.94L303.33 375.98L296.84 377.71L296.68 378.25L296.25 379.45L295.78 380.63L295.26 381.78L294.71 382.91L294.64 383.03L298.01 388.84L298.06 388.93L298.12 389.02L298.17 389.11L298.22 389.2L298.27 389.29L298.32 389.38L298.36 389.46L298.41 389.55L298.45 389.64L298.49 389.73L298.53 389.82L298.56 389.91L298.59 389.99L298.63 390.08L298.65 390.17L298.68 390.25L298.7 390.34L298.72 390.42L298.74 390.5L298.76 390.58L298.77 390.67L298.78 390.75L298.79 390.83L298.79 390.91L298.79 390.98L298.79 391.06L298.78 391.14L298.77 391.21L298.76 391.29L298.74 391.36L298.72 391.43L298.7 391.5L298.67 391.57L298.64 391.64L298.6 391.71L298.56 391.77L298.52 391.84L298.47 391.9L298.42 391.96L298.36 392.02L289.87 400.5L289.82 400.56L289.76 400.61L289.69 400.66L289.63 400.7L289.57 400.74L289.5 400.77L289.44 400.8L289.37 400.83L289.3 400.85L289.23 400.87L289.16 400.88L289.09 400.9L289.01 400.9L288.94 400.91L288.87 400.91L288.79 400.91L288.71 400.9L288.63 400.89L288.56 400.88L288.48 400.87L288.4 400.85L288.31 400.83L288.23 400.81L288.15 400.78L288.06 400.76L287.98 400.73L287.89 400.7L287.8 400.66L287.71 400.63L287.63 400.59L287.54 400.55L287.45 400.51L287.35 400.47L287.26 400.43L287.17 400.39L287.08 400.34L286.98 400.29L286.89 400.25L286.79 400.2L286.69 400.15L280.88 396.79L280.77 396.85L279.64 397.41L278.48 397.92L277.31 398.39L276.11 398.82L275.56 398.99L273.83 405.48L273.8 405.58L273.77 405.68L273.73 405.78L273.7 405.88L273.66 405.98L273.63 406.08L273.59 406.17L273.56 406.27L273.52 406.36L273.49 406.45L273.45 406.54L273.41 406.62L273.37 406.71L273.33 406.79L273.29 406.87L273.25 406.95L273.21 407.03L273.17 407.1L273.12 407.17L273.08 407.24L273.03 407.31L272.98 407.37L272.94 407.44L272.89 407.49L272.83 407.55L272.78 407.6L272.72 407.65L272.67 407.7L272.61 407.74L272.55 407.78L272.49 407.82L272.42 407.85L272.36 407.88L272.29 407.9L272.22 407.93L272.15 407.94L272.07 407.96L271.99 407.97L271.91 407.97L271.83 407.98L259.83 407.98L259.75 407.97L259.67 407.97L259.59 407.96L259.52 407.94L259.44 407.93L259.37 407.9L259.3 407.88L259.23 407.85L259.17 407.82L259.1 407.78L259.04 407.74L258.98 407.7L258.91 407.65L258.86 407.6L258.8 407.55L258.74 407.49L258.69 407.44L258.64 407.37L258.59 407.31L258.54 407.24L258.49 407.17L258.45 407.1L258.4 407.03L258.36 406.95L258.32 406.87L258.28 406.79L258.24 406.71L258.2 406.62L258.16 406.54L258.13 406.45L258.09 406.36L258.06 406.27L258.03 406.17L258 406.08L257.97 405.98L257.94 405.88L257.91 405.78L257.88 405.68L257.86 405.58L257.83 405.48L256.1 398.99L255.56 398.82L254.36 398.39L253.18 397.92L252.03 397.41L250.9 396.85L250.76 396.77L244.97 400.13L244.88 400.18L244.79 400.24L244.7 400.29L244.61 400.34L244.52 400.39L244.43 400.44L244.35 400.48L244.26 400.53L244.17 400.57L244.08 400.61L243.99 400.64L243.9 400.68L243.82 400.71L243.73 400.74L243.64 400.77L243.56 400.8L243.47 400.82L243.39 400.84L243.31 400.86L243.22 400.88L243.14 400.89L243.06 400.9L242.98 400.9L242.9 400.91L242.82 400.91L242.75 400.9L242.67 400.9L242.6 400.89L242.52 400.88L242.45 400.86L242.38 400.84L242.31 400.81L242.24 400.79L242.17 400.75L242.1 400.72L242.04 400.68L241.97 400.64L241.91 400.59L241.85 400.54L241.79 400.48L233.31 391.99L233.25 391.93L233.2 391.87L233.15 391.81L233.11 391.75L233.07 391.69L233.04 391.62L233.01 391.55L232.98 391.49L232.96 391.42L232.94 391.35L232.93 391.28L232.91 391.21L232.91 391.13L232.9 391.06L232.9 390.98L232.9 390.91L232.91 390.83L232.92 390.75L232.93 390.67L232.94 390.59L232.96 390.51L232.98 390.43L233 390.35L233.03 390.27L233.05 390.18L233.08 390.1L233.11 390.01L233.15 389.92L233.18 389.83L233.22 389.74L233.26 389.65L233.3 389.56L233.34 389.47L233.38 389.38L233.42 389.29L233.47 389.19L233.52 389.1L233.56 389L233.61 388.91L233.66 388.81L237.02 383.01L236.96 382.91L236.4 381.78L235.89 380.63L235.42 379.45L234.99 378.25L234.82 377.71L228.33 375.98L228.23 375.94L228.13 375.91L228.03 375.88L227.93 375.84L227.83 375.81L227.73 375.77L227.64 375.74L227.54 375.7L227.45 375.67L227.36 375.63L227.27 375.59L227.18 375.56L227.1 375.52L227.02 375.48L226.94 375.44L226.86 375.4L226.78 375.35L226.71 375.31L226.64 375.27L226.57 375.22L226.5 375.18L226.44 375.13L226.37 375.08L226.32 375.03L226.26 374.98L226.21 374.92L226.16 374.87L226.11 374.81L226.07 374.75L226.03 374.69L225.99 374.63L225.96 374.57L225.93 374.5L225.91 374.43L225.88 374.36L225.87 374.29L225.85 374.21L225.84 374.14L225.84 374.06L225.83 373.98L225.83 361.98L225.84 361.89L225.84 361.81L225.85 361.74L225.87 361.66L225.88 361.59L225.91 361.51L225.93 361.44L225.96 361.38L225.99 361.31L226.03 361.24L226.07 361.18L226.11 361.12L226.16 361.06L226.21 361L226.26 360.94L226.32 360.89L226.37 360.83L226.44 360.78L226.5 360.73L226.57 360.68L226.64 360.63L226.71 360.59L226.78 360.54L226.86 360.5L226.94 360.46L227.02 360.42L227.1 360.38L227.18 360.34L227.27 360.3L227.36 360.27L227.45 360.23L227.54 360.2L227.64 360.17L227.73 360.14L227.83 360.11L227.93 360.08L228.03 360.05L228.13 360.03L228.23 360L228.33 359.98L234.82 358.25L234.99 357.7L235.42 356.5L235.89 355.33L236.4 354.17L236.96 353.04L237.02 352.93L233.66 347.12L233.61 347.02L233.56 346.92L233.52 346.83L233.47 346.73L233.42 346.64L233.38 346.55L233.34 346.46L233.3 346.36L233.26 346.27L233.22 346.18L233.18 346.09L233.15 346.01L233.11 345.92L233.08 345.83L233.05 345.75L233.03 345.66L233 345.58L232.98 345.5L232.96 345.41L232.94 345.33L232.93 345.25L232.92 345.17L232.91 345.1L232.9 345.02L232.9 344.94L232.9 344.87L232.91 344.79L232.91 344.72L232.93 344.65L232.94 344.58L232.96 344.51L232.98 344.44L233.01 344.37L233.04 344.31L233.07 344.24L233.11 344.18L233.15 344.12L233.2 344.05L233.25 343.99L233.31 343.93L241.79 335.45L241.85 335.39L241.91 335.34L241.97 335.29L242.04 335.25L242.1 335.21L242.17 335.17L242.24 335.14L242.31 335.11L242.38 335.09L242.45 335.07L242.52 335.05L242.6 335.04L242.67 335.03L242.75 335.02L242.82 335.02L242.9 335.02L242.98 335.02L243.06 335.03L243.14 335.04L243.22 335.05L243.31 335.07L243.39 335.09L243.47 335.11L243.56 335.13L243.64 335.16L243.73 335.18L243.82 335.22L243.9 335.25L243.99 335.28L244.08 335.32L244.17 335.36L244.26 335.4L244.35 335.45L244.43 335.49L244.52 335.54L244.61 335.59L244.7 335.64L244.79 335.69L244.88 335.75L244.97 335.8L250.78 339.17L250.9 339.1L252.03 338.55L253.18 338.03L254.36 337.56L255.56 337.13L256.1 336.96L257.83 330.48L257.86 330.37L257.88 330.27L257.91 330.17L257.94 330.07L257.97 329.97L258 329.88L258.03 329.78L258.06 329.69L258.09 329.59L258.13 329.5L258.16 329.41L258.2 329.33L258.24 329.24L258.28 329.16L258.32 329.08L258.36 329L258.4 328.92L258.45 328.85L258.49 328.78L258.54 328.71L258.59 328.64L258.64 328.58L258.69 328.52L258.74 328.46L258.8 328.4L258.86 328.35L258.91 328.3L258.98 328.26L259.04 328.21L259.1 328.17L259.17 328.14L259.23 328.1L259.3 328.07L259.37 328.05L259.44 328.03L259.52 328.01L259.59 327.99L259.67 327.98L259.75 327.98L259.83 327.98L271.83 327.98L271.91 327.98L271.99 327.98ZM264.4 350.53L263.69 350.61L262.99 350.71L262.31 350.83L261.63 350.98L260.96 351.16L260.3 351.37L259.66 351.6L259.02 351.85L258.4 352.13L257.79 352.43L257.2 352.75L256.62 353.1L256.05 353.46L255.5 353.85L254.96 354.26L254.44 354.69L253.94 355.14L253.46 355.6L252.99 356.09L252.55 356.59L252.12 357.11L251.71 357.64L251.32 358.19L250.96 358.76L250.61 359.34L250.29 359.93L249.99 360.54L249.71 361.16L249.45 361.8L249.23 362.44L249.02 363.1L248.84 363.77L248.69 364.45L248.56 365.14L248.46 365.83L248.39 366.54L248.35 367.25L248.33 367.98L248.35 368.7L248.39 369.41L248.46 370.12L248.56 370.81L248.69 371.5L248.84 372.18L249.02 372.85L249.23 373.51L249.45 374.15L249.71 374.79L249.99 375.41L250.29 376.02L250.61 376.61L250.96 377.19L251.32 377.76L251.71 378.31L252.12 378.85L252.55 379.37L252.99 379.87L253.46 380.35L253.94 380.82L254.44 381.26L254.96 381.69L255.5 382.1L256.05 382.49L256.62 382.85L257.2 383.2L257.79 383.52L258.4 383.82L259.02 384.1L259.66 384.35L260.3 384.58L260.96 384.79L261.63 384.97L262.31 385.12L262.99 385.25L263.69 385.35L264.4 385.42L265.11 385.46L265.83 385.48L266.55 385.46L267.27 385.42L267.97 385.35L268.67 385.25L269.36 385.12L270.04 384.97L270.71 384.79L271.36 384.58L272.01 384.35L272.65 384.1L273.27 383.82L273.88 383.52L274.47 383.2L275.05 382.85L275.62 382.49L276.17 382.1L276.7 381.69L277.22 381.26L277.72 380.82L278.21 380.35L278.67 379.87L279.12 379.37L279.55 378.85L279.96 378.31L280.34 377.76L280.71 377.19L281.06 376.61L281.38 376.02L281.68 375.41L281.96 374.79L282.21 374.15L282.44 373.51L282.65 372.85L282.82 372.18L282.98 371.5L283.1 370.81L283.2 370.12L283.28 369.41L283.32 368.7L283.33 367.98L283.32 367.25L283.28 366.54L283.2 365.83L283.1 365.14L282.98 364.45L282.82 363.77L282.65 363.1L282.44 362.44L282.21 361.8L281.96 361.16L281.68 360.54L281.38 359.93L281.06 359.34L280.71 358.76L280.34 358.19L279.96 357.64L279.55 357.11L279.12 356.59L278.67 356.09L278.21 355.6L277.72 355.14L277.22 354.69L276.7 354.26L276.17 353.85L275.62 353.46L275.05 353.1L274.47 352.75L273.88 352.43L273.27 352.13L272.65 351.85L272.01 351.6L271.36 351.37L270.71 351.16L270.04 350.98L269.36 350.83L268.67 350.71L267.97 350.61L267.27 350.53L266.55 350.49L265.83 350.48L265.11 350.49L264.4 350.53Z" id="c1UOrsuceT"></path><path d="M406.89 192.03L406.95 192.03L407 192.04L407.05 192.05L407.1 192.07L407.15 192.08L407.2 192.1L407.25 192.12L407.29 192.14L407.34 192.17L407.38 192.19L407.42 192.22L407.46 192.25L407.5 192.28L407.54 192.31L407.58 192.35L407.61 192.38L407.65 192.42L407.68 192.46L407.71 192.5L407.75 192.55L407.78 192.59L407.81 192.64L407.84 192.68L407.87 192.73L407.9 192.78L407.92 192.83L407.95 192.88L407.98 192.94L408.01 192.99L408.03 193.05L408.06 193.1L408.08 193.16L408.11 193.22L408.13 193.28L408.16 193.34L408.18 193.4L408.21 193.46L408.23 193.52L409.49 197.4L409.89 197.5L410.76 197.76L411.62 198.04L412.47 198.35L413.29 198.68L413.36 198.71L417.61 196.69L417.68 196.66L417.75 196.63L417.82 196.6L417.89 196.58L417.96 196.55L418.03 196.52L418.1 196.5L418.16 196.47L418.23 196.45L418.29 196.43L418.36 196.4L418.42 196.38L418.49 196.36L418.55 196.35L418.61 196.33L418.67 196.31L418.73 196.3L418.79 196.28L418.85 196.27L418.91 196.26L418.97 196.25L419.03 196.25L419.09 196.24L419.14 196.24L419.2 196.24L419.25 196.24L419.31 196.24L419.36 196.25L419.41 196.25L419.46 196.26L419.51 196.27L419.56 196.28L419.61 196.3L419.66 196.32L419.71 196.34L419.76 196.36L419.8 196.39L419.85 196.42L419.89 196.45L419.93 196.48L426.12 201.56L426.17 201.59L426.2 201.63L426.24 201.67L426.27 201.7L426.3 201.74L426.33 201.78L426.35 201.82L426.37 201.86L426.39 201.91L426.4 201.95L426.41 201.99L426.42 202.04L426.43 202.08L426.44 202.13L426.44 202.17L426.44 202.22L426.43 202.27L426.43 202.32L426.42 202.36L426.41 202.41L426.4 202.46L426.39 202.51L426.37 202.56L426.36 202.61L426.34 202.66L426.32 202.72L426.3 202.77L426.27 202.82L426.25 202.87L426.22 202.92L426.19 202.98L426.16 203.03L426.13 203.08L426.09 203.14L426.06 203.19L426.02 203.24L425.98 203.3L425.95 203.35L425.91 203.41L425.87 203.46L423.41 206.94L423.46 207.02L423.87 207.69L424.24 208.38L424.59 209.09L424.9 209.81L425.02 210.13L429.75 211.17L429.83 211.18L429.9 211.2L429.98 211.21L430.05 211.23L430.12 211.25L430.19 211.26L430.26 211.28L430.33 211.3L430.4 211.32L430.46 211.34L430.53 211.36L430.59 211.38L430.65 211.41L430.71 211.43L430.77 211.46L430.83 211.48L430.89 211.51L430.94 211.53L430.99 211.56L431.04 211.59L431.09 211.62L431.14 211.65L431.18 211.68L431.22 211.71L431.26 211.74L431.3 211.78L431.34 211.81L431.37 211.85L431.4 211.89L431.43 211.92L431.46 211.96L431.48 212L431.5 212.04L431.52 212.09L431.54 212.13L431.55 212.17L431.56 212.22L431.57 212.27L431.57 212.31L431.58 212.36L431.58 219.54L431.57 219.59L431.57 219.64L431.56 219.68L431.55 219.73L431.54 219.77L431.52 219.81L431.5 219.85L431.48 219.89L431.46 219.93L431.43 219.97L431.4 220.01L431.37 220.04L431.34 220.07L431.3 220.11L431.26 220.14L431.22 220.17L431.18 220.2L431.14 220.23L431.09 220.26L431.04 220.29L430.99 220.31L430.94 220.34L430.89 220.37L430.83 220.39L430.77 220.42L430.71 220.44L430.65 220.46L430.59 220.49L430.53 220.51L430.46 220.53L430.4 220.55L430.33 220.57L430.26 220.6L430.19 220.62L430.12 220.64L430.05 220.66L429.98 220.68L429.9 220.7L429.83 220.72L429.75 220.74L425.02 221.77L424.9 222.1L424.59 222.82L424.24 223.52L423.87 224.21L423.46 224.89L423.41 224.96L425.87 228.43L425.91 228.48L425.95 228.54L425.98 228.59L426.02 228.65L426.06 228.7L426.09 228.75L426.13 228.81L426.16 228.86L426.19 228.91L426.22 228.97L426.25 229.02L426.27 229.07L426.3 229.12L426.32 229.17L426.34 229.23L426.36 229.28L426.37 229.33L426.39 229.38L426.4 229.43L426.41 229.48L426.42 229.53L426.43 229.57L426.43 229.62L426.44 229.67L426.44 229.72L426.44 229.76L426.43 229.81L426.42 229.85L426.41 229.9L426.4 229.94L426.39 229.98L426.37 230.03L426.35 230.07L426.33 230.11L426.3 230.15L426.27 230.19L426.24 230.23L426.2 230.26L426.17 230.3L426.12 230.33L419.93 235.41L419.89 235.44L419.85 235.47L419.8 235.5L419.76 235.53L419.71 235.55L419.66 235.57L419.61 235.59L419.56 235.61L419.51 235.62L419.46 235.63L419.41 235.64L419.36 235.65L419.31 235.65L419.25 235.65L419.2 235.65L419.14 235.65L419.09 235.65L419.03 235.64L418.97 235.64L418.91 235.63L418.85 235.62L418.79 235.61L418.73 235.59L418.67 235.58L418.61 235.56L418.55 235.54L418.49 235.53L418.42 235.51L418.36 235.49L418.29 235.46L418.23 235.44L418.16 235.42L418.1 235.39L418.03 235.37L417.96 235.34L417.89 235.31L417.82 235.29L417.75 235.26L417.68 235.23L417.61 235.2L413.37 233.19L413.29 233.22L412.47 233.56L411.62 233.87L410.76 234.15L409.89 234.4L409.49 234.5L408.23 238.39L408.21 238.45L408.18 238.51L408.16 238.57L408.13 238.63L408.11 238.69L408.08 238.74L408.06 238.8L408.03 238.86L408.01 238.91L407.98 238.97L407.95 239.02L407.92 239.07L407.9 239.12L407.87 239.17L407.84 239.22L407.81 239.27L407.78 239.31L407.75 239.36L407.71 239.4L407.68 239.44L407.65 239.48L407.61 239.52L407.58 239.56L407.54 239.59L407.5 239.63L407.46 239.66L407.42 239.69L407.38 239.71L407.34 239.74L407.29 239.76L407.25 239.79L407.2 239.8L407.15 239.82L407.1 239.84L407.05 239.85L407 239.86L406.95 239.87L406.89 239.88L406.83 239.88L406.77 239.88L398.02 239.88L397.96 239.88L397.9 239.88L397.84 239.87L397.79 239.86L397.73 239.85L397.68 239.84L397.63 239.82L397.58 239.8L397.53 239.79L397.48 239.76L397.44 239.74L397.39 239.71L397.35 239.69L397.31 239.66L397.26 239.63L397.22 239.59L397.18 239.56L397.15 239.52L397.11 239.48L397.07 239.44L397.04 239.4L397.01 239.36L396.97 239.31L396.94 239.27L396.91 239.22L396.88 239.17L396.85 239.12L396.83 239.07L396.8 239.02L396.77 238.97L396.75 238.91L396.72 238.86L396.7 238.8L396.68 238.74L396.66 238.69L396.63 238.63L396.61 238.57L396.6 238.51L396.58 238.45L396.56 238.39L395.3 234.5L394.9 234.4L394.03 234.15L393.17 233.87L392.32 233.56L391.5 233.22L391.4 233.18L387.18 235.18L387.11 235.22L387.05 235.25L386.98 235.28L386.91 235.31L386.85 235.34L386.78 235.37L386.72 235.4L386.65 235.42L386.59 235.45L386.53 235.47L386.46 235.5L386.4 235.52L386.33 235.54L386.27 235.55L386.21 235.57L386.15 235.59L386.08 235.6L386.02 235.61L385.96 235.62L385.9 235.63L385.84 235.64L385.78 235.65L385.72 235.65L385.67 235.65L385.61 235.65L385.55 235.65L385.5 235.65L385.44 235.64L385.39 235.63L385.34 235.62L385.28 235.61L385.23 235.6L385.18 235.58L385.13 235.56L385.08 235.54L385.04 235.52L384.99 235.49L384.94 235.46L384.9 235.43L384.86 235.4L378.67 230.32L378.63 230.28L378.59 230.25L378.55 230.21L378.52 230.17L378.49 230.14L378.47 230.1L378.45 230.06L378.43 230.02L378.41 229.98L378.4 229.93L378.39 229.89L378.38 229.85L378.37 229.81L378.37 229.76L378.37 229.72L378.37 229.67L378.38 229.63L378.38 229.58L378.39 229.53L378.4 229.48L378.41 229.43L378.43 229.39L378.44 229.34L378.46 229.29L378.48 229.24L378.5 229.18L378.52 229.13L378.55 229.08L378.57 229.03L378.6 228.97L378.63 228.92L378.66 228.87L378.69 228.81L378.72 228.76L378.75 228.7L378.78 228.65L378.82 228.59L378.85 228.53L378.89 228.47L378.92 228.42L381.37 224.95L381.33 224.89L380.92 224.21L380.55 223.52L380.21 222.82L379.89 222.1L379.77 221.77L375.04 220.74L374.96 220.72L374.89 220.7L374.82 220.68L374.74 220.66L374.67 220.64L374.6 220.62L374.53 220.6L374.46 220.57L374.39 220.55L374.33 220.53L374.26 220.51L374.2 220.49L374.14 220.46L374.08 220.44L374.02 220.42L373.96 220.39L373.91 220.37L373.85 220.34L373.8 220.31L373.75 220.29L373.7 220.26L373.65 220.23L373.61 220.2L373.57 220.17L373.53 220.14L373.49 220.11L373.45 220.07L373.42 220.04L373.39 220.01L373.36 219.97L373.33 219.93L373.31 219.89L373.29 219.85L373.27 219.81L373.25 219.77L373.24 219.73L373.23 219.68L373.22 219.64L373.22 219.59L373.21 219.54L373.21 212.36L373.22 212.31L373.22 212.27L373.23 212.22L373.24 212.17L373.25 212.13L373.27 212.09L373.29 212.04L373.31 212L373.33 211.96L373.36 211.92L373.39 211.89L373.42 211.85L373.45 211.81L373.49 211.78L373.53 211.74L373.57 211.71L373.61 211.68L373.65 211.65L373.7 211.62L373.75 211.59L373.8 211.56L373.85 211.53L373.91 211.51L373.96 211.48L374.02 211.46L374.08 211.43L374.14 211.41L374.2 211.38L374.26 211.36L374.33 211.34L374.39 211.32L374.46 211.3L374.53 211.28L374.6 211.26L374.67 211.25L374.74 211.23L374.82 211.21L374.89 211.2L374.96 211.18L375.04 211.17L379.77 210.13L379.89 209.81L380.21 209.09L380.55 208.38L380.92 207.69L381.33 207.02L381.38 206.95L378.92 203.47L378.89 203.42L378.85 203.36L378.82 203.3L378.78 203.25L378.75 203.19L378.72 203.13L378.69 203.08L378.66 203.02L378.63 202.97L378.6 202.92L378.57 202.86L378.55 202.81L378.52 202.76L378.5 202.71L378.48 202.65L378.46 202.6L378.44 202.55L378.43 202.5L378.41 202.46L378.4 202.41L378.39 202.36L378.38 202.31L378.38 202.27L378.37 202.22L378.37 202.17L378.37 202.13L378.37 202.08L378.38 202.04L378.39 202L378.4 201.96L378.41 201.91L378.43 201.87L378.45 201.83L378.47 201.79L378.49 201.75L378.52 201.72L378.55 201.68L378.59 201.64L378.63 201.61L378.67 201.57L384.86 196.49L384.9 196.46L384.94 196.43L384.99 196.4L385.04 196.37L385.08 196.35L385.13 196.33L385.18 196.31L385.23 196.29L385.28 196.28L385.34 196.27L385.39 196.26L385.44 196.25L385.5 196.24L385.55 196.24L385.61 196.24L385.67 196.24L385.72 196.24L385.78 196.24L385.84 196.25L385.9 196.26L385.96 196.27L386.02 196.28L386.08 196.29L386.15 196.3L386.21 196.32L386.27 196.34L386.33 196.35L386.4 196.37L386.46 196.4L386.53 196.42L386.59 196.44L386.65 196.47L386.72 196.49L386.78 196.52L386.85 196.55L386.91 196.58L386.98 196.61L387.05 196.64L387.11 196.67L387.18 196.71L391.42 198.72L391.5 198.68L392.32 198.35L393.17 198.04L394.03 197.76L394.9 197.5L395.3 197.4L396.56 193.52L396.58 193.46L396.6 193.4L396.61 193.34L396.63 193.28L396.66 193.22L396.68 193.16L396.7 193.1L396.72 193.05L396.75 192.99L396.77 192.94L396.8 192.88L396.83 192.83L396.85 192.78L396.88 192.73L396.91 192.68L396.94 192.64L396.97 192.59L397.01 192.55L397.04 192.5L397.07 192.46L397.11 192.42L397.15 192.38L397.18 192.35L397.22 192.31L397.26 192.28L397.31 192.25L397.35 192.22L397.39 192.19L397.44 192.17L397.48 192.14L397.53 192.12L397.58 192.1L397.63 192.08L397.68 192.07L397.73 192.05L397.79 192.04L397.84 192.03L397.9 192.03L397.96 192.03L398.02 192.02L406.77 192.02L406.83 192.03L406.89 192.03ZM401.35 205.52L400.83 205.56L400.32 205.62L399.82 205.7L399.33 205.79L398.84 205.89L398.36 206.02L397.89 206.15L397.43 206.31L396.97 206.47L396.53 206.65L396.09 206.85L395.67 207.05L395.26 207.27L394.86 207.5L394.47 207.75L394.09 208L393.72 208.27L393.37 208.55L393.03 208.84L392.7 209.14L392.39 209.45L392.09 209.77L391.81 210.1L391.54 210.44L391.29 210.79L391.05 211.14L390.83 211.51L390.63 211.88L390.45 212.26L390.28 212.64L390.13 213.04L390 213.44L389.89 213.84L389.8 214.25L389.72 214.67L389.67 215.09L389.64 215.52L389.63 215.95L389.64 216.38L389.67 216.81L389.72 217.23L389.8 217.65L389.89 218.06L390 218.47L390.13 218.87L390.28 219.26L390.45 219.65L390.63 220.03L390.83 220.4L391.05 220.76L391.29 221.12L391.54 221.47L391.81 221.81L392.09 222.14L392.39 222.46L392.7 222.77L393.03 223.07L393.37 223.35L393.72 223.63L394.09 223.9L394.47 224.16L394.86 224.4L395.26 224.63L395.67 224.85L396.09 225.06L396.53 225.25L396.97 225.43L397.43 225.6L397.89 225.75L398.36 225.89L398.84 226.01L399.33 226.12L399.82 226.21L400.32 226.28L400.83 226.34L401.35 226.39L401.87 226.41L402.4 226.42L402.92 226.41L403.44 226.39L403.96 226.34L404.47 226.28L404.97 226.21L405.46 226.12L405.95 226.01L406.43 225.89L406.9 225.75L407.36 225.6L407.82 225.43L408.26 225.25L408.7 225.06L409.12 224.85L409.53 224.63L409.94 224.4L410.33 224.16L410.7 223.9L411.07 223.63L411.42 223.35L411.76 223.07L412.09 222.77L412.4 222.46L412.7 222.14L412.98 221.81L413.25 221.47L413.5 221.12L413.74 220.76L413.96 220.4L414.16 220.03L414.34 219.65L414.51 219.26L414.66 218.87L414.79 218.47L414.9 218.06L414.99 217.65L415.07 217.23L415.12 216.81L415.15 216.38L415.16 215.95L415.15 215.52L415.12 215.09L415.07 214.67L414.99 214.25L414.9 213.84L414.79 213.44L414.66 213.04L414.51 212.64L414.34 212.26L414.16 211.88L413.96 211.51L413.74 211.14L413.5 210.79L413.25 210.44L412.98 210.1L412.7 209.77L412.4 209.45L412.09 209.14L411.76 208.84L411.42 208.55L411.07 208.27L410.7 208L410.33 207.75L409.94 207.5L409.53 207.27L409.12 207.05L408.7 206.85L408.26 206.65L407.82 206.47L407.36 206.31L406.9 206.15L406.43 206.02L405.95 205.89L405.46 205.79L404.97 205.7L404.47 205.62L403.96 205.56L403.44 205.52L402.92 205.49L402.4 205.48L401.87 205.49L401.35 205.52Z" id="dyfDYSlLp"></path><path d="M566.9 308.45C576.31 308.45 583.93 316.3 583.93 325.97C583.93 352.76 549.88 366.05 549.88 366.79C549.88 366.79 549.88 366.79 549.88 366.79C549.88 366.05 515.83 352.76 515.83 325.97C515.83 316.29 523.46 308.45 532.86 308.45C542.26 308.45 549.88 315.32 549.88 325C549.88 315.32 557.5 308.45 566.9 308.45Z" id="aMUs9RKMU"></path></defs><g><g><g><use xlink:href="#b4wswU2R7R" opacity="1" fill="#ecada0" fill-opacity="1"></use></g><g><use xlink:href="#a1MWxVx3XA" opacity="1" fill="#f0eceb" fill-opacity="1"></use></g><g><use xlink:href="#bN8obKF9e" opacity="1" fill="#ecd0c9" fill-opacity="1"></use></g><g><use xlink:href="#dcvOLyWvF" opacity="1" fill="#ecd0c9" fill-opacity="1"></use></g><g><use xlink:href="#a17NbHtAwt" opacity="1" fill="#d5d0cf" fill-opacity="1"></use></g><g><use xlink:href="#d3DauVbbr" opacity="1" fill="#dad6d5" fill-opacity="1"></use></g><g><use xlink:href="#c8D1jgjlB" opacity="1" fill="#ddd7d5" fill-opacity="1"></use></g><g><use xlink:href="#c4sguRstJ" opacity="1" fill="#d5d0cf" fill-opacity="1"></use></g><g><use xlink:href="#axjpJOIT" opacity="1" fill="#e08771" fill-opacity="1"></use></g><g><use xlink:href="#bJXydbE9V" opacity="1" fill="#d5d0cf" fill-opacity="1"></use></g><g><use xlink:href="#c1UOrsuceT" opacity="1" fill="#d5d0cf" fill-opacity="1"></use></g><g><use xlink:href="#dyfDYSlLp" opacity="1" fill="#d5d0cf" fill-opacity="1"></use></g><g><use xlink:href="#aMUs9RKMU" opacity="1" fill="#ecd0c9" fill-opacity="1"></use></g></g></g></svg>