<?xml version="1.0" encoding="UTF-8"?>
<svg xmlns="http://www.w3.org/2000/svg" xmlns:xlink="http://www.w3.org/1999/xlink" width="768pt" height="768pt" viewBox="0 0 768 768" version="1.1">
<g id="surface1">
<path style=" stroke:none;fill-rule:nonzero;fill:rgb(92.54902%,67.843137%,62.745098%);fill-opacity:1;" d="M 263.015625 245.867188 L 263.113281 245.878906 L 263.207031 245.890625 L 263.292969 245.914062 L 263.375 245.929688 L 263.460938 245.964844 L 263.542969 245.988281 L 263.628906 246.023438 L 263.699219 246.058594 L 263.773438 246.109375 L 263.914062 246.203125 L 263.988281 246.253906 L 264.046875 246.3125 L 264.121094 246.359375 L 264.179688 246.433594 L 264.238281 246.492188 L 264.300781 246.5625 L 264.359375 246.625 L 264.40625 246.695312 L 264.46875 246.78125 L 264.515625 246.851562 L 264.574219 246.9375 L 264.625 247.019531 L 264.671875 247.105469 L 264.71875 247.1875 L 264.769531 247.285156 L 264.816406 247.367188 L 264.863281 247.464844 L 264.898438 247.558594 L 264.949219 247.65625 L 264.996094 247.753906 L 265.03125 247.859375 L 265.078125 247.957031 L 265.117188 248.0625 L 265.164062 248.171875 L 265.199219 248.28125 L 265.246094 248.386719 L 265.285156 248.496094 L 267.421875 255.324219 L 268.078125 255.503906 L 269.566406 255.949219 L 271.019531 256.453125 L 272.4375 256.992188 L 273.828125 257.578125 L 273.949219 257.628906 L 281.136719 254.074219 L 281.242188 254.027344 L 281.363281 253.980469 L 281.484375 253.921875 L 281.605469 253.871094 L 281.710938 253.824219 L 281.832031 253.789062 L 281.941406 253.738281 L 282.058594 253.691406 L 282.167969 253.65625 L 282.277344 253.609375 L 282.382812 253.570312 L 282.503906 253.535156 L 282.601562 253.5 L 282.707031 253.464844 L 282.816406 253.441406 L 282.925781 253.414062 L 283.019531 253.378906 L 283.128906 253.355469 L 283.222656 253.34375 L 283.332031 253.320312 L 283.429688 253.308594 L 283.523438 253.296875 L 283.621094 253.285156 L 283.992188 253.285156 L 284.074219 253.296875 L 284.171875 253.308594 L 284.257812 253.320312 L 284.339844 253.34375 L 284.425781 253.355469 L 284.507812 253.390625 L 284.59375 253.414062 L 284.675781 253.453125 L 284.746094 253.5 L 284.832031 253.546875 L 284.902344 253.597656 L 284.976562 253.644531 L 285.046875 253.703125 L 295.511719 262.644531 L 295.703125 262.835938 L 295.753906 262.90625 L 295.800781 262.96875 L 295.847656 263.039062 L 295.882812 263.113281 L 295.921875 263.183594 L 295.945312 263.269531 L 295.992188 263.410156 L 296.015625 263.496094 L 296.027344 263.566406 L 296.027344 263.652344 L 296.039062 263.734375 L 296.039062 263.820312 L 296.027344 263.902344 L 296.027344 263.988281 L 296.015625 264.070312 L 295.992188 264.15625 L 295.980469 264.238281 L 295.957031 264.324219 L 295.933594 264.421875 L 295.894531 264.503906 L 295.871094 264.601562 L 295.835938 264.683594 L 295.800781 264.78125 L 295.753906 264.875 L 295.714844 264.960938 L 295.667969 265.054688 L 295.621094 265.152344 L 295.558594 265.234375 L 295.511719 265.332031 L 295.453125 265.429688 L 295.390625 265.523438 L 295.332031 265.621094 L 295.273438 265.714844 L 295.199219 265.8125 L 295.140625 265.90625 L 295.066406 265.992188 L 290.914062 272.136719 L 291 272.269531 L 291.695312 273.457031 L 292.332031 274.667969 L 292.90625 275.914062 L 293.4375 277.175781 L 293.640625 277.753906 L 301.632812 279.574219 L 301.765625 279.601562 L 301.882812 279.625 L 302.015625 279.648438 L 302.136719 279.683594 L 302.257812 279.707031 L 302.375 279.742188 L 302.496094 279.78125 L 302.605469 279.804688 L 302.722656 279.839844 L 302.941406 279.910156 L 303.046875 279.960938 L 303.15625 279.996094 L 303.253906 280.03125 L 303.359375 280.078125 L 303.457031 280.128906 L 303.550781 280.164062 L 303.636719 280.210938 L 303.730469 280.261719 L 303.816406 280.320312 L 303.886719 280.367188 L 303.972656 280.414062 L 304.042969 280.476562 L 304.117188 280.535156 L 304.1875 280.585938 L 304.246094 280.644531 L 304.308594 280.714844 L 304.367188 280.777344 L 304.429688 280.835938 L 304.476562 280.90625 L 304.511719 280.980469 L 304.558594 281.039062 L 304.597656 281.113281 L 304.621094 281.195312 L 304.65625 281.269531 L 304.667969 281.351562 L 304.691406 281.425781 L 304.703125 281.507812 L 304.714844 281.59375 L 304.714844 294.40625 L 304.703125 294.492188 L 304.691406 294.574219 L 304.667969 294.648438 L 304.65625 294.730469 L 304.621094 294.804688 L 304.597656 294.875 L 304.558594 294.9375 L 304.511719 295.007812 L 304.476562 295.078125 L 304.429688 295.140625 L 304.367188 295.199219 L 304.308594 295.261719 L 304.246094 295.320312 L 304.1875 295.378906 L 304.117188 295.429688 L 304.042969 295.488281 L 303.972656 295.535156 L 303.886719 295.585938 L 303.816406 295.632812 L 303.730469 295.679688 L 303.636719 295.726562 L 303.550781 295.777344 L 303.457031 295.8125 L 303.359375 295.859375 L 303.253906 295.90625 L 303.15625 295.945312 L 303.046875 295.980469 L 302.941406 296.027344 L 302.832031 296.0625 L 302.722656 296.101562 L 302.605469 296.136719 L 302.496094 296.171875 L 302.375 296.207031 L 302.257812 296.257812 L 302.015625 296.328125 L 301.882812 296.351562 L 301.765625 296.386719 L 301.632812 296.425781 L 293.640625 298.246094 L 293.4375 298.824219 L 292.90625 300.085938 L 292.332031 301.332031 L 291.695312 302.542969 L 291 303.730469 L 290.929688 303.851562 L 295.066406 309.972656 L 295.140625 310.066406 L 295.199219 310.164062 L 295.273438 310.261719 L 295.332031 310.355469 L 295.390625 310.453125 L 295.453125 310.546875 L 295.511719 310.644531 L 295.558594 310.726562 L 295.621094 310.824219 L 295.667969 310.921875 L 295.714844 311.015625 L 295.753906 311.101562 L 295.800781 311.195312 L 295.835938 311.292969 L 295.871094 311.375 L 295.894531 311.472656 L 295.933594 311.554688 L 295.957031 311.640625 L 295.980469 311.734375 L 295.992188 311.820312 L 296.015625 311.902344 L 296.027344 311.988281 L 296.027344 312.070312 L 296.039062 312.15625 L 296.039062 312.238281 L 296.027344 312.324219 L 296.027344 312.40625 L 296.015625 312.480469 L 295.992188 312.5625 L 295.96875 312.636719 L 295.945312 312.707031 L 295.921875 312.792969 L 295.882812 312.863281 L 295.847656 312.9375 L 295.800781 312.996094 L 295.753906 313.066406 L 295.703125 313.140625 L 295.511719 313.332031 L 285.046875 322.273438 L 284.976562 322.332031 L 284.902344 322.378906 L 284.832031 322.429688 L 284.746094 322.476562 L 284.675781 322.511719 L 284.59375 322.546875 L 284.507812 322.585938 L 284.425781 322.609375 L 284.339844 322.632812 L 284.257812 322.65625 L 284.171875 322.667969 L 284.074219 322.679688 L 283.992188 322.691406 L 283.621094 322.691406 L 283.523438 322.679688 L 283.429688 322.667969 L 283.332031 322.65625 L 283.222656 322.632812 L 283.128906 322.609375 L 283.019531 322.597656 L 282.925781 322.558594 L 282.707031 322.511719 L 282.601562 322.476562 L 282.503906 322.441406 L 282.382812 322.402344 L 282.277344 322.367188 L 282.167969 322.320312 L 282.058594 322.285156 L 281.941406 322.234375 L 281.832031 322.1875 L 281.710938 322.140625 L 281.605469 322.105469 L 281.484375 322.042969 L 281.242188 321.949219 L 281.136719 321.898438 L 273.972656 318.347656 L 273.828125 318.421875 L 272.4375 319.007812 L 271.019531 319.546875 L 269.566406 320.050781 L 268.078125 320.496094 L 267.421875 320.675781 L 265.285156 327.503906 L 265.246094 327.613281 L 265.199219 327.71875 L 265.164062 327.828125 L 265.117188 327.9375 L 265.078125 328.042969 L 265.03125 328.140625 L 264.996094 328.246094 L 264.949219 328.34375 L 264.898438 328.441406 L 264.863281 328.535156 L 264.816406 328.632812 L 264.769531 328.714844 L 264.71875 328.8125 L 264.671875 328.894531 L 264.625 328.980469 L 264.574219 329.0625 L 264.515625 329.148438 L 264.46875 329.21875 L 264.40625 329.304688 L 264.359375 329.375 L 264.300781 329.4375 L 264.238281 329.507812 L 264.179688 329.566406 L 264.121094 329.640625 L 264.046875 329.6875 L 263.988281 329.746094 L 263.914062 329.796875 L 263.773438 329.890625 L 263.699219 329.941406 L 263.628906 329.976562 L 263.542969 330.011719 L 263.460938 330.035156 L 263.375 330.070312 L 263.292969 330.085938 L 263.207031 330.109375 L 263.113281 330.121094 L 263.015625 330.132812 L 262.921875 330.144531 L 247.933594 330.144531 L 247.738281 330.121094 L 247.644531 330.109375 L 247.558594 330.085938 L 247.464844 330.070312 L 247.378906 330.035156 L 247.296875 330.011719 L 247.210938 329.976562 L 247.128906 329.941406 L 247.054688 329.890625 L 246.984375 329.84375 L 246.898438 329.796875 L 246.828125 329.746094 L 246.769531 329.6875 L 246.695312 329.640625 L 246.625 329.566406 L 246.5625 329.507812 L 246.503906 329.4375 L 246.445312 329.375 L 246.382812 329.304688 L 246.324219 329.21875 L 246.277344 329.148438 L 246.214844 329.0625 L 246.167969 328.980469 L 246.121094 328.894531 L 246.070312 328.8125 L 246.023438 328.714844 L 245.976562 328.632812 L 245.929688 328.535156 L 245.890625 328.441406 L 245.84375 328.34375 L 245.808594 328.246094 L 245.773438 328.140625 L 245.734375 328.042969 L 245.699219 327.9375 L 245.628906 327.71875 L 245.605469 327.613281 L 245.566406 327.503906 L 243.445312 320.675781 L 242.773438 320.496094 L 241.296875 320.050781 L 239.84375 319.546875 L 238.414062 319.007812 L 237.023438 318.421875 L 236.855469 318.335938 L 229.726562 321.875 L 229.621094 321.9375 L 229.5 321.984375 L 229.390625 322.042969 L 229.285156 322.09375 L 229.175781 322.152344 L 229.066406 322.199219 L 228.949219 322.246094 L 228.839844 322.296875 L 228.730469 322.332031 L 228.625 322.378906 L 228.515625 322.414062 L 228.40625 322.453125 L 228.300781 322.488281 L 228.191406 322.523438 L 228.085938 322.546875 L 227.988281 322.585938 L 227.878906 322.609375 L 227.773438 322.632812 L 227.675781 322.644531 L 227.566406 322.667969 L 227.472656 322.679688 L 227.375 322.679688 L 227.269531 322.691406 L 226.882812 322.691406 L 226.800781 322.679688 L 226.703125 322.65625 L 226.621094 322.644531 L 226.523438 322.621094 L 226.441406 322.597656 L 226.355469 322.570312 L 226.273438 322.535156 L 226.1875 322.5 L 226.105469 322.453125 L 226.03125 322.402344 L 225.949219 322.355469 L 225.875 322.308594 L 225.804688 322.246094 L 215.351562 313.308594 L 215.28125 313.246094 L 215.21875 313.175781 L 215.160156 313.117188 L 215.113281 313.042969 L 215.0625 312.984375 L 215.015625 312.910156 L 214.945312 312.769531 L 214.921875 312.695312 L 214.894531 312.625 L 214.882812 312.550781 L 214.871094 312.480469 L 214.859375 312.394531 L 214.847656 312.324219 L 214.847656 312.238281 L 214.859375 312.15625 L 214.859375 312.085938 L 214.882812 311.914062 L 214.90625 311.832031 L 214.921875 311.746094 L 214.945312 311.664062 L 214.980469 311.566406 L 215.003906 311.484375 L 215.039062 311.398438 L 215.074219 311.304688 L 215.113281 311.207031 L 215.148438 311.125 L 215.195312 311.027344 L 215.242188 310.933594 L 215.292969 310.835938 L 215.339844 310.738281 L 215.386719 310.644531 L 215.4375 310.546875 L 215.496094 310.453125 L 215.554688 310.355469 L 215.605469 310.261719 L 215.664062 310.152344 L 215.722656 310.054688 L 215.785156 309.949219 L 219.925781 303.839844 L 219.851562 303.730469 L 219.167969 302.542969 L 218.53125 301.332031 L 217.957031 300.085938 L 217.429688 298.824219 L 217.222656 298.246094 L 209.21875 296.425781 L 209.101562 296.386719 L 208.96875 296.351562 L 208.847656 296.328125 L 208.726562 296.292969 L 208.609375 296.257812 L 208.488281 296.207031 L 208.246094 296.136719 L 208.140625 296.101562 L 208.019531 296.0625 L 207.910156 296.027344 L 207.804688 295.980469 L 207.707031 295.945312 L 207.601562 295.90625 L 207.40625 295.8125 L 207.3125 295.777344 L 207.214844 295.726562 L 207.132812 295.679688 L 207.046875 295.632812 L 206.964844 295.585938 L 206.878906 295.535156 L 206.808594 295.488281 L 206.734375 295.429688 L 206.664062 295.378906 L 206.605469 295.320312 L 206.542969 295.261719 L 206.484375 295.199219 L 206.4375 295.140625 L 206.386719 295.078125 L 206.339844 295.007812 L 206.304688 294.9375 L 206.269531 294.875 L 206.230469 294.804688 L 206.207031 294.730469 L 206.183594 294.648438 L 206.160156 294.574219 L 206.148438 294.492188 L 206.148438 281.507812 L 206.160156 281.425781 L 206.183594 281.351562 L 206.207031 281.269531 L 206.230469 281.195312 L 206.269531 281.113281 L 206.304688 281.039062 L 206.339844 280.980469 L 206.386719 280.90625 L 206.4375 280.835938 L 206.484375 280.777344 L 206.542969 280.714844 L 206.605469 280.644531 L 206.664062 280.585938 L 206.734375 280.535156 L 206.808594 280.476562 L 206.878906 280.414062 L 206.964844 280.367188 L 207.046875 280.320312 L 207.132812 280.261719 L 207.214844 280.210938 L 207.3125 280.164062 L 207.40625 280.128906 L 207.503906 280.078125 L 207.601562 280.03125 L 207.707031 279.996094 L 207.804688 279.960938 L 207.910156 279.910156 L 208.019531 279.875 L 208.140625 279.839844 L 208.246094 279.804688 L 208.367188 279.78125 L 208.488281 279.742188 L 208.609375 279.707031 L 208.726562 279.683594 L 208.847656 279.648438 L 208.96875 279.625 L 209.101562 279.601562 L 209.21875 279.574219 L 217.222656 277.753906 L 217.429688 277.175781 L 217.957031 275.914062 L 218.53125 274.667969 L 219.167969 273.457031 L 219.851562 272.269531 L 219.9375 272.148438 L 215.785156 266.027344 L 215.722656 265.921875 L 215.664062 265.824219 L 215.605469 265.714844 L 215.554688 265.621094 L 215.496094 265.523438 L 215.4375 265.429688 L 215.386719 265.332031 L 215.339844 265.234375 L 215.292969 265.140625 L 215.242188 265.042969 L 215.195312 264.949219 L 215.148438 264.851562 L 215.113281 264.757812 L 215.074219 264.671875 L 215.039062 264.574219 L 215.003906 264.492188 L 214.980469 264.40625 L 214.945312 264.3125 L 214.921875 264.226562 L 214.90625 264.144531 L 214.882812 264.058594 L 214.871094 263.976562 L 214.859375 263.890625 L 214.859375 263.808594 L 214.847656 263.734375 L 214.847656 263.652344 L 214.859375 263.578125 L 214.871094 263.496094 L 214.882812 263.425781 L 214.894531 263.351562 L 214.921875 263.28125 L 214.945312 263.207031 L 214.980469 263.136719 L 215.015625 263.0625 L 215.0625 262.992188 L 215.113281 262.933594 L 215.160156 262.859375 L 215.21875 262.800781 L 215.28125 262.726562 L 215.351562 262.667969 L 225.804688 253.726562 L 225.875 253.667969 L 225.949219 253.621094 L 226.03125 253.558594 L 226.105469 253.523438 L 226.1875 253.476562 L 226.273438 253.441406 L 226.355469 253.402344 L 226.441406 253.378906 L 226.523438 253.355469 L 226.621094 253.332031 L 226.703125 253.308594 L 226.800781 253.296875 L 226.882812 253.285156 L 227.375 253.285156 L 227.472656 253.296875 L 227.566406 253.308594 L 227.675781 253.332031 L 227.773438 253.34375 L 227.878906 253.367188 L 227.988281 253.390625 L 228.085938 253.414062 L 228.191406 253.453125 L 228.300781 253.488281 L 228.40625 253.523438 L 228.515625 253.558594 L 228.625 253.597656 L 228.730469 253.644531 L 228.839844 253.679688 L 228.949219 253.726562 L 229.066406 253.777344 L 229.175781 253.824219 L 229.285156 253.882812 L 229.390625 253.933594 L 229.5 253.992188 L 229.621094 254.039062 L 229.726562 254.101562 L 236.878906 257.652344 L 237.023438 257.578125 L 238.414062 256.992188 L 239.84375 256.453125 L 241.296875 255.949219 L 242.773438 255.503906 L 243.445312 255.324219 L 245.566406 248.496094 L 245.605469 248.386719 L 245.628906 248.28125 L 245.699219 248.0625 L 245.734375 247.957031 L 245.773438 247.859375 L 245.808594 247.753906 L 245.84375 247.65625 L 245.890625 247.558594 L 245.929688 247.464844 L 245.976562 247.367188 L 246.023438 247.285156 L 246.070312 247.1875 L 246.121094 247.105469 L 246.167969 247.019531 L 246.214844 246.9375 L 246.277344 246.851562 L 246.324219 246.78125 L 246.382812 246.695312 L 246.445312 246.625 L 246.503906 246.5625 L 246.5625 246.492188 L 246.625 246.433594 L 246.695312 246.359375 L 246.769531 246.3125 L 246.828125 246.253906 L 246.898438 246.203125 L 246.984375 246.15625 L 247.054688 246.109375 L 247.128906 246.058594 L 247.210938 246.023438 L 247.296875 245.988281 L 247.378906 245.964844 L 247.464844 245.929688 L 247.558594 245.914062 L 247.644531 245.890625 L 247.738281 245.878906 L 247.933594 245.855469 L 262.921875 245.855469 Z M 253.65625 269.628906 L 252.792969 269.699219 L 251.929688 269.808594 L 251.089844 269.941406 L 250.246094 270.097656 L 249.421875 270.289062 L 248.617188 270.503906 L 247.8125 270.742188 L 247.03125 271.007812 L 246.265625 271.308594 L 245.519531 271.621094 L 244.789062 271.957031 L 244.066406 272.328125 L 243.371094 272.710938 L 242.699219 273.121094 L 242.039062 273.550781 L 241.390625 273.996094 L 240.78125 274.476562 L 240.179688 274.96875 L 239.605469 275.472656 L 239.050781 276 L 238.523438 276.550781 L 238.03125 277.117188 L 237.550781 277.691406 L 237.097656 278.292969 L 236.675781 278.902344 L 236.269531 279.527344 L 235.90625 280.164062 L 235.558594 280.824219 L 235.246094 281.496094 L 234.960938 282.167969 L 234.707031 282.863281 L 234.492188 283.570312 L 234.300781 284.28125 L 234.144531 285.011719 L 234.023438 285.742188 L 233.941406 286.488281 L 233.878906 287.242188 L 233.867188 288 L 233.878906 288.757812 L 233.941406 289.511719 L 234.023438 290.257812 L 234.144531 290.988281 L 234.300781 291.71875 L 234.492188 292.429688 L 234.707031 293.136719 L 234.960938 293.832031 L 235.246094 294.503906 L 235.558594 295.175781 L 235.90625 295.835938 L 236.269531 296.472656 L 236.675781 297.097656 L 237.097656 297.707031 L 237.550781 298.308594 L 238.03125 298.882812 L 238.523438 299.449219 L 239.050781 300 L 239.605469 300.527344 L 240.179688 301.03125 L 240.78125 301.523438 L 241.390625 302.003906 L 242.039062 302.449219 L 242.699219 302.878906 L 243.371094 303.289062 L 244.066406 303.671875 L 244.789062 304.042969 L 245.519531 304.378906 L 246.265625 304.691406 L 247.03125 304.992188 L 247.8125 305.257812 L 248.617188 305.496094 L 249.421875 305.710938 L 250.246094 305.902344 L 251.089844 306.058594 L 251.929688 306.191406 L 252.792969 306.300781 L 253.65625 306.371094 L 254.542969 306.421875 L 255.433594 306.433594 L 256.320312 306.421875 L 257.195312 306.371094 L 258.070312 306.300781 L 258.925781 306.191406 L 259.777344 306.058594 L 260.617188 305.902344 L 261.433594 305.710938 L 262.246094 305.496094 L 263.039062 305.257812 L 263.820312 304.992188 L 264.589844 304.691406 L 265.332031 304.378906 L 266.074219 304.042969 L 266.785156 303.671875 L 267.480469 303.289062 L 268.164062 302.878906 L 268.824219 302.449219 L 269.460938 302.003906 L 270.085938 301.523438 L 270.671875 301.03125 L 271.246094 300.527344 L 271.800781 300 L 272.328125 299.449219 L 272.832031 298.882812 L 273.3125 298.308594 L 273.757812 297.707031 L 274.1875 297.097656 L 274.585938 296.472656 L 274.957031 295.835938 L 275.292969 295.175781 L 275.605469 294.503906 L 275.890625 293.832031 L 276.144531 293.136719 L 276.359375 292.429688 L 276.550781 291.71875 L 276.707031 290.988281 L 276.828125 290.257812 L 276.925781 289.511719 L 276.972656 288.757812 L 276.996094 288 L 276.972656 287.242188 L 276.925781 286.488281 L 276.828125 285.742188 L 276.707031 285.011719 L 276.550781 284.28125 L 276.359375 283.570312 L 276.144531 282.863281 L 275.890625 282.167969 L 275.605469 281.496094 L 275.292969 280.824219 L 274.957031 280.164062 L 274.585938 279.527344 L 274.1875 278.902344 L 273.757812 278.292969 L 273.3125 277.691406 L 272.832031 277.117188 L 272.328125 276.550781 L 271.800781 276 L 271.246094 275.472656 L 270.671875 274.96875 L 270.085938 274.476562 L 269.460938 273.996094 L 268.824219 273.550781 L 268.164062 273.121094 L 267.480469 272.710938 L 266.785156 272.328125 L 266.074219 271.957031 L 265.332031 271.621094 L 264.589844 271.308594 L 263.820312 271.007812 L 263.039062 270.742188 L 262.246094 270.503906 L 261.433594 270.289062 L 260.617188 270.097656 L 259.777344 269.941406 L 258.925781 269.808594 L 258.070312 269.699219 L 257.195312 269.628906 L 256.320312 269.578125 L 255.433594 269.566406 L 254.542969 269.578125 Z M 253.65625 269.628906 "/>
<path style=" stroke:none;fill-rule:nonzero;fill:rgb(94.117647%,92.54902%,92.156863%);fill-opacity:1;" d="M 73.285156 106.429688 L 730.429688 106.429688 L 730.429688 503.566406 L 73.285156 503.566406 Z M 73.285156 106.429688 "/>
<path style=" stroke:none;fill-rule:nonzero;fill:rgb(92.54902%,81.568627%,78.823529%);fill-opacity:1;" d="M 548.351562 122.148438 C 555.503906 122.148438 561.289062 127.945312 561.289062 135.097656 C 561.289062 154.90625 535.429688 164.734375 535.429688 165.289062 C 535.429688 164.734375 509.566406 154.90625 509.566406 135.097656 C 509.566406 127.945312 515.363281 122.148438 522.503906 122.148438 C 529.644531 122.148438 535.429688 127.222656 535.429688 134.375 C 535.429688 127.222656 541.210938 122.148438 548.351562 122.148438 Z M 548.351562 122.148438 "/>
<path style=" stroke:none;fill-rule:nonzero;fill:rgb(92.54902%,81.568627%,78.823529%);fill-opacity:1;" d="M 622.355469 257.566406 C 629.496094 257.566406 635.28125 263.375 635.28125 270.527344 C 635.292969 290.339844 609.433594 300.167969 609.433594 300.71875 C 609.433594 300.167969 583.570312 290.339844 583.570312 270.527344 C 583.570312 263.375 589.355469 257.566406 596.496094 257.566406 C 603.636719 257.566406 609.433594 262.65625 609.433594 269.808594 C 609.433594 262.65625 615.214844 257.566406 622.355469 257.566406 Z M 622.355469 257.566406 "/>
<path style=" stroke:none;fill-rule:nonzero;fill:rgb(83.529412%,81.568627%,81.176471%);fill-opacity:1;" d="M 156.265625 273.167969 L 255.335938 323.148438 L 200.761719 353.410156 Z M 156.265625 273.167969 "/>
<path style=" stroke:none;fill-rule:nonzero;fill:rgb(85.490196%,83.921569%,83.529412%);fill-opacity:1;" d="M 201.214844 255.984375 L 270.9375 334.285156 L 200.902344 333.996094 Z M 201.214844 255.984375 "/>
<path style=" stroke:none;fill-rule:nonzero;fill:rgb(86.666667%,84.313725%,83.529412%);fill-opacity:1;" d="M 150.289062 415.066406 L 253.679688 278.410156 L 287.195312 355.738281 Z M 150.289062 415.066406 "/>
<path style=" stroke:none;fill-rule:nonzero;fill:rgb(83.529412%,81.568627%,81.176471%);fill-opacity:1;" d="M 473.003906 388.714844 L 454.714844 435.996094 L 473.003906 435.996094 L 459.9375 470.148438 L 509.566406 422.855469 L 483.445312 422.855469 L 501.730469 388.714844 Z M 473.003906 388.714844 "/>
<path style=" stroke:none;fill-rule:nonzero;fill:rgb(87.843137%,52.941176%,44.313725%);fill-opacity:1;" d="M 359.351562 184.128906 C 372.972656 184.128906 384 194.617188 384 207.550781 C 384 243.382812 334.714844 261.15625 334.714844 262.140625 C 334.714844 261.15625 285.433594 243.382812 285.433594 207.550781 C 285.433594 194.617188 296.460938 184.128906 310.066406 184.128906 C 323.6875 184.128906 334.714844 193.320312 334.714844 206.257812 C 334.714844 193.320312 345.742188 184.128906 359.351562 184.128906 Z M 359.351562 184.128906 "/>
<path style=" stroke:none;fill-rule:nonzero;fill:rgb(83.529412%,81.568627%,81.176471%);fill-opacity:1;" d="M 124.453125 135.574219 L 108.550781 176.21875 L 124.453125 176.21875 L 113.089844 205.570312 L 156.265625 164.929688 L 133.535156 164.929688 L 149.449219 135.574219 Z M 124.453125 135.574219 "/>
<path style=" stroke:none;fill-rule:nonzero;fill:rgb(83.529412%,81.568627%,81.176471%);fill-opacity:1;" d="M 326.386719 393.574219 L 326.484375 393.589844 L 326.578125 393.613281 L 326.664062 393.636719 L 326.746094 393.660156 L 326.832031 393.683594 L 326.902344 393.71875 L 326.988281 393.769531 L 327.058594 393.804688 L 327.132812 393.851562 L 327.203125 393.910156 L 327.265625 393.960938 L 327.335938 394.019531 L 327.46875 394.152344 L 327.527344 394.222656 L 327.574219 394.296875 L 327.636719 394.367188 L 327.695312 394.453125 L 327.742188 394.535156 L 327.804688 394.621094 L 327.851562 394.703125 L 327.898438 394.800781 L 327.949219 394.894531 L 328.042969 395.089844 L 328.09375 395.195312 L 328.140625 395.292969 L 328.1875 395.398438 L 328.222656 395.507812 L 328.273438 395.628906 L 328.308594 395.734375 L 328.355469 395.855469 L 328.390625 395.964844 L 328.441406 396.085938 L 328.476562 396.203125 L 328.523438 396.324219 L 328.558594 396.445312 L 328.597656 396.574219 L 330.671875 404.351562 L 331.332031 404.554688 L 332.773438 405.070312 L 334.175781 405.636719 L 335.566406 406.261719 L 336.925781 406.921875 L 337.03125 406.980469 L 344.027344 402.9375 L 344.148438 402.875 L 344.269531 402.816406 L 344.375 402.757812 L 344.496094 402.707031 L 344.605469 402.648438 L 344.710938 402.601562 L 344.820312 402.550781 L 344.941406 402.492188 L 345.046875 402.445312 L 345.15625 402.40625 L 345.253906 402.359375 L 345.359375 402.3125 L 345.46875 402.277344 L 345.574219 402.238281 L 345.671875 402.203125 L 345.78125 402.179688 L 345.875 402.144531 L 345.972656 402.121094 L 346.078125 402.097656 L 346.175781 402.070312 L 346.273438 402.058594 L 346.355469 402.046875 L 346.453125 402.035156 L 346.546875 402.023438 L 346.726562 402.023438 L 346.8125 402.035156 L 346.90625 402.035156 L 346.992188 402.046875 L 347.074219 402.070312 L 347.160156 402.097656 L 347.242188 402.121094 L 347.328125 402.15625 L 347.398438 402.191406 L 347.484375 402.226562 L 347.554688 402.277344 L 347.628906 402.324219 L 347.710938 402.382812 L 347.785156 402.445312 L 347.84375 402.515625 L 358.03125 412.691406 L 358.105469 412.765625 L 358.222656 412.90625 L 358.273438 412.992188 L 358.320312 413.0625 L 358.367188 413.148438 L 358.402344 413.230469 L 358.441406 413.316406 L 358.464844 413.398438 L 358.488281 413.484375 L 358.511719 413.566406 L 358.523438 413.664062 L 358.535156 413.746094 L 358.546875 413.84375 L 358.546875 414.121094 L 358.535156 414.214844 L 358.523438 414.3125 L 358.511719 414.40625 L 358.488281 414.515625 L 358.464844 414.613281 L 358.414062 414.816406 L 358.378906 414.910156 L 358.355469 415.019531 L 358.308594 415.128906 L 358.273438 415.222656 L 358.234375 415.332031 L 358.1875 415.441406 L 358.140625 415.546875 L 358.09375 415.65625 L 358.03125 415.753906 L 357.984375 415.859375 L 357.925781 415.96875 L 357.863281 416.074219 L 357.804688 416.183594 L 357.742188 416.292969 L 357.671875 416.398438 L 357.613281 416.507812 L 353.566406 423.492188 L 353.652344 423.648438 L 354.3125 425.003906 L 354.9375 426.394531 L 355.5 427.800781 L 356.015625 429.238281 L 356.207031 429.898438 L 363.996094 431.976562 L 364.128906 432 L 364.246094 432.035156 L 364.367188 432.058594 L 364.488281 432.097656 L 364.609375 432.132812 L 364.714844 432.167969 L 364.835938 432.203125 L 364.945312 432.238281 L 365.0625 432.277344 L 365.171875 432.324219 L 365.269531 432.359375 L 365.375 432.40625 L 365.484375 432.457031 L 365.578125 432.503906 L 365.675781 432.550781 L 365.773438 432.601562 L 365.867188 432.648438 L 365.953125 432.707031 L 366.035156 432.757812 L 366.121094 432.816406 L 366.203125 432.875 L 366.277344 432.9375 L 366.347656 432.996094 L 366.421875 433.066406 L 366.492188 433.128906 L 366.550781 433.199219 L 366.613281 433.273438 L 366.660156 433.34375 L 366.71875 433.414062 L 366.769531 433.488281 L 366.804688 433.570312 L 366.851562 433.65625 L 366.886719 433.726562 L 366.910156 433.8125 L 366.9375 433.90625 L 366.960938 433.992188 L 366.972656 434.089844 L 366.996094 434.171875 L 366.996094 448.96875 L 366.972656 449.050781 L 366.960938 449.148438 L 366.9375 449.230469 L 366.910156 449.316406 L 366.886719 449.398438 L 366.851562 449.484375 L 366.804688 449.554688 L 366.769531 449.628906 L 366.71875 449.699219 L 366.660156 449.773438 L 366.613281 449.84375 L 366.550781 449.902344 L 366.492188 449.976562 L 366.421875 450.035156 L 366.347656 450.097656 L 366.277344 450.15625 L 366.203125 450.214844 L 366.121094 450.265625 L 366.035156 450.324219 L 365.953125 450.371094 L 365.867188 450.421875 L 365.773438 450.480469 L 365.578125 450.574219 L 365.484375 450.625 L 365.375 450.671875 L 365.269531 450.707031 L 365.171875 450.757812 L 365.0625 450.804688 L 364.945312 450.839844 L 364.835938 450.886719 L 364.714844 450.925781 L 364.609375 450.972656 L 364.488281 451.007812 L 364.367188 451.054688 L 364.246094 451.09375 L 364.128906 451.128906 L 363.996094 451.175781 L 356.207031 453.253906 L 356.015625 453.898438 L 355.5 455.339844 L 354.9375 456.757812 L 354.3125 458.136719 L 353.652344 459.492188 L 353.566406 459.636719 L 357.613281 466.609375 L 357.671875 466.714844 L 357.742188 466.824219 L 357.804688 466.933594 L 357.863281 467.039062 L 357.925781 467.148438 L 357.984375 467.257812 L 358.03125 467.351562 L 358.09375 467.460938 L 358.140625 467.566406 L 358.234375 467.785156 L 358.273438 467.890625 L 358.308594 467.988281 L 358.355469 468.097656 L 358.378906 468.203125 L 358.414062 468.300781 L 358.441406 468.40625 L 358.488281 468.601562 L 358.511719 468.695312 L 358.523438 468.804688 L 358.535156 468.898438 L 358.546875 468.996094 L 358.546875 469.273438 L 358.535156 469.367188 L 358.523438 469.453125 L 358.511719 469.546875 L 358.488281 469.632812 L 358.464844 469.714844 L 358.441406 469.800781 L 358.402344 469.882812 L 358.367188 469.96875 L 358.320312 470.050781 L 358.273438 470.125 L 358.222656 470.207031 L 358.164062 470.28125 L 358.105469 470.351562 L 358.03125 470.425781 L 347.84375 480.601562 L 347.785156 480.671875 L 347.710938 480.730469 L 347.628906 480.792969 L 347.554688 480.839844 L 347.484375 480.886719 L 347.398438 480.925781 L 347.328125 480.960938 L 347.242188 480.996094 L 347.160156 481.019531 L 347.074219 481.042969 L 346.992188 481.054688 L 346.90625 481.078125 L 346.8125 481.078125 L 346.726562 481.09375 L 346.546875 481.09375 L 346.453125 481.078125 L 346.355469 481.066406 L 346.273438 481.054688 L 346.175781 481.042969 L 346.078125 481.019531 L 345.972656 480.996094 L 345.875 480.972656 L 345.78125 480.9375 L 345.671875 480.910156 L 345.574219 480.875 L 345.46875 480.839844 L 345.359375 480.792969 L 345.253906 480.757812 L 345.15625 480.707031 L 345.046875 480.660156 L 344.941406 480.613281 L 344.820312 480.5625 L 344.710938 480.515625 L 344.605469 480.46875 L 344.496094 480.40625 L 344.375 480.347656 L 344.269531 480.300781 L 344.148438 480.238281 L 344.027344 480.179688 L 337.054688 476.148438 L 336.925781 476.21875 L 335.566406 476.890625 L 334.175781 477.503906 L 332.773438 478.066406 L 331.332031 478.585938 L 330.671875 478.789062 L 328.597656 486.574219 L 328.558594 486.695312 L 328.523438 486.816406 L 328.476562 486.9375 L 328.441406 487.054688 L 328.390625 487.175781 L 328.355469 487.296875 L 328.308594 487.402344 L 328.273438 487.523438 L 328.222656 487.632812 L 328.1875 487.738281 L 328.140625 487.847656 L 328.09375 487.945312 L 328.042969 488.050781 L 327.996094 488.148438 L 327.949219 488.242188 L 327.898438 488.339844 L 327.851562 488.4375 L 327.804688 488.519531 L 327.742188 488.605469 L 327.695312 488.6875 L 327.636719 488.773438 L 327.574219 488.84375 L 327.527344 488.929688 L 327.46875 488.988281 L 327.394531 489.058594 L 327.335938 489.121094 L 327.265625 489.179688 L 327.203125 489.238281 L 327.132812 489.289062 L 327.058594 489.335938 L 326.988281 489.382812 L 326.902344 489.421875 L 326.832031 489.457031 L 326.746094 489.480469 L 326.664062 489.515625 L 326.578125 489.527344 L 326.484375 489.550781 L 326.386719 489.5625 L 326.292969 489.5625 L 326.195312 489.574219 L 311.796875 489.574219 L 311.699219 489.5625 L 311.605469 489.5625 L 311.507812 489.550781 L 311.425781 489.527344 L 311.328125 489.515625 L 311.242188 489.480469 L 311.160156 489.457031 L 311.074219 489.421875 L 311.003906 489.382812 L 310.921875 489.335938 L 310.847656 489.289062 L 310.777344 489.238281 L 310.691406 489.179688 L 310.632812 489.121094 L 310.558594 489.058594 L 310.429688 488.929688 L 310.367188 488.84375 L 310.308594 488.773438 L 310.246094 488.6875 L 310.1875 488.605469 L 310.140625 488.519531 L 310.078125 488.4375 L 309.984375 488.242188 L 309.9375 488.148438 L 309.886719 488.050781 L 309.839844 487.945312 L 309.792969 487.847656 L 309.757812 487.738281 L 309.707031 487.632812 L 309.671875 487.523438 L 309.636719 487.402344 L 309.601562 487.296875 L 309.5625 487.175781 L 309.527344 487.054688 L 309.492188 486.9375 L 309.457031 486.816406 L 309.433594 486.695312 L 309.394531 486.574219 L 307.320312 478.789062 L 306.671875 478.585938 L 305.230469 478.066406 L 303.816406 477.503906 L 302.4375 476.890625 L 301.078125 476.21875 L 300.910156 476.125 L 293.964844 480.15625 L 293.855469 480.214844 L 293.746094 480.289062 L 293.640625 480.347656 L 293.53125 480.40625 L 293.425781 480.46875 L 293.316406 480.527344 L 293.21875 480.574219 L 293.113281 480.636719 L 292.894531 480.730469 L 292.789062 480.769531 L 292.679688 480.816406 L 292.585938 480.851562 L 292.476562 480.886719 L 292.367188 480.925781 L 292.273438 480.960938 L 292.164062 480.984375 L 292.066406 481.007812 L 291.972656 481.03125 L 291.863281 481.054688 L 291.769531 481.066406 L 291.671875 481.078125 L 291.574219 481.078125 L 291.480469 481.09375 L 291.382812 481.09375 L 291.300781 481.078125 L 291.203125 481.078125 L 291.121094 481.066406 L 291.023438 481.054688 L 290.941406 481.03125 L 290.855469 481.007812 L 290.773438 480.972656 L 290.6875 480.949219 L 290.605469 480.898438 L 290.519531 480.863281 L 290.449219 480.816406 L 290.363281 480.769531 L 290.292969 480.707031 L 290.21875 480.648438 L 290.148438 480.574219 L 279.972656 470.386719 L 279.898438 470.316406 L 279.839844 470.242188 L 279.78125 470.171875 L 279.730469 470.101562 L 279.683594 470.027344 L 279.648438 469.945312 L 279.613281 469.859375 L 279.574219 469.789062 L 279.550781 469.703125 L 279.527344 469.621094 L 279.515625 469.535156 L 279.492188 469.453125 L 279.492188 469.355469 L 279.480469 469.273438 L 279.480469 469.09375 L 279.503906 468.898438 L 279.515625 468.804688 L 279.527344 468.707031 L 279.550781 468.613281 L 279.574219 468.515625 L 279.601562 468.421875 L 279.636719 468.324219 L 279.660156 468.214844 L 279.695312 468.121094 L 279.730469 468.011719 L 279.78125 467.902344 L 279.816406 467.796875 L 279.910156 467.578125 L 279.960938 467.472656 L 280.007812 467.363281 L 280.054688 467.257812 L 280.105469 467.148438 L 280.164062 467.027344 L 280.222656 466.921875 L 280.273438 466.800781 L 280.332031 466.691406 L 280.390625 466.570312 L 284.425781 459.613281 L 284.351562 459.492188 L 283.679688 458.136719 L 283.066406 456.757812 L 282.503906 455.339844 L 281.988281 453.898438 L 281.785156 453.253906 L 273.996094 451.175781 L 273.875 451.128906 L 273.757812 451.09375 L 273.636719 451.054688 L 273.515625 451.007812 L 273.394531 450.972656 L 273.277344 450.925781 L 273.167969 450.886719 L 273.046875 450.839844 L 272.941406 450.804688 L 272.832031 450.757812 L 272.722656 450.707031 L 272.617188 450.671875 L 272.519531 450.625 L 272.425781 450.574219 L 272.230469 450.480469 L 272.136719 450.421875 L 272.050781 450.371094 L 271.96875 450.324219 L 271.882812 450.265625 L 271.800781 450.214844 L 271.726562 450.15625 L 271.644531 450.097656 L 271.585938 450.035156 L 271.511719 449.976562 L 271.453125 449.902344 L 271.390625 449.84375 L 271.332031 449.773438 L 271.285156 449.699219 L 271.234375 449.628906 L 271.1875 449.554688 L 271.152344 449.484375 L 271.117188 449.398438 L 271.09375 449.316406 L 271.054688 449.230469 L 271.042969 449.148438 L 271.019531 449.050781 L 271.007812 448.96875 L 271.007812 448.871094 L 270.996094 448.777344 L 270.996094 434.375 L 271.007812 434.269531 L 271.007812 434.171875 L 271.019531 434.089844 L 271.042969 433.992188 L 271.054688 433.90625 L 271.09375 433.8125 L 271.117188 433.726562 L 271.152344 433.65625 L 271.1875 433.570312 L 271.234375 433.488281 L 271.285156 433.414062 L 271.332031 433.34375 L 271.390625 433.273438 L 271.453125 433.199219 L 271.511719 433.128906 L 271.585938 433.066406 L 271.644531 432.996094 L 271.726562 432.9375 L 271.800781 432.875 L 271.882812 432.816406 L 271.96875 432.757812 L 272.050781 432.707031 L 272.136719 432.648438 L 272.230469 432.601562 L 272.328125 432.550781 L 272.425781 432.503906 L 272.519531 432.457031 L 272.617188 432.40625 L 272.722656 432.359375 L 272.832031 432.324219 L 272.941406 432.277344 L 273.046875 432.238281 L 273.167969 432.203125 L 273.277344 432.167969 L 273.394531 432.132812 L 273.515625 432.097656 L 273.636719 432.058594 L 273.757812 432.035156 L 273.875 432 L 273.996094 431.976562 L 281.785156 429.898438 L 281.988281 429.238281 L 282.503906 427.800781 L 283.066406 426.394531 L 283.679688 425.003906 L 284.351562 423.648438 L 284.425781 423.515625 L 280.390625 416.542969 L 280.332031 416.425781 L 280.273438 416.304688 L 280.222656 416.195312 L 280.164062 416.074219 L 280.105469 415.96875 L 280.054688 415.859375 L 280.007812 415.753906 L 279.960938 415.632812 L 279.910156 415.523438 L 279.863281 415.414062 L 279.816406 415.308594 L 279.78125 415.210938 L 279.730469 415.105469 L 279.695312 414.996094 L 279.660156 414.898438 L 279.636719 414.792969 L 279.601562 414.695312 L 279.574219 414.601562 L 279.550781 414.492188 L 279.527344 414.394531 L 279.515625 414.300781 L 279.503906 414.203125 L 279.492188 414.121094 L 279.480469 414.023438 L 279.480469 413.84375 L 279.492188 413.746094 L 279.492188 413.664062 L 279.515625 413.578125 L 279.527344 413.496094 L 279.550781 413.410156 L 279.574219 413.328125 L 279.613281 413.242188 L 279.648438 413.171875 L 279.683594 413.089844 L 279.730469 413.015625 L 279.78125 412.945312 L 279.839844 412.859375 L 279.898438 412.789062 L 290.21875 402.46875 L 290.292969 402.40625 L 290.363281 402.347656 L 290.449219 402.300781 L 290.519531 402.253906 L 290.605469 402.203125 L 290.6875 402.167969 L 290.773438 402.132812 L 290.855469 402.109375 L 290.941406 402.085938 L 291.023438 402.058594 L 291.121094 402.046875 L 291.203125 402.035156 L 291.300781 402.023438 L 291.574219 402.023438 L 291.769531 402.046875 L 291.863281 402.058594 L 292.066406 402.109375 L 292.164062 402.132812 L 292.273438 402.15625 L 292.367188 402.191406 L 292.476562 402.214844 L 292.585938 402.265625 L 292.679688 402.300781 L 292.789062 402.335938 L 292.894531 402.382812 L 293.003906 402.433594 L 293.113281 402.480469 L 293.21875 402.539062 L 293.316406 402.589844 L 293.425781 402.648438 L 293.53125 402.707031 L 293.640625 402.769531 L 293.746094 402.828125 L 293.855469 402.898438 L 293.964844 402.960938 L 300.9375 407.003906 L 301.078125 406.921875 L 302.4375 406.261719 L 303.816406 405.636719 L 305.230469 405.070312 L 306.671875 404.554688 L 307.320312 404.351562 L 309.394531 396.574219 L 309.433594 396.445312 L 309.457031 396.324219 L 309.492188 396.203125 L 309.527344 396.085938 L 309.5625 395.964844 L 309.601562 395.855469 L 309.636719 395.734375 L 309.671875 395.628906 L 309.707031 395.507812 L 309.757812 395.398438 L 309.792969 395.292969 L 309.839844 395.195312 L 309.886719 395.089844 L 309.9375 394.992188 L 309.984375 394.894531 L 310.03125 394.800781 L 310.078125 394.703125 L 310.140625 394.621094 L 310.1875 394.535156 L 310.246094 394.453125 L 310.308594 394.367188 L 310.367188 394.296875 L 310.429688 394.222656 L 310.488281 394.152344 L 310.558594 394.078125 L 310.632812 394.019531 L 310.691406 393.960938 L 310.777344 393.910156 L 310.847656 393.851562 L 310.921875 393.804688 L 311.003906 393.769531 L 311.074219 393.71875 L 311.160156 393.683594 L 311.242188 393.660156 L 311.328125 393.636719 L 311.425781 393.613281 L 311.507812 393.589844 L 311.605469 393.574219 Z M 317.28125 420.636719 L 316.429688 420.730469 L 315.589844 420.851562 L 314.773438 420.996094 L 313.957031 421.175781 L 313.152344 421.390625 L 312.359375 421.644531 L 311.59375 421.921875 L 310.824219 422.21875 L 310.078125 422.554688 L 309.347656 422.914062 L 308.640625 423.300781 L 307.945312 423.71875 L 307.261719 424.152344 L 306.601562 424.621094 L 305.953125 425.113281 L 305.328125 425.628906 L 304.726562 426.167969 L 304.152344 426.71875 L 303.589844 427.308594 L 303.058594 427.90625 L 302.542969 428.53125 L 302.050781 429.167969 L 301.585938 429.828125 L 301.152344 430.511719 L 300.730469 431.207031 L 300.347656 431.914062 L 299.988281 432.648438 L 299.652344 433.390625 L 299.339844 434.160156 L 299.074219 434.929688 L 298.824219 435.71875 L 298.609375 436.523438 L 298.429688 437.339844 L 298.273438 438.167969 L 298.152344 438.996094 L 298.066406 439.847656 L 298.019531 440.699219 L 297.996094 441.574219 L 298.019531 442.441406 L 298.066406 443.292969 L 298.152344 444.144531 L 298.273438 444.972656 L 298.429688 445.800781 L 298.609375 446.617188 L 298.824219 447.421875 L 299.074219 448.210938 L 299.339844 448.980469 L 299.652344 449.746094 L 299.988281 450.492188 L 300.347656 451.222656 L 300.730469 451.933594 L 301.152344 452.628906 L 301.585938 453.3125 L 302.050781 453.972656 L 302.542969 454.621094 L 303.058594 455.242188 L 303.589844 455.84375 L 304.152344 456.421875 L 304.726562 456.984375 L 305.328125 457.511719 L 305.953125 458.027344 L 306.601562 458.519531 L 307.261719 458.988281 L 307.945312 459.421875 L 308.640625 459.839844 L 309.347656 460.222656 L 310.078125 460.585938 L 310.824219 460.921875 L 311.59375 461.21875 L 312.359375 461.496094 L 313.152344 461.746094 L 313.957031 461.964844 L 314.773438 462.144531 L 315.589844 462.300781 L 316.429688 462.421875 L 317.28125 462.503906 L 318.132812 462.550781 L 318.996094 462.574219 L 319.859375 462.550781 L 320.722656 462.503906 L 321.5625 462.421875 L 322.402344 462.300781 L 323.230469 462.144531 L 324.046875 461.964844 L 324.851562 461.746094 L 325.632812 461.496094 L 326.410156 461.21875 L 327.179688 460.921875 L 327.925781 460.585938 L 328.65625 460.222656 L 329.363281 459.839844 L 330.058594 459.421875 L 330.742188 458.988281 L 331.402344 458.519531 L 332.039062 458.027344 L 332.664062 457.511719 L 333.265625 456.984375 L 333.851562 456.421875 L 334.402344 455.84375 L 334.945312 455.242188 L 335.460938 454.621094 L 335.953125 453.972656 L 336.40625 453.3125 L 336.851562 452.628906 L 337.273438 451.933594 L 337.65625 451.222656 L 338.015625 450.492188 L 338.351562 449.746094 L 338.652344 448.980469 L 338.929688 448.210938 L 339.179688 447.421875 L 339.382812 446.617188 L 339.574219 445.800781 L 339.71875 444.972656 L 339.839844 444.144531 L 339.9375 443.292969 L 339.984375 442.441406 L 339.996094 441.574219 L 339.984375 440.699219 L 339.9375 439.847656 L 339.839844 438.996094 L 339.71875 438.167969 L 339.574219 437.339844 L 339.382812 436.523438 L 339.179688 435.71875 L 338.929688 434.929688 L 338.652344 434.160156 L 338.351562 433.390625 L 338.015625 432.648438 L 337.65625 431.914062 L 337.273438 431.207031 L 336.851562 430.511719 L 336.40625 429.828125 L 335.953125 429.167969 L 335.460938 428.53125 L 334.945312 427.90625 L 334.402344 427.308594 L 333.851562 426.71875 L 333.265625 426.167969 L 332.664062 425.628906 L 332.039062 425.113281 L 331.402344 424.621094 L 330.742188 424.152344 L 330.058594 423.71875 L 329.363281 423.300781 L 328.65625 422.914062 L 327.925781 422.554688 L 327.179688 422.21875 L 326.410156 421.921875 L 325.632812 421.644531 L 324.851562 421.390625 L 324.046875 421.175781 L 323.230469 420.996094 L 322.402344 420.851562 L 321.5625 420.730469 L 320.722656 420.636719 L 319.859375 420.589844 L 318.996094 420.574219 L 318.132812 420.589844 Z M 317.28125 420.636719 "/>
<path style=" stroke:none;fill-rule:nonzero;fill:rgb(83.529412%,81.568627%,81.176471%);fill-opacity:1;" d="M 488.269531 230.4375 L 488.339844 230.4375 L 488.398438 230.449219 L 488.460938 230.460938 L 488.519531 230.484375 L 488.578125 230.496094 L 488.640625 230.519531 L 488.699219 230.542969 L 488.746094 230.566406 L 488.808594 230.605469 L 488.855469 230.628906 L 488.902344 230.664062 L 488.953125 230.699219 L 489 230.734375 L 489.046875 230.773438 L 489.097656 230.820312 L 489.179688 230.902344 L 489.214844 230.953125 L 489.253906 231 L 489.300781 231.058594 L 489.335938 231.109375 L 489.371094 231.167969 L 489.40625 231.214844 L 489.445312 231.277344 L 489.480469 231.335938 L 489.503906 231.394531 L 489.539062 231.457031 L 489.574219 231.527344 L 489.613281 231.589844 L 489.636719 231.660156 L 489.671875 231.71875 L 489.695312 231.792969 L 489.730469 231.863281 L 489.757812 231.9375 L 489.792969 232.007812 L 489.816406 232.078125 L 489.851562 232.152344 L 489.875 232.222656 L 491.386719 236.878906 L 491.867188 237 L 492.910156 237.3125 L 493.945312 237.648438 L 494.964844 238.019531 L 495.949219 238.414062 L 496.03125 238.453125 L 501.132812 236.027344 L 501.214844 235.992188 L 501.300781 235.957031 L 501.382812 235.921875 L 501.46875 235.894531 L 501.550781 235.859375 L 501.636719 235.824219 L 501.71875 235.800781 L 501.792969 235.765625 L 501.875 235.738281 L 501.949219 235.714844 L 502.03125 235.679688 L 502.105469 235.65625 L 502.1875 235.632812 L 502.261719 235.621094 L 502.332031 235.597656 L 502.402344 235.570312 L 502.476562 235.558594 L 502.546875 235.535156 L 502.621094 235.523438 L 502.691406 235.511719 L 502.765625 235.5 L 502.835938 235.5 L 502.90625 235.488281 L 503.171875 235.488281 L 503.230469 235.5 L 503.292969 235.5 L 503.410156 235.523438 L 503.472656 235.535156 L 503.53125 235.558594 L 503.59375 235.585938 L 503.710938 235.632812 L 503.761719 235.667969 L 503.820312 235.703125 L 503.867188 235.738281 L 503.914062 235.777344 L 511.34375 241.871094 L 511.402344 241.90625 L 511.441406 241.957031 L 511.523438 242.039062 L 511.558594 242.089844 L 511.597656 242.136719 L 511.644531 242.230469 L 511.667969 242.292969 L 511.691406 242.386719 L 511.703125 242.449219 L 511.714844 242.496094 L 511.726562 242.554688 L 511.726562 242.664062 L 511.714844 242.722656 L 511.714844 242.785156 L 511.703125 242.832031 L 511.691406 242.890625 L 511.679688 242.953125 L 511.667969 243.011719 L 511.644531 243.070312 L 511.632812 243.132812 L 511.609375 243.191406 L 511.585938 243.265625 L 511.558594 243.324219 L 511.523438 243.382812 L 511.5 243.445312 L 511.464844 243.503906 L 511.429688 243.574219 L 511.390625 243.636719 L 511.355469 243.695312 L 511.308594 243.769531 L 511.273438 243.828125 L 511.222656 243.886719 L 511.175781 243.960938 L 511.140625 244.019531 L 511.09375 244.09375 L 511.042969 244.152344 L 508.09375 248.328125 L 508.152344 248.425781 L 508.644531 249.226562 L 509.089844 250.054688 L 509.507812 250.90625 L 509.878906 251.773438 L 510.023438 252.15625 L 515.699219 253.402344 L 515.796875 253.414062 L 515.878906 253.441406 L 515.976562 253.453125 L 516.058594 253.476562 L 516.144531 253.5 L 516.226562 253.511719 L 516.3125 253.535156 L 516.394531 253.558594 L 516.480469 253.585938 L 516.550781 253.609375 L 516.636719 253.632812 L 516.707031 253.65625 L 516.78125 253.691406 L 516.851562 253.714844 L 516.925781 253.753906 L 516.996094 253.777344 L 517.066406 253.8125 L 517.128906 253.835938 L 517.246094 253.90625 L 517.308594 253.945312 L 517.367188 253.980469 L 517.414062 254.015625 L 517.464844 254.050781 L 517.511719 254.089844 L 517.558594 254.136719 L 517.609375 254.171875 L 517.644531 254.21875 L 517.679688 254.269531 L 517.714844 254.304688 L 517.753906 254.351562 L 517.777344 254.398438 L 517.800781 254.449219 L 517.824219 254.507812 L 517.847656 254.554688 L 517.859375 254.605469 L 517.882812 254.722656 L 517.882812 254.773438 L 517.894531 254.832031 L 517.894531 263.449219 L 517.882812 263.507812 L 517.882812 263.566406 L 517.871094 263.617188 L 517.859375 263.675781 L 517.847656 263.722656 L 517.824219 263.773438 L 517.753906 263.914062 L 517.714844 263.964844 L 517.679688 264.011719 L 517.644531 264.046875 L 517.609375 264.085938 L 517.558594 264.132812 L 517.464844 264.203125 L 517.414062 264.238281 L 517.367188 264.277344 L 517.308594 264.3125 L 517.246094 264.347656 L 517.1875 264.371094 L 517.128906 264.40625 L 517.066406 264.445312 L 516.996094 264.46875 L 516.925781 264.503906 L 516.851562 264.527344 L 516.78125 264.550781 L 516.707031 264.589844 L 516.636719 264.613281 L 516.550781 264.636719 L 516.480469 264.660156 L 516.394531 264.683594 L 516.3125 264.71875 L 516.226562 264.742188 L 516.144531 264.769531 L 516.058594 264.792969 L 515.976562 264.816406 L 515.878906 264.839844 L 515.796875 264.863281 L 515.699219 264.886719 L 510.023438 266.125 L 509.878906 266.519531 L 509.507812 267.382812 L 509.089844 268.222656 L 508.644531 269.050781 L 508.152344 269.867188 L 508.09375 269.953125 L 511.042969 274.117188 L 511.09375 274.175781 L 511.140625 274.246094 L 511.175781 274.308594 L 511.222656 274.378906 L 511.273438 274.441406 L 511.308594 274.5 L 511.355469 274.570312 L 511.390625 274.632812 L 511.429688 274.691406 L 511.464844 274.765625 L 511.5 274.824219 L 511.523438 274.882812 L 511.558594 274.945312 L 511.585938 275.003906 L 511.609375 275.074219 L 511.632812 275.136719 L 511.644531 275.195312 L 511.667969 275.257812 L 511.691406 275.375 L 511.703125 275.4375 L 511.714844 275.484375 L 511.714844 275.542969 L 511.726562 275.605469 L 511.726562 275.710938 L 511.714844 275.773438 L 511.703125 275.820312 L 511.691406 275.878906 L 511.679688 275.929688 L 511.667969 275.976562 L 511.644531 276.035156 L 511.621094 276.085938 L 511.597656 276.132812 L 511.558594 276.179688 L 511.523438 276.226562 L 511.488281 276.277344 L 511.441406 276.3125 L 511.402344 276.359375 L 511.34375 276.394531 L 503.914062 282.492188 L 503.820312 282.5625 L 503.761719 282.601562 L 503.710938 282.636719 L 503.59375 282.683594 L 503.53125 282.707031 L 503.472656 282.730469 L 503.410156 282.742188 L 503.351562 282.757812 L 503.292969 282.769531 L 503.230469 282.78125 L 502.90625 282.78125 L 502.835938 282.769531 L 502.765625 282.769531 L 502.691406 282.757812 L 502.621094 282.742188 L 502.546875 282.730469 L 502.476562 282.707031 L 502.402344 282.695312 L 502.261719 282.648438 L 502.1875 282.636719 L 502.105469 282.613281 L 502.03125 282.589844 L 501.949219 282.550781 L 501.875 282.527344 L 501.792969 282.503906 L 501.71875 282.46875 L 501.636719 282.445312 L 501.550781 282.40625 L 501.46875 282.371094 L 501.382812 282.347656 L 501.300781 282.3125 L 501.214844 282.277344 L 501.132812 282.238281 L 496.042969 279.828125 L 495.949219 279.863281 L 494.964844 280.273438 L 493.945312 280.644531 L 492.910156 280.980469 L 491.867188 281.28125 L 491.386719 281.398438 L 489.875 286.066406 L 489.851562 286.140625 L 489.816406 286.210938 L 489.792969 286.285156 L 489.757812 286.355469 L 489.730469 286.429688 L 489.695312 286.488281 L 489.671875 286.558594 L 489.636719 286.632812 L 489.613281 286.691406 L 489.574219 286.765625 L 489.503906 286.882812 L 489.480469 286.945312 L 489.445312 287.003906 L 489.40625 287.0625 L 489.371094 287.125 L 489.335938 287.171875 L 489.300781 287.230469 L 489.253906 287.28125 L 489.214844 287.328125 L 489.179688 287.375 L 489.132812 287.425781 L 489.097656 287.472656 L 489.046875 287.507812 L 489 287.554688 L 488.953125 287.59375 L 488.902344 287.628906 L 488.855469 287.652344 L 488.808594 287.6875 L 488.746094 287.710938 L 488.699219 287.746094 L 488.640625 287.761719 L 488.578125 287.785156 L 488.519531 287.808594 L 488.460938 287.820312 L 488.398438 287.832031 L 488.339844 287.84375 L 488.269531 287.855469 L 477.480469 287.855469 L 477.40625 287.84375 L 477.347656 287.832031 L 477.277344 287.820312 L 477.214844 287.808594 L 477.097656 287.761719 L 477.035156 287.746094 L 476.976562 287.710938 L 476.929688 287.6875 L 476.867188 287.652344 L 476.820312 287.628906 L 476.773438 287.59375 L 476.710938 287.554688 L 476.664062 287.507812 L 476.617188 287.472656 L 476.578125 287.425781 L 476.53125 287.375 L 476.484375 287.328125 L 476.449219 287.28125 L 476.410156 287.230469 L 476.363281 287.171875 L 476.328125 287.125 L 476.292969 287.0625 L 476.257812 287.003906 L 476.21875 286.945312 L 476.195312 286.882812 L 476.125 286.765625 L 476.101562 286.691406 L 476.0625 286.632812 L 476.039062 286.558594 L 476.015625 286.488281 L 475.992188 286.429688 L 475.957031 286.355469 L 475.933594 286.285156 L 475.921875 286.210938 L 475.894531 286.140625 L 475.871094 286.066406 L 474.359375 281.398438 L 473.878906 281.28125 L 472.835938 280.980469 L 471.804688 280.644531 L 470.785156 280.273438 L 469.800781 279.863281 L 469.679688 279.816406 L 464.617188 282.214844 L 464.53125 282.265625 L 464.460938 282.300781 L 464.375 282.335938 L 464.292969 282.371094 L 464.21875 282.40625 L 464.136719 282.445312 L 464.0625 282.480469 L 463.980469 282.503906 L 463.90625 282.539062 L 463.835938 282.5625 L 463.753906 282.601562 L 463.679688 282.625 L 463.597656 282.648438 L 463.523438 282.660156 L 463.453125 282.683594 L 463.378906 282.707031 L 463.296875 282.71875 L 463.222656 282.730469 L 463.152344 282.742188 L 463.078125 282.757812 L 462.9375 282.78125 L 462.601562 282.78125 L 462.527344 282.769531 L 462.46875 282.757812 L 462.40625 282.742188 L 462.335938 282.730469 L 462.277344 282.71875 L 462.214844 282.695312 L 462.097656 282.648438 L 462.046875 282.625 L 461.988281 282.589844 L 461.929688 282.550781 L 461.878906 282.515625 L 461.832031 282.480469 L 454.402344 276.382812 L 454.355469 276.335938 L 454.308594 276.300781 L 454.261719 276.253906 L 454.222656 276.203125 L 454.1875 276.167969 L 454.164062 276.121094 L 454.140625 276.070312 L 454.09375 275.976562 L 454.042969 275.773438 L 454.042969 275.605469 L 454.054688 275.554688 L 454.054688 275.496094 L 454.066406 275.4375 L 454.078125 275.375 L 454.09375 275.316406 L 454.117188 275.269531 L 454.128906 275.207031 L 454.175781 275.089844 L 454.199219 275.015625 L 454.222656 274.957031 L 454.261719 274.894531 L 454.285156 274.835938 L 454.320312 274.765625 L 454.355469 274.703125 L 454.390625 274.644531 L 454.429688 274.570312 L 454.464844 274.511719 L 454.5 274.441406 L 454.535156 274.378906 L 454.585938 274.308594 L 454.621094 274.234375 L 454.667969 274.164062 L 454.703125 274.105469 L 457.644531 269.941406 L 457.597656 269.867188 L 457.105469 269.050781 L 456.660156 268.222656 L 456.253906 267.382812 L 455.867188 266.519531 L 455.722656 266.125 L 450.046875 264.886719 L 449.953125 264.863281 L 449.867188 264.839844 L 449.785156 264.816406 L 449.6875 264.792969 L 449.605469 264.769531 L 449.519531 264.742188 L 449.4375 264.71875 L 449.351562 264.683594 L 449.269531 264.660156 L 449.195312 264.636719 L 449.113281 264.613281 L 449.039062 264.589844 L 448.96875 264.550781 L 448.894531 264.527344 L 448.824219 264.503906 L 448.753906 264.46875 L 448.691406 264.445312 L 448.621094 264.40625 L 448.558594 264.371094 L 448.5 264.347656 L 448.441406 264.3125 L 448.378906 264.277344 L 448.332031 264.238281 L 448.285156 264.203125 L 448.234375 264.167969 L 448.1875 264.132812 L 448.140625 264.085938 L 448.105469 264.046875 L 448.066406 264.011719 L 448.03125 263.964844 L 447.996094 263.914062 L 447.925781 263.773438 L 447.898438 263.722656 L 447.886719 263.675781 L 447.875 263.617188 L 447.863281 263.566406 L 447.863281 263.507812 L 447.851562 263.449219 L 447.851562 254.832031 L 447.863281 254.773438 L 447.863281 254.722656 L 447.886719 254.605469 L 447.898438 254.554688 L 447.925781 254.507812 L 447.949219 254.449219 L 447.972656 254.398438 L 447.996094 254.351562 L 448.03125 254.304688 L 448.066406 254.269531 L 448.105469 254.21875 L 448.140625 254.171875 L 448.1875 254.136719 L 448.234375 254.089844 L 448.285156 254.050781 L 448.378906 253.980469 L 448.441406 253.945312 L 448.5 253.90625 L 448.558594 253.871094 L 448.621094 253.835938 L 448.691406 253.8125 L 448.753906 253.777344 L 448.824219 253.753906 L 448.894531 253.714844 L 448.96875 253.691406 L 449.039062 253.65625 L 449.113281 253.632812 L 449.195312 253.609375 L 449.269531 253.585938 L 449.351562 253.558594 L 449.4375 253.535156 L 449.519531 253.511719 L 449.605469 253.5 L 449.6875 253.476562 L 449.785156 253.453125 L 449.867188 253.441406 L 449.953125 253.414062 L 450.046875 253.402344 L 455.722656 252.15625 L 455.867188 251.773438 L 456.253906 250.90625 L 456.660156 250.054688 L 457.105469 249.226562 L 457.597656 248.425781 L 457.65625 248.339844 L 454.703125 244.164062 L 454.667969 244.105469 L 454.621094 244.03125 L 454.585938 243.960938 L 454.535156 243.898438 L 454.464844 243.757812 L 454.429688 243.695312 L 454.390625 243.625 L 454.355469 243.5625 L 454.320312 243.503906 L 454.285156 243.433594 L 454.261719 243.371094 L 454.222656 243.3125 L 454.199219 243.253906 L 454.175781 243.179688 L 454.152344 243.121094 L 454.128906 243.058594 L 454.117188 243 L 454.09375 242.953125 L 454.078125 242.890625 L 454.054688 242.773438 L 454.054688 242.722656 L 454.042969 242.664062 L 454.042969 242.496094 L 454.054688 242.449219 L 454.066406 242.398438 L 454.078125 242.351562 L 454.09375 242.292969 L 454.117188 242.242188 L 454.1875 242.101562 L 454.222656 242.0625 L 454.261719 242.015625 L 454.308594 241.96875 L 454.355469 241.933594 L 454.402344 241.882812 L 461.832031 235.789062 L 461.878906 235.753906 L 461.929688 235.714844 L 462.046875 235.644531 L 462.097656 235.621094 L 462.15625 235.597656 L 462.214844 235.570312 L 462.277344 235.546875 L 462.335938 235.535156 L 462.40625 235.523438 L 462.46875 235.511719 L 462.527344 235.5 L 462.601562 235.488281 L 462.9375 235.488281 L 463.078125 235.511719 L 463.152344 235.523438 L 463.222656 235.535156 L 463.296875 235.546875 L 463.378906 235.558594 L 463.453125 235.585938 L 463.523438 235.609375 L 463.597656 235.621094 L 463.679688 235.644531 L 463.753906 235.679688 L 463.835938 235.703125 L 463.90625 235.726562 L 463.980469 235.765625 L 464.0625 235.789062 L 464.136719 235.824219 L 464.21875 235.859375 L 464.292969 235.894531 L 464.375 235.933594 L 464.460938 235.96875 L 464.53125 236.003906 L 464.617188 236.050781 L 469.703125 238.464844 L 469.800781 238.414062 L 470.785156 238.019531 L 471.804688 237.648438 L 472.835938 237.3125 L 473.878906 237 L 474.359375 236.878906 L 475.871094 232.222656 L 475.894531 232.152344 L 475.921875 232.078125 L 475.933594 232.007812 L 475.957031 231.9375 L 475.992188 231.863281 L 476.015625 231.792969 L 476.039062 231.71875 L 476.0625 231.660156 L 476.101562 231.589844 L 476.125 231.527344 L 476.160156 231.457031 L 476.195312 231.394531 L 476.21875 231.335938 L 476.257812 231.277344 L 476.292969 231.214844 L 476.328125 231.167969 L 476.363281 231.109375 L 476.410156 231.058594 L 476.449219 231 L 476.484375 230.953125 L 476.53125 230.902344 L 476.578125 230.855469 L 476.617188 230.820312 L 476.664062 230.773438 L 476.710938 230.734375 L 476.773438 230.699219 L 476.867188 230.628906 L 476.929688 230.605469 L 476.976562 230.566406 L 477.035156 230.542969 L 477.097656 230.519531 L 477.15625 230.496094 L 477.214844 230.484375 L 477.277344 230.460938 L 477.347656 230.449219 L 477.40625 230.4375 L 477.550781 230.4375 L 477.625 230.425781 L 488.125 230.425781 L 488.195312 230.4375 Z M 481.621094 246.625 L 480.996094 246.671875 L 480.382812 246.742188 L 479.785156 246.839844 L 479.195312 246.949219 L 478.609375 247.066406 L 478.03125 247.222656 L 477.46875 247.378906 L 476.914062 247.570312 L 476.363281 247.765625 L 475.835938 247.980469 L 475.308594 248.21875 L 474.804688 248.460938 L 474.3125 248.722656 L 473.832031 249 L 473.363281 249.300781 L 472.90625 249.601562 L 472.464844 249.925781 L 472.042969 250.261719 L 471.636719 250.609375 L 471.238281 250.96875 L 470.867188 251.339844 L 470.507812 251.722656 L 470.171875 252.121094 L 469.847656 252.527344 L 469.546875 252.949219 L 469.261719 253.367188 L 468.996094 253.8125 L 468.757812 254.257812 L 468.539062 254.710938 L 468.335938 255.167969 L 468.15625 255.648438 L 468 256.128906 L 467.867188 256.609375 L 467.761719 257.101562 L 467.664062 257.605469 L 467.605469 258.109375 L 467.566406 258.625 L 467.554688 259.140625 L 467.566406 259.65625 L 467.605469 260.171875 L 467.664062 260.675781 L 467.761719 261.179688 L 467.867188 261.671875 L 468 262.164062 L 468.15625 262.644531 L 468.335938 263.113281 L 468.539062 263.578125 L 468.757812 264.035156 L 468.996094 264.480469 L 469.261719 264.910156 L 469.546875 265.34375 L 469.847656 265.765625 L 470.171875 266.171875 L 470.507812 266.566406 L 470.867188 266.953125 L 471.238281 267.324219 L 471.636719 267.683594 L 472.042969 268.019531 L 472.464844 268.355469 L 472.90625 268.679688 L 473.363281 268.992188 L 473.832031 269.28125 L 474.3125 269.554688 L 474.804688 269.820312 L 475.308594 270.070312 L 475.835938 270.300781 L 476.363281 270.515625 L 476.914062 270.71875 L 477.46875 270.898438 L 478.03125 271.066406 L 478.609375 271.210938 L 479.195312 271.34375 L 479.785156 271.453125 L 480.382812 271.535156 L 480.996094 271.609375 L 481.621094 271.667969 L 482.242188 271.691406 L 482.878906 271.703125 L 483.503906 271.691406 L 484.128906 271.667969 L 484.753906 271.609375 L 485.363281 271.535156 L 485.964844 271.453125 L 486.550781 271.34375 L 487.140625 271.210938 L 487.714844 271.066406 L 488.28125 270.898438 L 488.832031 270.71875 L 489.382812 270.515625 L 489.910156 270.300781 L 490.441406 270.070312 L 490.945312 269.820312 L 491.4375 269.554688 L 491.929688 269.28125 L 492.394531 268.992188 L 492.839844 268.679688 L 493.285156 268.355469 L 493.703125 268.019531 L 494.113281 267.683594 L 494.507812 267.324219 L 494.878906 266.953125 L 495.238281 266.566406 L 495.574219 266.171875 L 495.898438 265.765625 L 496.199219 265.34375 L 496.488281 264.910156 L 496.753906 264.480469 L 496.992188 264.035156 L 497.207031 263.578125 L 497.410156 263.113281 L 497.59375 262.644531 L 497.746094 262.164062 L 497.878906 261.671875 L 497.988281 261.179688 L 498.085938 260.675781 L 498.144531 260.171875 L 498.179688 259.65625 L 498.191406 259.140625 L 498.179688 258.625 L 498.144531 258.109375 L 498.085938 257.605469 L 497.988281 257.101562 L 497.878906 256.609375 L 497.746094 256.128906 L 497.59375 255.648438 L 497.410156 255.167969 L 497.207031 254.710938 L 496.992188 254.257812 L 496.753906 253.8125 L 496.488281 253.367188 L 496.199219 252.949219 L 495.898438 252.527344 L 495.574219 252.121094 L 495.238281 251.722656 L 494.878906 251.339844 L 494.507812 250.96875 L 494.113281 250.609375 L 493.703125 250.261719 L 493.285156 249.925781 L 492.839844 249.601562 L 492.394531 249.300781 L 491.929688 249 L 491.4375 248.722656 L 490.945312 248.460938 L 490.441406 248.21875 L 489.910156 247.980469 L 489.382812 247.765625 L 488.832031 247.570312 L 488.28125 247.378906 L 487.714844 247.222656 L 487.140625 247.066406 L 486.550781 246.949219 L 485.964844 246.839844 L 485.363281 246.742188 L 484.753906 246.671875 L 484.128906 246.625 L 483.503906 246.589844 L 482.878906 246.574219 L 482.242188 246.589844 Z M 481.621094 246.625 "/>
<path style=" stroke:none;fill-rule:nonzero;fill:rgb(92.54902%,81.568627%,78.823529%);fill-opacity:1;" d="M 680.28125 370.140625 C 691.570312 370.140625 700.714844 379.558594 700.714844 391.164062 C 700.714844 423.3125 659.855469 439.261719 659.855469 440.148438 C 659.855469 439.261719 618.996094 423.3125 618.996094 391.164062 C 618.996094 379.546875 628.152344 370.140625 639.433594 370.140625 C 650.710938 370.140625 659.855469 378.382812 659.855469 390 C 659.855469 378.382812 669 370.140625 680.28125 370.140625 Z M 680.28125 370.140625 "/>
</g>
</svg>
