<?xml version="1.0" encoding="UTF-8" standalone="no"?>
<!DOCTYPE svg PUBLIC "-//W3C//DTD SVG 1.1//EN" "http://www.w3.org/Graphics/SVG/1.1/DTD/svg11.dtd">
<svg version="1.1" xmlns="http://www.w3.org/2000/svg" xmlns:xlink="http://www.w3.org/1999/xlink" preserveAspectRatio="xMidYMid meet" viewBox="182.40845070422532 159.42253521126764 193.77464788732388 179.40845070422534" width="180.77" height="166.41"><defs><path d="M349.68 165.92C360.73 165.92 369.68 174.88 369.68 185.92C369.68 215.2 369.68 283.05 369.68 312.33C369.68 323.38 360.73 332.33 349.68 332.33C317.53 332.33 241.06 332.33 208.91 332.33C197.86 332.33 188.91 323.38 188.91 312.33C188.91 283.05 188.91 215.2 188.91 185.92C188.91 174.88 197.86 165.92 208.91 165.92C241.06 165.92 317.53 165.92 349.68 165.92Z" id="b24f1tq0HD"></path><path d="M298.45 253.42C298.45 270.6 289.87 284.55 279.3 284.55C268.72 284.55 260.14 270.6 260.14 253.42C260.14 236.24 268.72 222.3 279.3 222.3C289.87 222.3 298.45 236.24 298.45 253.42Z" id="aAZNkTikA"></path><path d="M290.67 219.8C290.67 227.72 285.57 234.16 279.3 234.16C273.02 234.16 267.92 227.72 267.92 219.8C267.92 211.87 273.02 205.43 279.3 205.43C285.57 205.43 290.67 211.87 290.67 219.8Z" id="bSbEbhKBj"></path><path d="M233.07 213.42L287.21 235.75L245.19 249.76L233.07 213.42Z" id="b5rsgDSUP"></path><path d="M322.04 210.68L273.67 240.88L317.63 246.33L322.04 210.68Z" id="a1xS0z6hVB"></path><path d="M288.77 284.55L298.32 303.11L279.23 303.11L260.14 303.11L269.68 284.55L279.23 265.99L288.77 284.55Z" id="gaEaX0PQq"></path></defs><g><g><use xlink:href="#b24f1tq0HD" opacity="1" fill="#4e4d4b" fill-opacity="1"></use><g><use xlink:href="#b24f1tq0HD" opacity="1" fill-opacity="0" stroke="#f9f1f1" stroke-width="13" stroke-opacity="1"></use></g></g><g><use xlink:href="#aAZNkTikA" opacity="1" fill="#f6f4ef" fill-opacity="1"></use></g><g><use xlink:href="#bSbEbhKBj" opacity="1" fill="#fcf9f5" fill-opacity="1"></use></g><g><use xlink:href="#b5rsgDSUP" opacity="1" fill="#f3f1ec" fill-opacity="1"></use></g><g><use xlink:href="#a1xS0z6hVB" opacity="1" fill="#f6f2ec" fill-opacity="1"></use></g><g><use xlink:href="#gaEaX0PQq" opacity="1" fill="#fbf7f1" fill-opacity="1"></use></g></g></svg>