<?xml version="1.0" encoding="UTF-8" standalone="no"?>
<!DOCTYPE svg PUBLIC "-//W3C//DTD SVG 1.1//EN" "http://www.w3.org/Graphics/SVG/1.1/DTD/svg11.dtd">
<svg version="1.1" xmlns="http://www.w3.org/2000/svg" xmlns:xlink="http://www.w3.org/1999/xlink" preserveAspectRatio="xMidYMid meet" viewBox="195.09154929577454 173.30281690140845 170.40845070422534 167.65492957746483" width="166.41" height="163.65"><defs><path d="M298.45 253.42C298.45 270.6 289.87 284.55 279.3 284.55C268.72 284.55 260.14 270.6 260.14 253.42C260.14 236.24 268.72 222.3 279.3 222.3C289.87 222.3 298.45 236.24 298.45 253.42Z" id="a9xJ4VIGd"></path><path d="M290.67 219.8C290.67 227.72 285.57 234.16 279.3 234.16C273.02 234.16 267.92 227.72 267.92 219.8C267.92 211.87 273.02 205.43 279.3 205.43C285.57 205.43 290.67 211.87 290.67 219.8Z" id="a28GlQ1Wnn"></path><path d="M233.07 213.42L287.21 235.75L245.19 249.76L233.07 213.42Z" id="f3QbMT3EHc"></path><path d="M322.04 210.68L273.67 240.88L317.63 246.33L322.04 210.68Z" id="auj6vykXo"></path><path d="M288.77 284.55L298.32 303.11L279.23 303.11L260.14 303.11L269.68 284.55L279.23 265.99L288.77 284.55Z" id="a1KDOaGPRV"></path><path d="M347.54 174.3C352.49 174.3 356.51 178.32 356.51 183.28C356.51 185.08 356.51 181.49 356.51 183.28C356.51 188.24 352.49 192.26 347.54 192.26C317.25 192.26 235.36 192.26 205.07 192.26C200.11 192.26 196.09 188.24 196.09 183.28C196.09 181.49 196.09 185.08 196.09 183.28C196.09 178.32 200.11 174.3 205.07 174.3C235.36 174.3 317.25 174.3 347.54 174.3Z" id="bIn2eXFjf"></path><path d="M347.54 320C352.49 320 356.51 324.02 356.51 328.98C356.51 330.77 356.51 327.18 356.51 328.98C356.51 333.94 352.49 337.96 347.54 337.96C317.96 337.96 238.23 337.96 208.66 337.96C203.7 337.96 199.68 333.94 199.68 328.98C199.68 327.18 199.68 330.77 199.68 328.98C199.68 324.02 203.7 320 208.66 320C238.23 320 317.96 320 347.54 320Z" id="a7Y91Xj3l"></path><path d="M352.92 174.3C358.21 174.3 362.5 178.59 362.5 183.88C362.5 214.7 362.5 297.56 362.5 328.38C362.5 333.67 358.21 337.96 352.92 337.96C351.01 337.96 354.84 337.96 352.92 337.96C347.63 337.96 343.35 333.67 343.35 328.38C343.35 297.56 343.35 214.7 343.35 183.88C343.35 178.59 347.63 174.3 352.92 174.3C354.84 174.3 351.01 174.3 352.92 174.3Z" id="bY3Q8mErr"></path><path d="M205.67 174.3C210.96 174.3 215.25 178.59 215.25 183.88C215.25 214.7 215.25 297.56 215.25 328.38C215.25 333.67 210.96 337.96 205.67 337.96C203.75 337.96 207.58 337.96 205.67 337.96C200.38 337.96 196.09 333.67 196.09 328.38C196.09 297.56 196.09 214.7 196.09 183.88C196.09 178.59 200.38 174.3 205.67 174.3C207.58 174.3 203.75 174.3 205.67 174.3Z" id="m1c4syFkfz"></path></defs><g><g><use xlink:href="#a9xJ4VIGd" opacity="1" fill="#f9f7f7" fill-opacity="1"></use></g><g><use xlink:href="#a28GlQ1Wnn" opacity="1" fill="#f9f7f7" fill-opacity="1"></use></g><g><use xlink:href="#f3QbMT3EHc" opacity="1" fill="#f9f7f7" fill-opacity="1"></use></g><g><use xlink:href="#auj6vykXo" opacity="1" fill="#f9f7f7" fill-opacity="1"></use></g><g><use xlink:href="#a1KDOaGPRV" opacity="1" fill="#f9f7f7" fill-opacity="1"></use></g><g><use xlink:href="#bIn2eXFjf" opacity="1" fill="#f9f7f7" fill-opacity="1"></use></g><g><use xlink:href="#a7Y91Xj3l" opacity="1" fill="#f9f7f7" fill-opacity="1"></use></g><g><use xlink:href="#bY3Q8mErr" opacity="1" fill="#f9f7f7" fill-opacity="1"></use></g><g><use xlink:href="#m1c4syFkfz" opacity="1" fill="#f9f7f7" fill-opacity="1"></use></g></g></svg>