<?xml version="1.0" encoding="UTF-8" standalone="no"?>
<!DOCTYPE svg PUBLIC "-//W3C//DTD SVG 1.1//EN" "http://www.w3.org/Graphics/SVG/1.1/DTD/svg11.dtd">
<svg version="1.1" xmlns="http://www.w3.org/2000/svg" xmlns:xlink="http://www.w3.org/1999/xlink" preserveAspectRatio="xMidYMid meet" viewBox="243.8377232586178 157.3333333333333 151.18608626519188 149.17986355988828" width="147.19" height="145.18"><defs><path d="M354.41 158.64L356.11 158.87L357.8 159.17L359.46 159.53L361.1 159.95L362.71 160.43L364.29 160.97L365.84 161.56L367.36 162.21L368.86 162.92L370.31 163.68L371.73 164.49L373.12 165.35L374.47 166.26L375.78 167.22L377.05 168.23L378.28 169.27L379.47 170.37L380.61 171.5L381.7 172.68L382.75 173.9L383.75 175.16L384.7 176.45L385.6 177.78L386.45 179.14L387.24 180.54L387.97 181.97L388.65 183.42L389.28 184.91L389.84 186.43L390.34 187.97L390.78 189.54L391.15 191.13L391.46 192.75L391.71 194.38L391.88 196.04L391.99 197.71L392.02 199.4L391.99 201.1L391.88 202.77L391.71 204.43L391.46 206.06L391.15 207.68L390.78 209.27L390.34 210.84L389.84 212.38L389.28 213.9L388.65 215.39L387.97 216.84L387.24 218.27L386.45 219.67L385.6 221.03L384.7 222.36L383.75 223.65L382.75 224.91L381.7 226.13L380.61 227.3L379.47 228.44L378.28 229.53L377.05 230.58L375.78 231.59L374.47 232.55L373.12 233.46L371.73 234.32L370.31 235.13L368.86 235.89L367.36 236.59L365.84 237.25L364.29 237.84L362.71 238.38L361.1 238.86L359.46 239.28L357.8 239.64L356.11 239.94L354.41 240.17L352.68 240.34L350.93 240.44L349.17 240.48L347.4 240.44L345.65 240.34L343.93 240.17L342.22 239.94L340.53 239.64L338.87 239.28L337.24 238.86L335.63 238.38L334.04 237.84L332.49 237.25L331.5 236.82L270.15 299.83L269.79 300.18L269.42 300.51L269.04 300.83L268.65 301.13L268.25 301.41L267.85 301.68L267.43 301.93L267.01 302.15L266.58 302.37L266.15 302.56L265.71 302.73L265.26 302.89L264.81 303.03L264.35 303.15L263.9 303.26L263.43 303.35L262.97 303.41L262.5 303.46L262.04 303.5L261.57 303.51L261.1 303.51L260.63 303.49L260.17 303.45L259.7 303.4L259.24 303.32L258.78 303.23L258.32 303.12L257.86 302.99L257.41 302.84L256.97 302.68L256.53 302.5L256.09 302.3L255.66 302.08L255.24 301.85L254.83 301.59L254.43 301.32L254.03 301.03L253.64 300.72L253.26 300.4L252.9 300.06L248.53 295.8L248.17 295.44L247.84 295.07L247.52 294.69L247.22 294.31L246.94 293.91L246.67 293.5L246.43 293.09L246.2 292.66L245.99 292.24L245.79 291.8L245.62 291.36L245.46 290.91L245.32 290.46L245.2 290.01L245.09 289.55L245.01 289.09L244.94 288.62L244.89 288.16L244.85 287.69L244.84 287.22L244.84 286.75L244.86 286.29L244.9 285.82L244.96 285.35L245.03 284.89L245.12 284.43L245.23 283.97L245.36 283.52L245.51 283.07L245.67 282.62L245.85 282.18L246.05 281.75L246.27 281.32L246.5 280.9L246.76 280.48L247.03 280.08L247.32 279.68L247.63 279.29L247.95 278.92L248.3 278.55L309.72 215.47L309.68 215.39L309.06 213.9L308.5 212.38L307.99 210.84L307.56 209.27L307.18 207.68L306.87 206.06L306.63 204.43L306.45 202.77L306.35 201.1L306.31 199.4L306.35 197.71L306.45 196.04L306.63 194.38L306.87 192.75L307.18 191.13L307.56 189.54L307.99 187.97L308.5 186.43L309.06 184.91L309.68 183.42L310.36 181.97L311.1 180.54L311.89 179.14L312.73 177.78L313.63 176.45L314.58 175.16L315.58 173.9L316.63 172.68L317.73 171.5L318.87 170.37L320.05 169.27L321.28 168.23L322.55 167.22L323.86 166.26L325.21 165.35L326.6 164.49L328.02 163.68L329.48 162.92L330.97 162.21L332.49 161.56L334.04 160.97L335.63 160.43L337.24 159.95L338.87 159.53L340.53 159.17L342.22 158.87L343.93 158.64L345.65 158.47L347.4 158.37L349.17 158.33L350.93 158.37L352.68 158.47L352.68 158.47L354.41 158.64Z" id="gTW1AdvMn"></path><path d="M382.05 203.78C383.37 204.94 383.5 206.94 382.34 208.26C381.92 208.74 382.76 207.78 382.34 208.26C381.18 209.58 379.17 209.71 377.85 208.55C369.22 200.94 345.68 180.24 337.05 172.63C335.73 171.48 335.6 169.47 336.76 168.15C337.18 167.67 336.34 168.63 336.76 168.15C337.92 166.83 339.93 166.71 341.24 167.86C349.88 175.47 373.41 196.18 382.05 203.78Z" id="az0KiGDiT"></path><path d="M374.67 214.25C375.99 215.41 376.12 217.42 374.96 218.74C374.54 219.21 375.38 218.26 374.96 218.74C373.8 220.05 371.79 220.18 370.47 219.02C361.84 211.42 338.3 190.71 329.66 183.11C328.35 181.95 328.22 179.94 329.38 178.63C329.8 178.15 328.96 179.1 329.38 178.63C330.54 177.31 332.54 177.18 333.86 178.34C342.5 185.94 366.03 206.65 374.67 214.25Z" id="d7xm7pONS"></path><path d="M366.08 225.36C367.4 226.52 367.53 228.53 366.37 229.85C365.95 230.32 366.79 229.37 366.37 229.85C365.21 231.16 363.2 231.29 361.89 230.13C353.25 222.53 329.72 201.82 321.08 194.22C319.76 193.06 319.63 191.05 320.79 189.74C321.21 189.26 320.37 190.21 320.79 189.74C321.95 188.42 323.96 188.29 325.28 189.45C333.91 197.05 357.45 217.76 366.08 225.36Z" id="dMPOxjlfa"></path></defs><g><g><use xlink:href="#gTW1AdvMn" opacity="1" fill="#f8f5f1" fill-opacity="1"></use></g><g><use xlink:href="#az0KiGDiT" opacity="1" fill="#38342e" fill-opacity="1"></use></g><g><use xlink:href="#d7xm7pONS" opacity="1" fill="#38342e" fill-opacity="1"></use></g><g><use xlink:href="#dMPOxjlfa" opacity="1" fill="#38342e" fill-opacity="1"></use></g></g></svg>