<?xml version="1.0" encoding="UTF-8" standalone="no"?>
<!DOCTYPE svg PUBLIC "-//W3C//DTD SVG 1.1//EN" "http://www.w3.org/Graphics/SVG/1.1/DTD/svg11.dtd">
<svg version="1.1" xmlns="http://www.w3.org/2000/svg" xmlns:xlink="http://www.w3.org/1999/xlink" preserveAspectRatio="xMidYMid meet" viewBox="190.45046543009914 154.44383551014 97.8386428297652 199.4336930268019" width="93.84" height="195.43"><defs><path d="M198.32 165.08C203.96 162.23 210.83 164.76 213.28 170.58C221.35 189.73 241.03 236.43 249.11 255.58C251.66 261.64 249.09 268.64 243.22 271.61C241.13 272.66 245.3 270.55 243.22 271.61C237.58 274.46 230.71 271.93 228.26 266.11C220.19 246.96 200.51 200.26 192.44 181.11C189.88 175.05 192.45 168.05 198.32 165.08C200.41 164.03 196.24 166.14 198.32 165.08Z" id="b2YyhlZ5z8"></path><path d="M274.87 281.81C274.87 308.24 257.24 329.7 235.52 329.7C213.79 329.7 196.16 308.24 196.16 281.81C196.16 255.38 213.79 233.92 235.52 233.92C257.24 233.92 274.87 255.38 274.87 281.81Z" id="anfaHN7L2"></path><path d="M257.61 155.44C263.95 155.44 269.09 160.58 269.09 166.92C269.09 188.09 269.09 240.12 269.09 261.29C269.09 267.63 263.95 272.77 257.61 272.77C255.31 272.77 259.9 272.77 257.61 272.77C251.27 272.77 246.13 267.63 246.13 261.29C246.13 240.12 246.13 188.09 246.13 166.92C246.13 160.58 251.27 155.44 257.61 155.44C259.9 155.44 255.31 155.44 257.61 155.44Z" id="aBGbNHghI"></path><path d="M253.24 263.62C262.92 261.04 272.79 267.05 274.97 276.82C277.73 289.29 282.06 308.77 284.83 321.23C287.06 331.25 280.98 341.25 271.07 343.89C262.72 346.11 255.42 348.06 247.07 350.28C237.39 352.86 227.52 346.86 225.34 337.08C222.57 324.61 218.25 305.14 215.48 292.67C213.25 282.65 219.32 272.66 229.24 270.01C237.59 267.79 244.89 265.85 253.24 263.62Z" id="bwHix8dW3"></path><path d="M266.7 274.73C273.32 278.35 276.01 286.47 272.88 293.33C271.65 296.03 273.5 291.98 272.26 294.69C269.26 301.26 261.31 303.9 254.97 300.43C247.68 296.44 237.53 290.88 230.24 286.89C223.62 283.27 220.93 275.15 224.06 268.29C225.3 265.59 223.45 269.64 224.68 266.93C227.68 260.36 235.63 257.72 241.97 261.19C249.27 265.18 259.41 270.74 266.7 274.73Z" id="a1QTzdzT5E"></path><path d="M234.59 290.82C240.15 293.86 242.41 300.67 239.78 306.43C238.85 308.47 240.71 304.39 239.78 306.43C237.26 311.95 230.59 314.16 225.26 311.25C218.73 307.67 208.98 302.34 202.45 298.76C196.9 295.72 194.63 288.91 197.26 283.15C198.2 281.11 196.33 285.19 197.26 283.15C199.78 277.63 206.46 275.41 211.78 278.33C218.31 281.9 228.06 287.24 234.59 290.82Z" id="a4WcurXc9"></path></defs><g><g><use xlink:href="#b2YyhlZ5z8" opacity="1" fill="#f3efe9" fill-opacity="1"></use></g><g><use xlink:href="#anfaHN7L2" opacity="1" fill="#f2ebe2" fill-opacity="1"></use></g><g><use xlink:href="#aBGbNHghI" opacity="1" fill="#f6f5f2" fill-opacity="1"></use></g><g><use xlink:href="#bwHix8dW3" opacity="1" fill="#f8eee1" fill-opacity="1"></use></g><g><use xlink:href="#a1QTzdzT5E" opacity="1" fill="#988e83" fill-opacity="1"></use></g><g><use xlink:href="#a4WcurXc9" opacity="1" fill="#8d867f" fill-opacity="1"></use></g></g></svg>