<?xml version="1.0" encoding="UTF-8" standalone="no"?>
<!DOCTYPE svg PUBLIC "-//W3C//DTD SVG 1.1//EN" "http://www.w3.org/Graphics/SVG/1.1/DTD/svg11.dtd">
<svg version="1.1" xmlns="http://www.w3.org/2000/svg" xmlns:xlink="http://www.w3.org/1999/xlink" preserveAspectRatio="xMidYMid meet" viewBox="10.344180323529002 70.5448218123949 1752.257042253654 213.11754851556043" width="1086.82" height="130"><defs><path d="M210.46 221.71C210.46 238.89 196.78 252.84 179.93 252.84C163.08 252.84 149.4 238.89 149.4 221.71C149.4 204.53 163.08 190.58 179.93 190.58C196.78 190.58 210.46 204.53 210.46 221.71Z" id="dIkAKRkM"></path><path d="M240.99 180.5C240.99 197.68 227.31 211.63 210.46 211.63C193.61 211.63 179.93 197.68 179.93 180.5C179.93 163.32 193.61 149.37 210.46 149.37C227.31 149.37 240.99 163.32 240.99 180.5Z" id="dTWsjM8Nc"></path><path d="M200.9 178.62L281.67 77.66L296.63 89.62L215.86 190.58L200.9 178.62Z" id="dPUfWwgqr"></path><path d="M188.23 204.74L269 103.78L273.01 106.99L192.24 207.95L188.23 204.74Z" id="a3i46Cq1FF"></path><path d="M199.9 205.95C199.9 210.91 195.88 214.93 190.91 214.93C185.95 214.93 181.92 210.91 181.92 205.95C181.92 201 185.95 196.97 190.91 196.97C195.88 196.97 199.9 201 199.9 205.95Z" id="bBwvQozdE"></path><path d="M471.95 161.85C484.89 161.85 495.39 172.35 495.39 185.29C495.39 201.43 495.39 226.43 495.39 242.57C495.39 255.51 484.89 266.01 471.95 266.01C453.41 266.01 421.24 266.01 402.7 266.01C389.75 266.01 379.26 255.51 379.26 242.57C379.26 226.43 379.26 201.43 379.26 185.29C379.26 172.35 389.75 161.85 402.7 161.85C421.24 161.85 453.41 161.85 471.95 161.85Z" id="i186hhenJ5"></path><path d="M489.4 167.65C489.4 172.6 466.07 176.63 437.32 176.63C408.58 176.63 385.25 172.6 385.25 167.65C385.25 162.69 408.58 158.67 437.32 158.67C466.07 158.67 489.4 162.69 489.4 167.65Z" id="j2S89tyLhy"></path><path d="M433.36 148.06C433.36 141.26 427.19 135.74 419.59 135.74C411.99 135.74 405.82 141.26 405.82 148.06C405.82 154.85 411.99 160.37 419.59 160.37C427.19 160.37 433.36 154.85 433.36 148.06Z" id="c205kzGbaT"></path><path d="M377.85 80.75L387.97 75.56L424.03 145.87L413.91 151.06L377.85 80.75Z" id="c22yDCtM3r"></path><path d="M657.07 111.03L658.43 111.16L659.76 111.35L661.08 111.6L662.38 111.89L663.65 112.23L664.9 112.62L666.13 113.06L667.33 113.55L668.5 114.08L669.65 114.65L670.76 115.27L671.85 115.92L672.9 116.62L673.93 117.36L674.91 118.13L675.86 118.94L676.78 119.79L677.65 120.67L678.49 121.58L679.28 122.53L680.04 123.5L680.74 124.51L681.41 125.54L682.03 126.61L682.6 127.69L683.12 128.8L683.6 129.94L684.02 131.1L684.39 132.28L684.71 133.48L684.97 134.7L685.18 135.94L685.32 137.19L685.41 138.46L685.45 139.74L685.41 141.02L685.32 142.29L685.18 143.55L684.97 144.78L684.71 146L684.39 147.2L684.02 148.38L683.6 149.54L683.12 150.68L682.6 151.79L682.03 152.88L681.41 153.94L680.74 154.97L680.04 155.98L679.28 156.95L678.49 157.9L677.65 158.81L676.78 159.69L676.33 160.11L701.26 218.53L701.46 219.04L701.65 219.55L701.81 220.06L701.94 220.58L702.06 221.1L702.15 221.61L702.23 222.13L702.28 222.65L702.31 223.17L702.33 223.69L702.32 224.2L702.29 224.72L702.24 225.23L702.17 225.73L702.09 226.24L701.98 226.74L701.85 227.23L701.71 227.72L701.55 228.2L701.37 228.68L701.17 229.14L700.95 229.6L700.72 230.06L700.47 230.5L700.2 230.93L699.91 231.36L699.61 231.77L699.29 232.17L698.96 232.56L698.61 232.94L698.24 233.3L697.86 233.66L697.46 233.99L697.05 234.32L696.62 234.63L696.18 234.92L695.72 235.19L695.25 235.45L694.77 235.7L694.27 235.92L693.32 236.33L692.81 236.53L692.3 236.71L691.79 236.87L691.28 237.01L690.76 237.13L690.24 237.22L689.72 237.3L689.2 237.35L688.68 237.38L688.17 237.39L687.65 237.39L687.14 237.36L686.63 237.31L686.12 237.24L685.62 237.15L685.12 237.05L684.63 236.92L684.14 236.78L683.65 236.62L683.18 236.43L682.71 236.24L682.25 236.02L681.8 235.79L681.36 235.53L680.92 235.27L680.5 234.98L680.08 234.68L679.68 234.36L679.29 234.03L678.91 233.68L678.55 233.31L678.2 232.93L677.86 232.53L677.54 232.12L677.23 231.69L676.94 231.25L676.66 230.79L676.4 230.32L676.16 229.84L675.93 229.34L649.88 168.27L648.87 168.13L647.56 167.89L646.26 167.59L644.99 167.25L643.74 166.86L642.51 166.42L641.31 165.93L640.13 165.4L638.99 164.83L637.87 164.22L636.79 163.56L635.73 162.86L634.71 162.12L633.72 161.35L632.77 160.54L631.86 159.69L630.99 158.81L630.15 157.9L629.35 156.95L628.6 155.98L627.89 154.97L627.23 153.94L626.61 152.88L626.04 151.79L625.51 150.68L625.04 149.54L624.62 148.38L624.25 147.2L623.93 146L623.67 144.78L623.46 143.55L623.31 142.29L623.22 141.02L623.19 139.74L623.22 138.46L623.31 137.19L623.46 135.94L623.67 134.7L623.93 133.48L624.25 132.28L624.62 131.1L625.04 129.94L625.51 128.8L626.04 127.69L626.61 126.61L627.23 125.54L627.89 124.51L628.6 123.5L629.35 122.53L630.15 121.58L630.99 120.67L631.86 119.79L632.77 118.94L633.72 118.13L634.71 117.36L635.73 116.62L636.79 115.92L637.87 115.27L638.99 114.65L640.13 114.08L641.31 113.55L642.51 113.06L643.74 112.62L644.99 112.23L646.26 111.89L647.56 111.6L648.87 111.35L650.21 111.16L651.56 111.03L652.93 110.94L654.32 110.91L655.7 110.94L657.07 111.03Z" id="b3oB5fi3N1"></path><path d="M918.5 121.79C938.18 121.79 954.12 139.17 954.12 160.61C954.12 219.98 882.89 249.44 882.89 251.08C882.89 251.08 882.89 251.08 882.89 251.08C882.89 249.44 811.66 219.98 811.66 160.6C811.66 139.16 827.6 121.78 847.27 121.78C866.94 121.78 882.89 137.01 882.89 158.45C882.89 137.01 898.83 121.79 918.5 121.79Z" id="aTUTdvhuf"></path><path d="M931.17 102.12C950.84 102.12 966.78 119.51 966.78 140.95C966.79 200.32 895.55 229.78 895.55 231.42C895.55 231.42 895.55 231.42 895.55 231.42C895.55 229.78 824.32 200.32 824.32 140.94C824.32 119.5 840.27 102.12 859.94 102.12C879.61 102.12 895.55 117.35 895.55 138.79C895.55 117.35 911.5 102.12 931.17 102.12Z" id="diye7V4sH"></path><path d="M233.9 245.15C233.9 262.33 220.22 276.28 203.37 276.28C186.52 276.28 172.84 262.33 172.84 245.15C172.84 227.97 186.52 214.02 203.37 214.02C220.22 214.02 233.9 227.97 233.9 245.15Z" id="a6sURrbXrO"></path><path d="M264.42 203.94C264.42 221.12 250.74 235.07 233.9 235.07C217.05 235.07 203.37 221.12 203.37 203.94C203.37 186.76 217.05 172.81 233.9 172.81C250.74 172.81 264.42 186.76 264.42 203.94Z" id="ghIZykyQV"></path><path d="M224.34 202.06L305.11 101.09L320.07 113.06L239.3 214.02L224.34 202.06Z" id="a3ijq4Mow8"></path><path d="M211.67 228.18L292.44 127.22L296.44 130.43L215.67 231.39L211.67 228.18Z" id="aUQ5rJdfA"></path><path d="M223.34 229.39C223.34 234.34 219.31 238.37 214.35 238.37C209.39 238.37 205.36 234.34 205.36 229.39C205.36 224.43 209.39 220.41 214.35 220.41C219.31 220.41 223.34 224.43 223.34 229.39Z" id="bj9Arq4jF"></path><path d="M1097.89 131.73L1099.3 131.79L1100.66 131.98L1101.98 132.28L1103.25 132.69L1104.45 133.21L1105.58 133.83L1106.64 134.54L1107.62 135.33L1108.51 136.21L1109.3 137.16L1109.99 138.17L1110.57 139.25L1111.04 140.38L1111.38 141.56L1111.58 142.78L1111.66 144.04L1111.58 145.3L1111.38 146.52L1111.04 147.7L1110.57 148.84L1109.99 149.91L1109.3 150.93L1108.51 151.88L1107.62 152.75L1106.64 153.55L1105.58 154.26L1104.46 154.86L1105.13 154.84L1107.18 154.77L1109.25 154.72L1111.35 154.68L1113.48 154.66L1115.62 154.65L1117.77 154.66L1119.89 154.68L1121.99 154.72L1124.06 154.77L1126.11 154.84L1128.13 154.92L1130.12 155.01L1132.07 155.11L1134 155.23L1135.88 155.36L1137.73 155.5L1139.54 155.66L1141.32 155.82L1143.04 156L1144.73 156.19L1146.37 156.39L1147.96 156.6L1149.5 156.82L1151 157.05L1152.44 157.29L1153.82 157.53L1155.16 157.79L1156.43 158.06L1157.64 158.33L1158.8 158.62L1159.89 158.91L1160.92 159.2L1161.88 159.51L1162.78 159.82L1163.6 160.14L1164.36 160.47L1165.04 160.8L1165.65 161.13L1166.18 161.48L1166.64 161.83L1167.02 162.18L1167.31 162.54L1167.53 162.9L1167.65 163.26L1167.7 163.63L1167.65 164L1167.53 164.37L1167.31 164.73L1167.1 164.99L1167.44 165.35L1168.04 166.02L1168.62 166.72L1169.16 167.43L1169.68 168.17L1170.17 168.93L1170.63 169.71L1171.07 170.5L1171.47 171.32L1171.84 172.15L1172.18 173L1172.49 173.87L1172.76 174.75L1173 175.64L1173.21 176.55L1173.38 177.47L1173.51 178.41L1173.61 179.35L1173.66 180.31L1173.68 181.28L1173.68 238.56L1173.66 239.52L1173.61 240.48L1173.51 241.42L1173.38 242.36L1173.21 243.28L1173 244.19L1172.76 245.08L1172.49 245.96L1172.18 246.83L1171.84 247.68L1171.47 248.51L1171.07 249.33L1170.63 250.12L1170.17 250.9L1169.68 251.66L1169.16 252.4L1168.62 253.11L1168.04 253.81L1167.44 254.48L1166.82 255.13L1166.17 255.75L1165.5 256.35L1164.8 256.92L1164.09 257.47L1163.35 257.99L1162.59 258.48L1161.81 258.94L1161.02 259.38L1160.2 259.78L1159.37 260.15L1158.52 260.49L1157.65 260.8L1156.77 261.07L1155.88 261.31L1154.97 261.52L1154.05 261.69L1153.11 261.82L1152.17 261.92L1151.21 261.97L1150.25 261.99L1080.99 261.99L1080.03 261.97L1079.07 261.92L1078.13 261.82L1077.19 261.69L1076.27 261.52L1075.36 261.31L1074.47 261.07L1073.59 260.8L1072.72 260.49L1071.87 260.15L1071.04 259.78L1070.22 259.38L1069.43 258.94L1068.65 258.48L1067.89 257.99L1067.15 257.47L1066.44 256.92L1065.74 256.35L1065.07 255.75L1064.42 255.13L1063.8 254.48L1063.2 253.81L1062.63 253.11L1062.08 252.4L1061.56 251.66L1061.07 250.9L1060.61 250.12L1060.17 249.33L1059.77 248.51L1059.4 247.68L1059.06 246.83L1058.75 245.96L1058.48 245.08L1058.24 244.19L1058.03 243.28L1057.86 242.36L1057.73 241.42L1057.63 240.48L1057.58 239.52L1057.56 238.56L1057.56 181.28L1057.58 180.31L1057.63 179.35L1057.73 178.41L1057.86 177.47L1058.03 176.55L1058.24 175.64L1058.48 174.75L1058.75 173.87L1059.06 173L1059.4 172.15L1059.77 171.32L1060.17 170.5L1060.61 169.71L1061.07 168.93L1061.56 168.17L1062.08 167.43L1062.63 166.72L1063.2 166.02L1063.8 165.35L1064.14 164.99L1063.93 164.73L1063.72 164.37L1063.59 164L1063.54 163.63L1063.59 163.26L1063.72 162.9L1063.93 162.54L1064.23 162.18L1064.6 161.83L1065.06 161.48L1065.59 161.13L1066.2 160.8L1066.88 160.47L1067.64 160.14L1068.46 159.82L1069.36 159.51L1070.32 159.2L1071.35 158.91L1072.44 158.62L1073.6 158.33L1074.81 158.06L1076.09 157.79L1077.42 157.53L1078.8 157.29L1080.24 157.05L1081.74 156.82L1083.28 156.6L1084.87 156.39L1086.51 156.19L1088.2 156L1089.93 155.82L1091.7 155.66L1093 155.55L1092.53 155.39L1091.33 154.87L1090.19 154.26L1089.13 153.55L1088.15 152.75L1087.27 151.88L1086.47 150.93L1085.78 149.91L1085.2 148.84L1084.74 147.7L1084.4 146.52L1084.19 145.3L1084.12 144.04L1084.19 142.78L1084.4 141.56L1084.74 140.38L1085.2 139.25L1085.78 138.17L1086.47 137.16L1086.88 136.67L1056.15 76.73L1066.27 71.54L1097.15 131.76L1097.89 131.73Z" id="aqsmBewlj"></path><path d="M1353.14 168.95L1353.69 169.92L1354.27 171.04L1354.8 172.19L1355.29 173.37L1355.73 174.57L1356.12 175.79L1356.47 177.03L1356.66 177.87L1356.82 177.9L1358.06 178.2L1359.28 178.55L1360.48 178.95L1361.66 179.4L1362.24 179.65L1421.58 105.48L1436.53 117.45L1376.58 192.39L1377.13 193.35L1377.71 194.48L1378.24 195.63L1378.73 196.81L1379.17 198L1379.56 199.23L1379.91 200.47L1380.2 201.74L1380.45 203.02L1380.64 204.32L1380.78 205.64L1380.86 206.98L1380.89 208.33L1380.86 209.67L1380.78 211.01L1380.64 212.33L1380.45 213.63L1380.2 214.91L1379.91 216.18L1379.56 217.42L1379.17 218.65L1378.73 219.85L1378.24 221.02L1377.71 222.17L1377.13 223.3L1376.51 224.39L1375.84 225.46L1375.14 226.5L1374.4 227.51L1373.62 228.48L1372.8 229.42L1371.94 230.33L1371.05 231.2L1370.13 232.04L1369.17 232.83L1368.19 233.59L1367.17 234.31L1366.12 234.98L1365.04 235.62L1363.94 236.21L1362.81 236.75L1361.66 237.25L1360.48 237.7L1359.28 238.1L1358.06 238.45L1356.82 238.75L1355.56 239L1354.29 239.2L1352.99 239.34L1351.68 239.42L1350.36 239.45L1349.04 239.42L1348.7 239.4L1349.03 240.44L1349.38 241.68L1349.67 242.95L1349.92 244.23L1350.11 245.53L1350.25 246.85L1350.33 248.19L1350.36 249.54L1350.33 250.88L1350.25 252.22L1350.11 253.54L1349.92 254.84L1349.67 256.12L1349.38 257.39L1349.03 258.63L1348.64 259.86L1348.2 261.06L1347.71 262.23L1347.18 263.38L1346.6 264.51L1345.98 265.6L1345.32 266.67L1344.61 267.71L1343.87 268.72L1343.09 269.69L1342.27 270.63L1341.42 271.54L1340.53 272.41L1339.6 273.25L1338.65 274.04L1337.66 274.8L1336.64 275.52L1335.59 276.19L1334.52 276.83L1333.41 277.42L1332.28 277.96L1331.13 278.46L1329.95 278.91L1328.76 279.31L1327.54 279.66L1326.3 279.96L1325.04 280.21L1323.76 280.41L1322.47 280.55L1321.16 280.63L1319.83 280.66L1318.51 280.63L1317.2 280.55L1315.91 280.41L1314.63 280.21L1313.37 279.96L1312.13 279.66L1310.91 279.31L1309.71 278.91L1308.53 278.46L1307.38 277.96L1306.25 277.42L1305.15 276.83L1304.07 276.19L1303.03 275.52L1302.01 274.8L1301.02 274.04L1300.06 273.25L1299.14 272.41L1298.25 271.54L1297.4 270.63L1296.58 269.69L1295.8 268.72L1295.05 267.71L1294.35 266.67L1293.69 265.6L1293.07 264.51L1292.49 263.38L1291.95 262.23L1291.47 261.06L1291.03 259.86L1290.63 258.63L1290.29 257.39L1290.09 256.56L1289.93 256.52L1288.69 256.22L1287.47 255.87L1286.27 255.47L1285.1 255.02L1283.94 254.52L1282.82 253.98L1281.71 253.39L1280.64 252.76L1279.59 252.08L1278.57 251.36L1277.58 250.61L1276.63 249.81L1275.7 248.98L1274.81 248.1L1273.96 247.2L1273.14 246.25L1272.36 245.28L1271.62 244.27L1270.91 243.23L1270.25 242.17L1269.63 241.07L1269.05 239.94L1268.52 238.79L1268.03 237.62L1267.59 236.42L1267.19 235.2L1266.85 233.95L1266.55 232.69L1266.31 231.4L1266.12 230.1L1265.98 228.78L1265.9 227.45L1265.87 226.1L1265.9 224.75L1265.98 223.41L1266.12 222.1L1266.31 220.79L1266.55 219.51L1266.85 218.24L1267.19 217L1267.59 215.78L1268.03 214.58L1268.52 213.4L1269.05 212.25L1269.63 211.13L1270.25 210.03L1270.91 208.96L1271.62 207.92L1272.36 206.92L1273.14 205.94L1273.96 205L1274.81 204.09L1275.7 203.22L1276.63 202.39L1277.58 201.59L1278.57 200.83L1279.59 200.11L1280.64 199.44L1281.71 198.81L1282.82 198.22L1283.94 197.67L1285.1 197.18L1286.27 196.73L1287.47 196.32L1288.69 195.97L1289.93 195.67L1291.19 195.42L1292.47 195.23L1293.76 195.09L1295.07 195L1296.4 194.97L1297.72 195L1298.06 195.02L1297.72 193.99L1297.38 192.74L1297.08 191.48L1296.84 190.19L1296.65 188.89L1296.51 187.57L1296.42 186.24L1296.4 184.89L1296.42 183.54L1296.51 182.2L1296.65 180.88L1296.84 179.58L1297.08 178.3L1297.38 177.03L1297.72 175.79L1298.12 174.57L1298.56 173.37L1299.05 172.19L1299.58 171.04L1300.16 169.92L1300.78 168.82L1301.44 167.75L1302.14 166.71L1302.89 165.71L1303.67 164.73L1304.49 163.79L1305.34 162.88L1306.23 162.01L1307.15 161.18L1308.11 160.38L1309.1 159.62L1310.12 158.9L1311.16 158.23L1312.24 157.6L1313.34 157.01L1314.47 156.46L1315.62 155.97L1316.8 155.52L1318 155.11L1319.22 154.76L1320.46 154.46L1321.72 154.21L1323 154.02L1324.29 153.88L1325.6 153.79L1326.92 153.76L1328.25 153.79L1329.56 153.88L1330.85 154.02L1332.13 154.21L1333.39 154.46L1334.63 154.76L1335.85 155.11L1337.05 155.52L1338.22 155.97L1338.8 156.22L1398.14 82.04L1413.1 94.01L1353.14 168.95Z" id="a6bdWnHuYF"></path><path d="M11.34 106.18L523.74 106.18L523.74 113.31L11.34 113.31L11.34 106.18Z" id="cCSUWHwIH"></path><path d="M305.35 140.92L817.74 140.92L817.74 148.06L305.35 148.06L305.35 140.92Z" id="fU0oXsI2v"></path><path d="M631.67 186.43L1144.06 186.43L1144.06 193.56L631.67 193.56L631.67 186.43Z" id="aQjgzXbel"></path><path d="M1135.2 242.63L1647.59 242.63L1647.59 249.76L1135.2 249.76L1135.2 242.63Z" id="gcOXNQlXk"></path><path d="M1247.21 129.56L1759.6 129.56L1759.6 136.69L1247.21 136.69L1247.21 129.56Z" id="b1E9Y3dov6"></path><path d="M227.53 225.82L739.92 225.82L739.92 232.95L227.53 232.95L227.53 225.82Z" id="ePV082WdV"></path><path d="M972.36 78.48L1484.76 78.48L1484.76 85.61L972.36 85.61L972.36 78.48Z" id="a3fSjfospI"></path><path d="M895.55 155.49L1407.95 155.49L1407.95 162.62L895.55 162.62L895.55 155.49Z" id="bf4jRLNWH"></path></defs><g><g><use xlink:href="#dIkAKRkM" opacity="1" fill="#e9e6df" fill-opacity="1"></use></g><g><use xlink:href="#dTWsjM8Nc" opacity="1" fill="#e9e6df" fill-opacity="1"></use></g><g><use xlink:href="#dPUfWwgqr" opacity="1" fill="#e9e6df" fill-opacity="1"></use></g><g><use xlink:href="#a3i46Cq1FF" opacity="1" fill="#cfccc4" fill-opacity="1"></use></g><g><use xlink:href="#bBwvQozdE" opacity="1" fill="#aaa8a1" fill-opacity="1"></use></g><g><use xlink:href="#i186hhenJ5" opacity="1" fill="#dbd8cd" fill-opacity="1"></use></g><g><use xlink:href="#j2S89tyLhy" opacity="1" fill="#cccac0" fill-opacity="1"></use></g><g><use xlink:href="#c205kzGbaT" opacity="1" fill="#c6c5be" fill-opacity="1"></use></g><g><use xlink:href="#c22yDCtM3r" opacity="1" fill="#c6c5be" fill-opacity="1"></use></g><g><use xlink:href="#b3oB5fi3N1" opacity="1" fill="#dbdacc" fill-opacity="1"></use></g><g><use xlink:href="#aTUTdvhuf" opacity="1" fill="#d1cfc5" fill-opacity="1"></use></g><g><use xlink:href="#diye7V4sH" opacity="1" fill="#edead9" fill-opacity="1"></use></g><g><use xlink:href="#a6sURrbXrO" opacity="1" fill="#e9e6df" fill-opacity="1"></use></g><g><use xlink:href="#ghIZykyQV" opacity="1" fill="#e9e6df" fill-opacity="1"></use></g><g><use xlink:href="#a3ijq4Mow8" opacity="1" fill="#e9e6df" fill-opacity="1"></use></g><g><use xlink:href="#aUQ5rJdfA" opacity="1" fill="#cfccc4" fill-opacity="1"></use></g><g><use xlink:href="#bj9Arq4jF" opacity="1" fill="#aaa8a1" fill-opacity="1"></use></g><g><use xlink:href="#aqsmBewlj" opacity="1" fill="#dbd8cd" fill-opacity="1"></use></g><g><use xlink:href="#a6bdWnHuYF" opacity="1" fill="#e9e6df" fill-opacity="1"></use></g><g><use xlink:href="#cCSUWHwIH" opacity="1" fill="#e3e1d8" fill-opacity="1"></use></g><g><use xlink:href="#fU0oXsI2v" opacity="1" fill="#e3e1d8" fill-opacity="1"></use></g><g><use xlink:href="#aQjgzXbel" opacity="1" fill="#e3e1d8" fill-opacity="1"></use></g><g><use xlink:href="#gcOXNQlXk" opacity="1" fill="#e3e1d8" fill-opacity="1"></use></g><g><use xlink:href="#b1E9Y3dov6" opacity="1" fill="#e3e1d8" fill-opacity="1"></use></g><g><use xlink:href="#ePV082WdV" opacity="1" fill="#e3e1d8" fill-opacity="1"></use></g><g><use xlink:href="#a3fSjfospI" opacity="1" fill="#e3e1d8" fill-opacity="1"></use></g><g><use xlink:href="#bf4jRLNWH" opacity="1" fill="#e3e1d8" fill-opacity="1"></use></g></g></svg>