<?xml version="1.0" encoding="UTF-8" standalone="no"?>
<!DOCTYPE svg PUBLIC "-//W3C//DTD SVG 1.1//EN" "http://www.w3.org/Graphics/SVG/1.1/DTD/svg11.dtd">
<svg version="1.1" xmlns="http://www.w3.org/2000/svg" xmlns:xlink="http://www.w3.org/1999/xlink" preserveAspectRatio="xMidYMid meet" viewBox="10.344180323529002 70.5448218123949 3017.3582746481216 226.70893100873315" width="2500" height="184.77"><defs><path d="M210.46 221.71C210.46 238.89 196.78 252.84 179.93 252.84C163.08 252.84 149.4 238.89 149.4 221.71C149.4 204.53 163.08 190.58 179.93 190.58C196.78 190.58 210.46 204.53 210.46 221.71Z" id="dIkAKRkM"></path><path d="M240.99 180.5C240.99 197.68 227.31 211.63 210.46 211.63C193.61 211.63 179.93 197.68 179.93 180.5C179.93 163.32 193.61 149.37 210.46 149.37C227.31 149.37 240.99 163.32 240.99 180.5Z" id="dTWsjM8Nc"></path><path d="M200.9 178.62L281.67 77.66L296.63 89.62L215.86 190.58L200.9 178.62Z" id="dPUfWwgqr"></path><path d="M188.23 204.74L269 103.78L273.01 106.99L192.24 207.95L188.23 204.74Z" id="a3i46Cq1FF"></path><path d="M199.9 205.95C199.9 210.91 195.88 214.93 190.91 214.93C185.95 214.93 181.92 210.91 181.92 205.95C181.92 201 185.95 196.97 190.91 196.97C195.88 196.97 199.9 201 199.9 205.95Z" id="bBwvQozdE"></path><path d="M471.95 161.85C484.89 161.85 495.39 172.35 495.39 185.29C495.39 201.43 495.39 226.43 495.39 242.57C495.39 255.51 484.89 266.01 471.95 266.01C453.41 266.01 421.24 266.01 402.7 266.01C389.75 266.01 379.26 255.51 379.26 242.57C379.26 226.43 379.26 201.43 379.26 185.29C379.26 172.35 389.75 161.85 402.7 161.85C421.24 161.85 453.41 161.85 471.95 161.85Z" id="i186hhenJ5"></path><path d="M489.4 167.65C489.4 172.6 466.07 176.63 437.32 176.63C408.58 176.63 385.25 172.6 385.25 167.65C385.25 162.69 408.58 158.67 437.32 158.67C466.07 158.67 489.4 162.69 489.4 167.65Z" id="j2S89tyLhy"></path><path d="M433.36 148.06C433.36 141.26 427.19 135.74 419.59 135.74C411.99 135.74 405.82 141.26 405.82 148.06C405.82 154.85 411.99 160.37 419.59 160.37C427.19 160.37 433.36 154.85 433.36 148.06Z" id="c205kzGbaT"></path><path d="M377.85 80.75L387.97 75.56L424.03 145.87L413.91 151.06L377.85 80.75Z" id="c22yDCtM3r"></path><path d="M657.07 111.03L658.43 111.16L659.76 111.35L661.08 111.6L662.38 111.89L663.65 112.23L664.9 112.62L666.13 113.06L667.33 113.55L668.5 114.08L669.65 114.65L670.76 115.27L671.85 115.92L672.9 116.62L673.93 117.36L674.91 118.13L675.86 118.94L676.78 119.79L677.65 120.67L678.49 121.58L679.28 122.53L680.04 123.5L680.74 124.51L681.41 125.54L682.03 126.61L682.6 127.69L683.12 128.8L683.6 129.94L684.02 131.1L684.39 132.28L684.71 133.48L684.97 134.7L685.18 135.94L685.32 137.19L685.41 138.46L685.45 139.74L685.41 141.02L685.32 142.29L685.18 143.55L684.97 144.78L684.71 146L684.39 147.2L684.02 148.38L683.6 149.54L683.12 150.68L682.6 151.79L682.03 152.88L681.41 153.94L680.74 154.97L680.04 155.98L679.28 156.95L678.49 157.9L677.65 158.81L676.78 159.69L676.33 160.11L701.26 218.53L701.46 219.04L701.65 219.55L701.81 220.06L701.94 220.58L702.06 221.1L702.15 221.61L702.23 222.13L702.28 222.65L702.31 223.17L702.33 223.69L702.32 224.2L702.29 224.72L702.24 225.23L702.17 225.73L702.09 226.24L701.98 226.74L701.85 227.23L701.71 227.72L701.55 228.2L701.37 228.68L701.17 229.14L700.95 229.6L700.72 230.06L700.47 230.5L700.2 230.93L699.91 231.36L699.61 231.77L699.29 232.17L698.96 232.56L698.61 232.94L698.24 233.3L697.86 233.66L697.46 233.99L697.05 234.32L696.62 234.63L696.18 234.92L695.72 235.19L695.25 235.45L694.77 235.7L694.27 235.92L693.32 236.33L692.81 236.53L692.3 236.71L691.79 236.87L691.28 237.01L690.76 237.13L690.24 237.22L689.72 237.3L689.2 237.35L688.68 237.38L688.17 237.39L687.65 237.39L687.14 237.36L686.63 237.31L686.12 237.24L685.62 237.15L685.12 237.05L684.63 236.92L684.14 236.78L683.65 236.62L683.18 236.43L682.71 236.24L682.25 236.02L681.8 235.79L681.36 235.53L680.92 235.27L680.5 234.98L680.08 234.68L679.68 234.36L679.29 234.03L678.91 233.68L678.55 233.31L678.2 232.93L677.86 232.53L677.54 232.12L677.23 231.69L676.94 231.25L676.66 230.79L676.4 230.32L676.16 229.84L675.93 229.34L649.88 168.27L648.87 168.13L647.56 167.89L646.26 167.59L644.99 167.25L643.74 166.86L642.51 166.42L641.31 165.93L640.13 165.4L638.99 164.83L637.87 164.22L636.79 163.56L635.73 162.86L634.71 162.12L633.72 161.35L632.77 160.54L631.86 159.69L630.99 158.81L630.15 157.9L629.35 156.95L628.6 155.98L627.89 154.97L627.23 153.94L626.61 152.88L626.04 151.79L625.51 150.68L625.04 149.54L624.62 148.38L624.25 147.2L623.93 146L623.67 144.78L623.46 143.55L623.31 142.29L623.22 141.02L623.19 139.74L623.22 138.46L623.31 137.19L623.46 135.94L623.67 134.7L623.93 133.48L624.25 132.28L624.62 131.1L625.04 129.94L625.51 128.8L626.04 127.69L626.61 126.61L627.23 125.54L627.89 124.51L628.6 123.5L629.35 122.53L630.15 121.58L630.99 120.67L631.86 119.79L632.77 118.94L633.72 118.13L634.71 117.36L635.73 116.62L636.79 115.92L637.87 115.27L638.99 114.65L640.13 114.08L641.31 113.55L642.51 113.06L643.74 112.62L644.99 112.23L646.26 111.89L647.56 111.6L648.87 111.35L650.21 111.16L651.56 111.03L652.93 110.94L654.32 110.91L655.7 110.94L657.07 111.03Z" id="b3oB5fi3N1"></path><path d="M918.5 121.79C938.18 121.79 954.12 139.17 954.12 160.61C954.12 219.98 882.89 249.44 882.89 251.08C882.89 251.08 882.89 251.08 882.89 251.08C882.89 249.44 811.66 219.98 811.66 160.6C811.66 139.16 827.6 121.78 847.27 121.78C866.94 121.78 882.89 137.01 882.89 158.45C882.89 137.01 898.83 121.79 918.5 121.79Z" id="aTUTdvhuf"></path><path d="M931.17 102.12C950.84 102.12 966.78 119.51 966.78 140.95C966.79 200.32 895.55 229.78 895.55 231.42C895.55 231.42 895.55 231.42 895.55 231.42C895.55 229.78 824.32 200.32 824.32 140.94C824.32 119.5 840.27 102.12 859.94 102.12C879.61 102.12 895.55 117.35 895.55 138.79C895.55 117.35 911.5 102.12 931.17 102.12Z" id="diye7V4sH"></path><path d="M233.9 245.15C233.9 262.33 220.22 276.28 203.37 276.28C186.52 276.28 172.84 262.33 172.84 245.15C172.84 227.97 186.52 214.02 203.37 214.02C220.22 214.02 233.9 227.97 233.9 245.15Z" id="a6sURrbXrO"></path><path d="M264.42 203.94C264.42 221.12 250.74 235.07 233.9 235.07C217.05 235.07 203.37 221.12 203.37 203.94C203.37 186.76 217.05 172.81 233.9 172.81C250.74 172.81 264.42 186.76 264.42 203.94Z" id="ghIZykyQV"></path><path d="M224.34 202.06L305.11 101.09L320.07 113.06L239.3 214.02L224.34 202.06Z" id="a3ijq4Mow8"></path><path d="M211.67 228.18L292.44 127.22L296.44 130.43L215.67 231.39L211.67 228.18Z" id="aUQ5rJdfA"></path><path d="M223.34 229.39C223.34 234.34 219.31 238.37 214.35 238.37C209.39 238.37 205.36 234.34 205.36 229.39C205.36 224.43 209.39 220.41 214.35 220.41C219.31 220.41 223.34 224.43 223.34 229.39Z" id="bj9Arq4jF"></path><path d="M1097.89 131.73L1099.3 131.79L1100.66 131.98L1101.98 132.28L1103.25 132.69L1104.45 133.21L1105.58 133.83L1106.64 134.54L1107.62 135.33L1108.51 136.21L1109.3 137.16L1109.99 138.17L1110.57 139.25L1111.04 140.38L1111.38 141.56L1111.58 142.78L1111.66 144.04L1111.58 145.3L1111.38 146.52L1111.04 147.7L1110.57 148.84L1109.99 149.91L1109.3 150.93L1108.51 151.88L1107.62 152.75L1106.64 153.55L1105.58 154.26L1104.46 154.86L1105.13 154.84L1107.18 154.77L1109.25 154.72L1111.35 154.68L1113.48 154.66L1115.62 154.65L1117.77 154.66L1119.89 154.68L1121.99 154.72L1124.06 154.77L1126.11 154.84L1128.13 154.92L1130.12 155.01L1132.07 155.11L1134 155.23L1135.88 155.36L1137.73 155.5L1139.54 155.66L1141.32 155.82L1143.04 156L1144.73 156.19L1146.37 156.39L1147.96 156.6L1149.5 156.82L1151 157.05L1152.44 157.29L1153.82 157.53L1155.16 157.79L1156.43 158.06L1157.64 158.33L1158.8 158.62L1159.89 158.91L1160.92 159.2L1161.88 159.51L1162.78 159.82L1163.6 160.14L1164.36 160.47L1165.04 160.8L1165.65 161.13L1166.18 161.48L1166.64 161.83L1167.02 162.18L1167.31 162.54L1167.53 162.9L1167.65 163.26L1167.7 163.63L1167.65 164L1167.53 164.37L1167.31 164.73L1167.1 164.99L1167.44 165.35L1168.04 166.02L1168.62 166.72L1169.16 167.43L1169.68 168.17L1170.17 168.93L1170.63 169.71L1171.07 170.5L1171.47 171.32L1171.84 172.15L1172.18 173L1172.49 173.87L1172.76 174.75L1173 175.64L1173.21 176.55L1173.38 177.47L1173.51 178.41L1173.61 179.35L1173.66 180.31L1173.68 181.28L1173.68 238.56L1173.66 239.52L1173.61 240.48L1173.51 241.42L1173.38 242.36L1173.21 243.28L1173 244.19L1172.76 245.08L1172.49 245.96L1172.18 246.83L1171.84 247.68L1171.47 248.51L1171.07 249.33L1170.63 250.12L1170.17 250.9L1169.68 251.66L1169.16 252.4L1168.62 253.11L1168.04 253.81L1167.44 254.48L1166.82 255.13L1166.17 255.75L1165.5 256.35L1164.8 256.92L1164.09 257.47L1163.35 257.99L1162.59 258.48L1161.81 258.94L1161.02 259.38L1160.2 259.78L1159.37 260.15L1158.52 260.49L1157.65 260.8L1156.77 261.07L1155.88 261.31L1154.97 261.52L1154.05 261.69L1153.11 261.82L1152.17 261.92L1151.21 261.97L1150.25 261.99L1080.99 261.99L1080.03 261.97L1079.07 261.92L1078.13 261.82L1077.19 261.69L1076.27 261.52L1075.36 261.31L1074.47 261.07L1073.59 260.8L1072.72 260.49L1071.87 260.15L1071.04 259.78L1070.22 259.38L1069.43 258.94L1068.65 258.48L1067.89 257.99L1067.15 257.47L1066.44 256.92L1065.74 256.35L1065.07 255.75L1064.42 255.13L1063.8 254.48L1063.2 253.81L1062.63 253.11L1062.08 252.4L1061.56 251.66L1061.07 250.9L1060.61 250.12L1060.17 249.33L1059.77 248.51L1059.4 247.68L1059.06 246.83L1058.75 245.96L1058.48 245.08L1058.24 244.19L1058.03 243.28L1057.86 242.36L1057.73 241.42L1057.63 240.48L1057.58 239.52L1057.56 238.56L1057.56 181.28L1057.58 180.31L1057.63 179.35L1057.73 178.41L1057.86 177.47L1058.03 176.55L1058.24 175.64L1058.48 174.75L1058.75 173.87L1059.06 173L1059.4 172.15L1059.77 171.32L1060.17 170.5L1060.61 169.71L1061.07 168.93L1061.56 168.17L1062.08 167.43L1062.63 166.72L1063.2 166.02L1063.8 165.35L1064.14 164.99L1063.93 164.73L1063.72 164.37L1063.59 164L1063.54 163.63L1063.59 163.26L1063.72 162.9L1063.93 162.54L1064.23 162.18L1064.6 161.83L1065.06 161.48L1065.59 161.13L1066.2 160.8L1066.88 160.47L1067.64 160.14L1068.46 159.82L1069.36 159.51L1070.32 159.2L1071.35 158.91L1072.44 158.62L1073.6 158.33L1074.81 158.06L1076.09 157.79L1077.42 157.53L1078.8 157.29L1080.24 157.05L1081.74 156.82L1083.28 156.6L1084.87 156.39L1086.51 156.19L1088.2 156L1089.93 155.82L1091.7 155.66L1093 155.55L1092.53 155.39L1091.33 154.87L1090.19 154.26L1089.13 153.55L1088.15 152.75L1087.27 151.88L1086.47 150.93L1085.78 149.91L1085.2 148.84L1084.74 147.7L1084.4 146.52L1084.19 145.3L1084.12 144.04L1084.19 142.78L1084.4 141.56L1084.74 140.38L1085.2 139.25L1085.78 138.17L1086.47 137.16L1086.88 136.67L1056.15 76.73L1066.27 71.54L1097.15 131.76L1097.89 131.73Z" id="aqsmBewlj"></path><path d="M1353.14 168.95L1353.69 169.92L1354.27 171.04L1354.8 172.19L1355.29 173.37L1355.73 174.57L1356.12 175.79L1356.47 177.03L1356.66 177.87L1356.82 177.9L1358.06 178.2L1359.28 178.55L1360.48 178.95L1361.66 179.4L1362.24 179.65L1421.58 105.48L1436.53 117.45L1376.58 192.39L1377.13 193.35L1377.71 194.48L1378.24 195.63L1378.73 196.81L1379.17 198L1379.56 199.23L1379.91 200.47L1380.2 201.74L1380.45 203.02L1380.64 204.32L1380.78 205.64L1380.86 206.98L1380.89 208.33L1380.86 209.67L1380.78 211.01L1380.64 212.33L1380.45 213.63L1380.2 214.91L1379.91 216.18L1379.56 217.42L1379.17 218.65L1378.73 219.85L1378.24 221.02L1377.71 222.17L1377.13 223.3L1376.51 224.39L1375.84 225.46L1375.14 226.5L1374.4 227.51L1373.62 228.48L1372.8 229.42L1371.94 230.33L1371.05 231.2L1370.13 232.04L1369.17 232.83L1368.19 233.59L1367.17 234.31L1366.12 234.98L1365.04 235.62L1363.94 236.21L1362.81 236.75L1361.66 237.25L1360.48 237.7L1359.28 238.1L1358.06 238.45L1356.82 238.75L1355.56 239L1354.29 239.2L1352.99 239.34L1351.68 239.42L1350.36 239.45L1349.04 239.42L1348.7 239.4L1349.03 240.44L1349.38 241.68L1349.67 242.95L1349.92 244.23L1350.11 245.53L1350.25 246.85L1350.33 248.19L1350.36 249.54L1350.33 250.88L1350.25 252.22L1350.11 253.54L1349.92 254.84L1349.67 256.12L1349.38 257.39L1349.03 258.63L1348.64 259.86L1348.2 261.06L1347.71 262.23L1347.18 263.38L1346.6 264.51L1345.98 265.6L1345.32 266.67L1344.61 267.71L1343.87 268.72L1343.09 269.69L1342.27 270.63L1341.42 271.54L1340.53 272.41L1339.6 273.25L1338.65 274.04L1337.66 274.8L1336.64 275.52L1335.59 276.19L1334.52 276.83L1333.41 277.42L1332.28 277.96L1331.13 278.46L1329.95 278.91L1328.76 279.31L1327.54 279.66L1326.3 279.96L1325.04 280.21L1323.76 280.41L1322.47 280.55L1321.16 280.63L1319.83 280.66L1318.51 280.63L1317.2 280.55L1315.91 280.41L1314.63 280.21L1313.37 279.96L1312.13 279.66L1310.91 279.31L1309.71 278.91L1308.53 278.46L1307.38 277.96L1306.25 277.42L1305.15 276.83L1304.07 276.19L1303.03 275.52L1302.01 274.8L1301.02 274.04L1300.06 273.25L1299.14 272.41L1298.25 271.54L1297.4 270.63L1296.58 269.69L1295.8 268.72L1295.05 267.71L1294.35 266.67L1293.69 265.6L1293.07 264.51L1292.49 263.38L1291.95 262.23L1291.47 261.06L1291.03 259.86L1290.63 258.63L1290.29 257.39L1290.09 256.56L1289.93 256.52L1288.69 256.22L1287.47 255.87L1286.27 255.47L1285.1 255.02L1283.94 254.52L1282.82 253.98L1281.71 253.39L1280.64 252.76L1279.59 252.08L1278.57 251.36L1277.58 250.61L1276.63 249.81L1275.7 248.98L1274.81 248.1L1273.96 247.2L1273.14 246.25L1272.36 245.28L1271.62 244.27L1270.91 243.23L1270.25 242.17L1269.63 241.07L1269.05 239.94L1268.52 238.79L1268.03 237.62L1267.59 236.42L1267.19 235.2L1266.85 233.95L1266.55 232.69L1266.31 231.4L1266.12 230.1L1265.98 228.78L1265.9 227.45L1265.87 226.1L1265.9 224.75L1265.98 223.41L1266.12 222.1L1266.31 220.79L1266.55 219.51L1266.85 218.24L1267.19 217L1267.59 215.78L1268.03 214.58L1268.52 213.4L1269.05 212.25L1269.63 211.13L1270.25 210.03L1270.91 208.96L1271.62 207.92L1272.36 206.92L1273.14 205.94L1273.96 205L1274.81 204.09L1275.7 203.22L1276.63 202.39L1277.58 201.59L1278.57 200.83L1279.59 200.11L1280.64 199.44L1281.71 198.81L1282.82 198.22L1283.94 197.67L1285.1 197.18L1286.27 196.73L1287.47 196.32L1288.69 195.97L1289.93 195.67L1291.19 195.42L1292.47 195.23L1293.76 195.09L1295.07 195L1296.4 194.97L1297.72 195L1298.06 195.02L1297.72 193.99L1297.38 192.74L1297.08 191.48L1296.84 190.19L1296.65 188.89L1296.51 187.57L1296.42 186.24L1296.4 184.89L1296.42 183.54L1296.51 182.2L1296.65 180.88L1296.84 179.58L1297.08 178.3L1297.38 177.03L1297.72 175.79L1298.12 174.57L1298.56 173.37L1299.05 172.19L1299.58 171.04L1300.16 169.92L1300.78 168.82L1301.44 167.75L1302.14 166.71L1302.89 165.71L1303.67 164.73L1304.49 163.79L1305.34 162.88L1306.23 162.01L1307.15 161.18L1308.11 160.38L1309.1 159.62L1310.12 158.9L1311.16 158.23L1312.24 157.6L1313.34 157.01L1314.47 156.46L1315.62 155.97L1316.8 155.52L1318 155.11L1319.22 154.76L1320.46 154.46L1321.72 154.21L1323 154.02L1324.29 153.88L1325.6 153.79L1326.92 153.76L1328.25 153.79L1329.56 153.88L1330.85 154.02L1332.13 154.21L1333.39 154.46L1334.63 154.76L1335.85 155.11L1337.05 155.52L1338.22 155.97L1338.8 156.22L1398.14 82.04L1413.1 94.01L1353.14 168.95Z" id="a6bdWnHuYF"></path><path d="M1602.34 129.67L1603.7 129.81L1605.03 130L1606.35 130.25L1607.64 130.54L1608.92 130.88L1610.17 131.27L1611.4 131.71L1612.6 132.2L1613.77 132.73L1614.92 133.3L1616.03 133.92L1617.12 134.57L1618.17 135.27L1619.19 136.01L1620.18 136.78L1621.13 137.59L1622.04 138.44L1622.92 139.32L1623.76 140.23L1624.55 141.18L1625.3 142.15L1626.01 143.16L1626.68 144.19L1627.3 145.25L1627.87 146.34L1628.39 147.45L1628.87 148.59L1629.29 149.75L1629.66 150.93L1629.98 152.13L1630.24 153.35L1630.44 154.58L1630.59 155.84L1630.68 157.11L1630.71 158.39L1630.68 159.67L1630.59 160.94L1630.44 162.2L1630.24 163.43L1629.98 164.65L1629.66 165.85L1629.29 167.03L1628.87 168.19L1628.39 169.33L1627.87 170.44L1627.3 171.53L1626.68 172.59L1626.01 173.62L1625.3 174.63L1624.55 175.6L1623.76 176.55L1622.92 177.46L1622.04 178.34L1621.6 178.76L1646.53 237.18L1646.73 237.69L1646.91 238.2L1647.07 238.71L1647.21 239.23L1647.33 239.75L1647.42 240.26L1647.5 240.78L1647.55 241.3L1647.58 241.82L1647.59 242.34L1647.59 242.85L1647.56 243.36L1647.51 243.87L1647.44 244.38L1647.35 244.89L1647.25 245.38L1647.12 245.88L1646.98 246.37L1646.82 246.85L1646.64 247.32L1646.44 247.79L1646.22 248.25L1645.99 248.7L1645.73 249.15L1645.47 249.58L1645.18 250.01L1644.88 250.42L1644.56 250.82L1644.23 251.21L1643.88 251.59L1643.51 251.95L1643.13 252.31L1642.73 252.64L1642.32 252.97L1641.89 253.27L1641.45 253.57L1640.99 253.84L1640.52 254.1L1640.04 254.35L1639.54 254.57L1638.59 254.98L1638.08 255.18L1637.57 255.36L1637.06 255.52L1636.54 255.66L1636.03 255.78L1635.51 255.87L1634.99 255.95L1634.47 256L1633.95 256.03L1633.44 256.04L1632.92 256.03L1632.41 256.01L1631.9 255.96L1631.39 255.89L1630.89 255.8L1630.39 255.7L1629.89 255.57L1629.41 255.43L1628.92 255.26L1628.45 255.08L1627.98 254.89L1627.52 254.67L1627.07 254.43L1626.62 254.18L1626.19 253.91L1625.77 253.63L1625.35 253.33L1624.95 253.01L1624.56 252.67L1624.18 252.32L1623.82 251.96L1623.47 251.58L1623.13 251.18L1622.81 250.77L1622.5 250.34L1622.2 249.9L1621.93 249.44L1621.67 248.97L1621.43 248.49L1621.2 247.99L1595.15 186.92L1594.14 186.78L1592.83 186.53L1591.53 186.24L1590.26 185.9L1589.01 185.51L1587.78 185.07L1586.58 184.58L1585.4 184.05L1584.26 183.48L1583.14 182.86L1582.05 182.21L1581 181.51L1579.98 180.77L1578.99 180L1578.04 179.19L1577.13 178.34L1576.25 177.46L1575.42 176.55L1574.62 175.6L1573.87 174.63L1573.16 173.62L1572.5 172.59L1571.88 171.53L1571.31 170.44L1570.78 169.33L1570.31 168.19L1569.89 167.03L1569.51 165.85L1569.2 164.65L1568.94 163.43L1568.73 162.2L1568.58 160.94L1568.49 159.67L1568.46 158.39L1568.49 157.11L1568.58 155.84L1568.73 154.58L1568.94 153.35L1569.2 152.13L1569.51 150.93L1569.89 149.75L1570.31 148.59L1570.78 147.45L1571.31 146.34L1571.88 145.25L1572.5 144.19L1573.16 143.16L1573.87 142.15L1574.62 141.18L1575.42 140.23L1576.25 139.32L1577.13 138.44L1578.04 137.59L1578.99 136.78L1579.98 136.01L1581 135.27L1582.05 134.57L1583.14 133.92L1584.26 133.3L1585.4 132.73L1586.58 132.2L1587.78 131.71L1589.01 131.27L1590.26 130.88L1591.53 130.54L1592.83 130.25L1594.14 130L1595.48 129.81L1596.83 129.67L1598.2 129.59L1599.59 129.56L1600.97 129.59L1602.34 129.67Z" id="clTDBAhr4"></path><path d="M1822.88 137.21L1824.28 137.27L1825.65 137.46L1826.97 137.76L1828.23 138.17L1829.44 138.69L1830.57 139.31L1831.63 140.02L1832.61 140.81L1833.5 141.69L1834.29 142.64L1834.98 143.65L1835.56 144.73L1836.02 145.86L1836.36 147.04L1836.57 148.26L1836.64 149.52L1836.57 150.78L1836.36 152L1836.02 153.18L1835.56 154.32L1834.98 155.39L1834.29 156.41L1833.5 157.36L1832.61 158.23L1831.63 159.03L1830.57 159.74L1829.45 160.34L1830.12 160.32L1832.16 160.25L1834.24 160.2L1836.34 160.16L1838.46 160.14L1840.61 160.13L1842.75 160.14L1844.88 160.16L1846.98 160.2L1849.05 160.25L1851.1 160.32L1853.12 160.4L1855.1 160.49L1857.06 160.59L1858.98 160.71L1860.87 160.84L1862.72 160.98L1864.53 161.14L1866.3 161.3L1868.03 161.48L1869.72 161.67L1871.36 161.87L1872.95 162.08L1874.49 162.3L1875.98 162.53L1877.42 162.77L1878.81 163.01L1880.14 163.27L1881.42 163.54L1882.63 163.81L1883.79 164.09L1884.88 164.39L1885.91 164.68L1886.87 164.99L1887.76 165.3L1888.59 165.62L1889.35 165.95L1890.03 166.28L1890.64 166.61L1891.17 166.96L1891.63 167.3L1892 167.66L1892.3 168.02L1892.51 168.38L1892.64 168.74L1892.68 169.11L1892.64 169.48L1892.51 169.85L1892.3 170.21L1892.08 170.47L1892.43 170.83L1893.03 171.5L1893.6 172.2L1894.15 172.91L1894.67 173.65L1895.16 174.41L1895.62 175.19L1896.05 175.98L1896.46 176.8L1896.83 177.63L1897.17 178.48L1897.48 179.35L1897.75 180.23L1897.99 181.12L1898.19 182.03L1898.36 182.95L1898.5 183.89L1898.59 184.83L1898.65 185.79L1898.67 186.76L1898.67 244.04L1898.65 245L1898.59 245.96L1898.5 246.9L1898.36 247.84L1898.19 248.76L1897.99 249.67L1897.75 250.56L1897.48 251.44L1897.17 252.31L1896.83 253.16L1896.46 253.99L1896.05 254.81L1895.62 255.6L1895.16 256.38L1894.67 257.14L1894.15 257.88L1893.6 258.59L1893.03 259.29L1892.43 259.96L1891.81 260.61L1891.16 261.23L1890.49 261.83L1889.79 262.4L1889.08 262.95L1888.34 263.47L1887.58 263.96L1886.8 264.42L1886 264.86L1885.19 265.26L1884.36 265.63L1883.51 265.97L1882.64 266.28L1881.76 266.55L1880.87 266.79L1879.96 267L1879.03 267.17L1878.1 267.3L1877.16 267.4L1876.2 267.45L1875.23 267.47L1805.98 267.47L1805.02 267.45L1804.06 267.4L1803.11 267.3L1802.18 267.17L1801.26 267L1800.35 266.79L1799.45 266.55L1798.57 266.28L1797.71 265.97L1796.86 265.63L1796.03 265.26L1795.21 264.86L1794.41 264.42L1793.64 263.96L1792.88 263.47L1792.14 262.95L1791.42 262.4L1790.73 261.83L1790.06 261.23L1789.41 260.61L1788.78 259.96L1788.19 259.29L1787.61 258.59L1787.07 257.88L1786.55 257.14L1786.06 256.38L1785.59 255.6L1785.16 254.81L1784.76 253.99L1784.39 253.16L1784.05 252.31L1783.74 251.44L1783.46 250.56L1783.23 249.67L1783.02 248.76L1782.85 247.84L1782.72 246.9L1782.62 245.96L1782.56 245L1782.54 244.04L1782.54 186.76L1782.56 185.79L1782.62 184.83L1782.72 183.89L1782.85 182.95L1783.02 182.03L1783.23 181.12L1783.46 180.23L1783.74 179.35L1784.05 178.48L1784.39 177.63L1784.76 176.8L1785.16 175.98L1785.59 175.19L1786.06 174.41L1786.55 173.65L1787.07 172.91L1787.61 172.2L1788.19 171.5L1788.78 170.83L1789.13 170.47L1788.92 170.21L1788.7 169.85L1788.57 169.48L1788.53 169.11L1788.57 168.74L1788.7 168.38L1788.92 168.02L1789.21 167.66L1789.59 167.3L1790.04 166.96L1790.58 166.61L1791.19 166.28L1791.87 165.95L1792.63 165.62L1793.45 165.3L1794.35 164.99L1795.31 164.68L1796.34 164.39L1797.43 164.09L1798.58 163.81L1799.8 163.54L1801.07 163.27L1802.4 163.01L1803.79 162.77L1805.23 162.53L1806.72 162.3L1808.27 162.08L1809.86 161.87L1811.5 161.67L1813.18 161.48L1814.91 161.3L1816.68 161.14L1817.99 161.03L1817.52 160.87L1816.31 160.35L1815.18 159.74L1814.12 159.03L1813.14 158.23L1812.25 157.36L1811.46 156.41L1810.77 155.39L1810.19 154.32L1809.73 153.18L1809.39 152L1809.18 150.78L1809.11 149.52L1809.18 148.26L1809.39 147.04L1809.73 145.86L1810.19 144.73L1810.77 143.65L1811.46 142.64L1811.87 142.15L1781.14 82.21L1791.26 77.02L1822.14 137.24L1822.88 137.21Z" id="c2gMgUjqRJ"></path><path d="M2074.48 137.99C2094.15 137.99 2110.09 155.37 2110.09 176.81C2110.1 236.18 2038.86 265.65 2038.86 267.28C2038.86 267.28 2038.86 267.28 2038.86 267.28C2038.86 265.65 1967.63 236.18 1967.63 176.81C1967.63 155.37 1983.57 137.99 2003.25 137.99C2022.92 137.99 2038.86 153.21 2038.86 174.66C2038.86 153.22 2054.81 137.99 2074.48 137.99Z" id="f1qJn8IO4H"></path><path d="M2087.14 121.92C2106.81 121.92 2122.76 139.3 2122.76 160.74C2122.76 220.11 2051.53 249.58 2051.53 251.21C2051.53 251.21 2051.53 251.21 2051.53 251.21C2051.53 249.58 1980.29 220.11 1980.29 160.74C1980.29 139.3 1996.24 121.92 2015.91 121.92C2035.58 121.92 2051.53 137.14 2051.52 158.59C2051.52 137.15 2067.47 121.92 2087.14 121.92Z" id="a2zecreSV"></path><path d="M2285.49 227.72C2285.49 244.9 2271.82 258.84 2254.97 258.84C2238.12 258.84 2224.44 244.9 2224.44 227.72C2224.44 210.54 2238.12 196.59 2254.97 196.59C2271.82 196.59 2285.49 210.54 2285.49 227.72Z" id="bbFrzrryc"></path><path d="M2316.02 186.51C2316.02 203.69 2302.34 217.63 2285.49 217.63C2268.65 217.63 2254.97 203.69 2254.97 186.51C2254.97 169.33 2268.65 155.38 2285.49 155.38C2302.34 155.38 2316.02 169.33 2316.02 186.51Z" id="a3Ua3YPbFg"></path><path d="M2275.94 184.62L2356.71 83.66L2371.67 95.63L2290.9 196.59L2275.94 184.62Z" id="a7nXKtl3u"></path><path d="M2263.27 210.75L2344.04 109.79L2348.04 112.99L2267.27 213.96L2263.27 210.75Z" id="d18PIwn5V"></path><path d="M2274.94 211.96C2274.94 216.91 2270.91 220.94 2265.95 220.94C2260.99 220.94 2256.96 216.91 2256.96 211.96C2256.96 207 2260.99 202.98 2265.95 202.98C2270.91 202.98 2274.94 207 2274.94 211.96Z" id="aLmYZ788l"></path><path d="M2308.93 251.16C2308.93 268.33 2295.25 282.28 2278.4 282.28C2261.55 282.28 2247.88 268.33 2247.88 251.16C2247.88 233.98 2261.55 220.03 2278.4 220.03C2295.25 220.03 2308.93 233.98 2308.93 251.16Z" id="caHFFKIy5"></path><path d="M2339.46 209.94C2339.46 227.12 2325.78 241.07 2308.93 241.07C2292.08 241.07 2278.4 227.12 2278.4 209.94C2278.4 192.77 2292.08 178.82 2308.93 178.82C2325.78 178.82 2339.46 192.77 2339.46 209.94Z" id="aag7NIWJIA"></path><path d="M2299.38 208.06L2380.15 107.1L2395.11 119.07L2314.34 220.03L2299.38 208.06Z" id="b1QLoAZw0P"></path><path d="M2286.7 234.19L2367.47 133.23L2371.48 136.43L2290.71 237.39L2286.7 234.19Z" id="a7c9vXZraS"></path><path d="M2298.38 235.39C2298.38 240.35 2294.35 244.37 2289.39 244.37C2284.43 244.37 2280.4 240.35 2280.4 235.39C2280.4 230.44 2284.43 226.42 2289.39 226.42C2294.35 226.42 2298.38 230.44 2298.38 235.39Z" id="a7eXK2vLSB"></path><path d="M11.34 106.18L523.74 106.18L523.74 113.31L11.34 113.31L11.34 106.18Z" id="cCSUWHwIH"></path><path d="M305.35 140.92L817.74 140.92L817.74 148.06L305.35 148.06L305.35 140.92Z" id="fU0oXsI2v"></path><path d="M631.67 186.43L1144.06 186.43L1144.06 193.56L631.67 193.56L631.67 186.43Z" id="aQjgzXbel"></path><path d="M1135.2 242.63L1647.59 242.63L1647.59 249.76L1135.2 249.76L1135.2 242.63Z" id="gcOXNQlXk"></path><path d="M1247.21 129.56L1759.6 129.56L1759.6 136.69L1247.21 136.69L1247.21 129.56Z" id="b1E9Y3dov6"></path><path d="M1887.19 189.46L2399.59 189.46L2399.59 196.59L1887.19 196.59L1887.19 189.46Z" id="cijir6fVi"></path><path d="M2549.57 150.27L2550.97 150.33L2552.34 150.52L2553.66 150.82L2554.92 151.24L2556.13 151.75L2557.26 152.37L2558.32 153.08L2559.3 153.88L2560.19 154.75L2560.98 155.7L2561.67 156.71L2562.25 157.79L2562.71 158.92L2563.05 160.1L2563.26 161.33L2563.33 162.58L2563.26 163.84L2563.05 165.06L2562.71 166.25L2562.25 167.38L2561.67 168.45L2560.98 169.47L2560.19 170.42L2559.3 171.29L2558.32 172.09L2557.26 172.8L2556.14 173.41L2556.81 173.38L2558.85 173.31L2560.93 173.26L2563.03 173.23L2565.15 173.2L2567.3 173.2L2569.44 173.2L2571.57 173.23L2573.67 173.26L2575.74 173.31L2577.79 173.38L2579.81 173.46L2581.79 173.55L2583.75 173.65L2585.67 173.77L2587.56 173.9L2589.41 174.04L2591.22 174.2L2592.99 174.36L2594.72 174.54L2596.41 174.73L2598.05 174.93L2599.64 175.14L2601.18 175.36L2602.67 175.59L2604.11 175.83L2605.5 176.08L2606.83 176.33L2608.11 176.6L2609.32 176.87L2610.48 177.16L2611.57 177.45L2612.6 177.74L2613.56 178.05L2614.45 178.36L2615.28 178.68L2616.04 179.01L2616.72 179.34L2617.33 179.68L2617.86 180.02L2618.32 180.37L2618.69 180.72L2618.99 181.08L2619.2 181.44L2619.33 181.81L2619.38 182.18L2619.33 182.54L2619.2 182.91L2618.99 183.27L2618.77 183.53L2619.12 183.89L2619.72 184.56L2620.29 185.26L2620.84 185.97L2621.36 186.71L2621.85 187.47L2622.31 188.25L2622.74 189.05L2623.15 189.86L2623.52 190.69L2623.86 191.54L2624.17 192.41L2624.44 193.29L2624.68 194.18L2624.88 195.09L2625.05 196.02L2625.19 196.95L2625.28 197.89L2625.34 198.85L2625.36 199.82L2625.36 257.1L2625.34 258.06L2625.28 259.02L2625.19 259.96L2625.05 260.9L2624.88 261.82L2624.68 262.73L2624.44 263.62L2624.17 264.5L2623.86 265.37L2623.52 266.22L2623.15 267.05L2622.74 267.87L2622.31 268.66L2621.85 269.44L2621.36 270.2L2620.84 270.94L2620.29 271.66L2619.72 272.35L2619.12 273.02L2618.5 273.67L2617.85 274.29L2617.18 274.89L2616.48 275.47L2615.77 276.01L2615.03 276.53L2614.27 277.02L2613.49 277.49L2612.69 277.92L2611.88 278.32L2611.05 278.69L2610.2 279.03L2609.33 279.34L2608.45 279.61L2607.56 279.85L2606.65 280.06L2605.73 280.23L2604.79 280.36L2603.85 280.46L2602.89 280.51L2601.92 280.53L2532.67 280.53L2531.71 280.51L2530.75 280.46L2529.8 280.36L2528.87 280.23L2527.95 280.06L2527.04 279.85L2526.14 279.61L2525.26 279.34L2524.4 279.03L2523.55 278.69L2522.72 278.32L2521.9 277.92L2521.1 277.49L2520.33 277.02L2519.57 276.53L2518.83 276.01L2518.11 275.47L2517.42 274.89L2516.75 274.29L2516.1 273.67L2515.47 273.02L2514.88 272.35L2514.3 271.66L2513.76 270.94L2513.24 270.2L2512.75 269.44L2512.28 268.66L2511.85 267.87L2511.45 267.05L2511.08 266.22L2510.74 265.37L2510.43 264.5L2510.16 263.62L2509.92 262.73L2509.71 261.82L2509.54 260.9L2509.41 259.96L2509.31 259.02L2509.25 258.06L2509.23 257.1L2509.23 199.82L2509.25 198.85L2509.31 197.89L2509.41 196.95L2509.54 196.02L2509.71 195.09L2509.92 194.18L2510.16 193.29L2510.43 192.41L2510.74 191.54L2511.08 190.69L2511.45 189.86L2511.85 189.05L2512.28 188.25L2512.75 187.47L2513.24 186.71L2513.76 185.97L2514.3 185.26L2514.88 184.56L2515.47 183.89L2515.82 183.53L2515.61 183.27L2515.39 182.91L2515.26 182.54L2515.22 182.18L2515.26 181.81L2515.39 181.44L2515.61 181.08L2515.9 180.72L2516.28 180.37L2516.73 180.02L2517.27 179.68L2517.88 179.34L2518.56 179.01L2519.32 178.68L2520.14 178.36L2521.04 178.05L2522 177.74L2523.03 177.45L2524.12 177.16L2525.27 176.87L2526.49 176.6L2527.76 176.33L2529.09 176.08L2530.48 175.83L2531.92 175.59L2533.41 175.36L2534.96 175.14L2536.55 174.93L2538.19 174.73L2539.87 174.54L2541.6 174.36L2543.37 174.2L2544.68 174.09L2544.21 173.93L2543 173.41L2541.87 172.8L2540.81 172.09L2539.83 171.29L2538.94 170.42L2538.15 169.47L2537.46 168.45L2536.88 167.38L2536.42 166.25L2536.08 165.06L2535.87 163.84L2535.8 162.58L2535.87 161.33L2536.08 160.1L2536.42 158.92L2536.88 157.79L2537.46 156.71L2538.15 155.7L2538.56 155.21L2507.83 95.28L2517.95 90.09L2548.83 150.3L2549.57 150.27Z" id="dsxsI6DXA"></path><path d="M2797.82 139.85L2799.18 139.99L2800.51 140.18L2801.83 140.42L2803.12 140.71L2804.4 141.06L2805.65 141.45L2806.88 141.89L2808.08 142.37L2809.25 142.9L2810.4 143.48L2811.51 144.09L2812.6 144.75L2813.65 145.45L2814.67 146.18L2815.66 146.96L2816.61 147.77L2817.52 148.61L2818.4 149.49L2819.24 150.41L2820.03 151.35L2820.78 152.33L2821.49 153.33L2822.16 154.37L2822.78 155.43L2823.35 156.52L2823.87 157.63L2824.35 158.77L2824.77 159.92L2825.14 161.1L2825.46 162.3L2825.72 163.52L2825.92 164.76L2826.07 166.01L2826.16 167.28L2826.19 168.57L2826.16 169.85L2826.07 171.12L2825.92 172.37L2825.72 173.61L2825.46 174.83L2825.14 176.03L2824.77 177.21L2824.35 178.37L2823.87 179.5L2823.35 180.61L2822.78 181.7L2822.16 182.76L2821.49 183.8L2820.78 184.8L2820.03 185.78L2819.24 186.72L2818.4 187.64L2817.52 188.52L2817.08 188.93L2842.01 247.36L2842.21 247.87L2842.39 248.38L2842.55 248.89L2842.69 249.4L2842.81 249.92L2842.9 250.44L2842.98 250.96L2843.03 251.48L2843.06 251.99L2843.07 252.51L2843.07 253.03L2843.04 253.54L2842.99 254.05L2842.92 254.56L2842.83 255.06L2842.73 255.56L2842.6 256.05L2842.46 256.54L2842.3 257.02L2842.11 257.5L2841.92 257.97L2841.7 258.43L2841.47 258.88L2841.21 259.32L2840.95 259.76L2840.66 260.18L2840.36 260.59L2840.04 261L2839.71 261.39L2839.36 261.76L2838.99 262.13L2838.61 262.48L2838.21 262.82L2837.8 263.14L2837.37 263.45L2836.93 263.74L2836.47 264.02L2836 264.28L2835.52 264.52L2835.02 264.75L2834.07 265.15L2833.56 265.36L2833.05 265.54L2832.54 265.7L2832.02 265.84L2831.51 265.95L2830.99 266.05L2830.47 266.12L2829.95 266.17L2829.43 266.21L2828.92 266.22L2828.4 266.21L2827.89 266.18L2827.38 266.13L2826.87 266.07L2826.37 265.98L2825.87 265.87L2825.37 265.75L2824.89 265.6L2824.4 265.44L2823.93 265.26L2823.46 265.06L2823 264.84L2822.55 264.61L2822.1 264.36L2821.67 264.09L2821.25 263.81L2820.83 263.5L2820.43 263.19L2820.04 262.85L2819.66 262.5L2819.3 262.13L2818.95 261.75L2818.61 261.35L2818.29 260.94L2817.98 260.52L2817.68 260.07L2817.41 259.62L2817.15 259.15L2816.91 258.66L2816.68 258.17L2790.63 197.1L2789.62 196.95L2788.31 196.71L2787.01 196.42L2785.74 196.07L2784.48 195.68L2783.26 195.24L2782.06 194.76L2780.88 194.23L2779.74 193.66L2778.62 193.04L2777.53 192.38L2776.48 191.69L2775.46 190.95L2774.47 190.18L2773.52 189.36L2772.61 188.52L2771.73 187.64L2770.9 186.72L2770.1 185.78L2769.35 184.8L2768.64 183.8L2767.98 182.76L2767.36 181.7L2766.78 180.61L2766.26 179.5L2765.79 178.37L2765.36 177.21L2764.99 176.03L2764.68 174.83L2764.42 173.61L2764.21 172.37L2764.06 171.12L2763.97 169.85L2763.94 168.57L2763.97 167.28L2764.06 166.01L2764.21 164.76L2764.42 163.52L2764.68 162.3L2764.99 161.1L2765.36 159.92L2765.79 158.77L2766.26 157.63L2766.78 156.52L2767.36 155.43L2767.98 154.37L2768.64 153.33L2769.35 152.33L2770.1 151.35L2770.9 150.41L2771.73 149.49L2772.61 148.61L2773.52 147.77L2774.47 146.96L2775.46 146.18L2776.48 145.45L2777.53 144.75L2778.62 144.09L2779.74 143.48L2780.88 142.9L2782.06 142.37L2783.26 141.89L2784.48 141.45L2785.74 141.06L2787.01 140.71L2788.31 140.42L2789.62 140.18L2790.96 139.99L2792.31 139.85L2793.68 139.77L2795.07 139.74L2796.45 139.77L2797.82 139.85Z" id="emlTKzuDQ"></path><path d="M2286.7 244.02L2799.1 244.02L2799.1 251.16L2286.7 251.16L2286.7 244.02Z" id="ar1dB0v0N"></path><path d="M2512.31 107.04L3024.7 107.04L3024.7 114.17L2512.31 114.17L2512.31 107.04Z" id="f1ivZGbEdO"></path><path d="M2364.55 161.6L2876.94 161.6L2876.94 168.73L2364.55 168.73L2364.55 161.6Z" id="b13dihd8C"></path><path d="M1853.9 118.32L2366.29 118.32L2366.29 125.46L1853.9 125.46L1853.9 118.32Z" id="b105TEKAh"></path><path d="M1661.62 287.12L2174.01 287.12L2174.01 294.25L1661.62 294.25L1661.62 287.12Z" id="c3JDLX4Ddt"></path><path d="M227.53 225.82L739.92 225.82L739.92 232.95L227.53 232.95L227.53 225.82Z" id="ePV082WdV"></path><path d="M972.36 78.48L1484.76 78.48L1484.76 85.61L972.36 85.61L972.36 78.48Z" id="a3fSjfospI"></path><path d="M895.55 155.49L1407.95 155.49L1407.95 162.62L895.55 162.62L895.55 155.49Z" id="bf4jRLNWH"></path></defs><g><g><use xlink:href="#dIkAKRkM" opacity="1" fill="#e9e6df" fill-opacity="1"></use></g><g><use xlink:href="#dTWsjM8Nc" opacity="1" fill="#e9e6df" fill-opacity="1"></use></g><g><use xlink:href="#dPUfWwgqr" opacity="1" fill="#e9e6df" fill-opacity="1"></use></g><g><use xlink:href="#a3i46Cq1FF" opacity="1" fill="#cfccc4" fill-opacity="1"></use></g><g><use xlink:href="#bBwvQozdE" opacity="1" fill="#aaa8a1" fill-opacity="1"></use></g><g><use xlink:href="#i186hhenJ5" opacity="1" fill="#dbd8cd" fill-opacity="1"></use></g><g><use xlink:href="#j2S89tyLhy" opacity="1" fill="#cccac0" fill-opacity="1"></use></g><g><use xlink:href="#c205kzGbaT" opacity="1" fill="#c6c5be" fill-opacity="1"></use></g><g><use xlink:href="#c22yDCtM3r" opacity="1" fill="#c6c5be" fill-opacity="1"></use></g><g><use xlink:href="#b3oB5fi3N1" opacity="1" fill="#dbdacc" fill-opacity="1"></use></g><g><use xlink:href="#aTUTdvhuf" opacity="1" fill="#d1cfc5" fill-opacity="1"></use></g><g><use xlink:href="#diye7V4sH" opacity="1" fill="#edead9" fill-opacity="1"></use></g><g><use xlink:href="#a6sURrbXrO" opacity="1" fill="#e9e6df" fill-opacity="1"></use></g><g><use xlink:href="#ghIZykyQV" opacity="1" fill="#e9e6df" fill-opacity="1"></use></g><g><use xlink:href="#a3ijq4Mow8" opacity="1" fill="#e9e6df" fill-opacity="1"></use></g><g><use xlink:href="#aUQ5rJdfA" opacity="1" fill="#cfccc4" fill-opacity="1"></use></g><g><use xlink:href="#bj9Arq4jF" opacity="1" fill="#aaa8a1" fill-opacity="1"></use></g><g><use xlink:href="#aqsmBewlj" opacity="1" fill="#dbd8cd" fill-opacity="1"></use></g><g><use xlink:href="#a6bdWnHuYF" opacity="1" fill="#e9e6df" fill-opacity="1"></use></g><g><use xlink:href="#clTDBAhr4" opacity="1" fill="#dbdacc" fill-opacity="1"></use></g><g><use xlink:href="#c2gMgUjqRJ" opacity="1" fill="#dbd8cd" fill-opacity="1"></use></g><g><use xlink:href="#f1qJn8IO4H" opacity="1" fill="#d1cfc5" fill-opacity="1"></use></g><g><use xlink:href="#a2zecreSV" opacity="1" fill="#edead9" fill-opacity="1"></use></g><g><use xlink:href="#bbFrzrryc" opacity="1" fill="#e9e6df" fill-opacity="1"></use></g><g><use xlink:href="#a3Ua3YPbFg" opacity="1" fill="#e9e6df" fill-opacity="1"></use></g><g><use xlink:href="#a7nXKtl3u" opacity="1" fill="#e9e6df" fill-opacity="1"></use></g><g><use xlink:href="#d18PIwn5V" opacity="1" fill="#cfccc4" fill-opacity="1"></use></g><g><use xlink:href="#aLmYZ788l" opacity="1" fill="#aaa8a1" fill-opacity="1"></use></g><g><use xlink:href="#caHFFKIy5" opacity="1" fill="#e9e6df" fill-opacity="1"></use></g><g><use xlink:href="#aag7NIWJIA" opacity="1" fill="#e9e6df" fill-opacity="1"></use></g><g><use xlink:href="#b1QLoAZw0P" opacity="1" fill="#e9e6df" fill-opacity="1"></use></g><g><use xlink:href="#a7c9vXZraS" opacity="1" fill="#cfccc4" fill-opacity="1"></use></g><g><use xlink:href="#a7eXK2vLSB" opacity="1" fill="#aaa8a1" fill-opacity="1"></use></g><g><use xlink:href="#cCSUWHwIH" opacity="1" fill="#e3e1d8" fill-opacity="1"></use></g><g><use xlink:href="#fU0oXsI2v" opacity="1" fill="#e3e1d8" fill-opacity="1"></use></g><g><use xlink:href="#aQjgzXbel" opacity="1" fill="#e3e1d8" fill-opacity="1"></use></g><g><use xlink:href="#gcOXNQlXk" opacity="1" fill="#e3e1d8" fill-opacity="1"></use></g><g><use xlink:href="#b1E9Y3dov6" opacity="1" fill="#e3e1d8" fill-opacity="1"></use></g><g><use xlink:href="#cijir6fVi" opacity="1" fill="#e3e1d8" fill-opacity="1"></use></g><g><use xlink:href="#dsxsI6DXA" opacity="1" fill="#dbd8cd" fill-opacity="1"></use></g><g><use xlink:href="#emlTKzuDQ" opacity="1" fill="#dbdacc" fill-opacity="1"></use></g><g><use xlink:href="#ar1dB0v0N" opacity="1" fill="#e3e1d8" fill-opacity="1"></use></g><g><use xlink:href="#f1ivZGbEdO" opacity="1" fill="#e3e1d8" fill-opacity="1"></use></g><g><use xlink:href="#b13dihd8C" opacity="1" fill="#e3e1d8" fill-opacity="1"></use></g><g><use xlink:href="#b105TEKAh" opacity="1" fill="#e3e1d8" fill-opacity="1"></use></g><g><use xlink:href="#c3JDLX4Ddt" opacity="1" fill="#e3e1d8" fill-opacity="1"></use></g><g><use xlink:href="#ePV082WdV" opacity="1" fill="#e3e1d8" fill-opacity="1"></use></g><g><use xlink:href="#a3fSjfospI" opacity="1" fill="#e3e1d8" fill-opacity="1"></use></g><g><use xlink:href="#bf4jRLNWH" opacity="1" fill="#e3e1d8" fill-opacity="1"></use></g></g></svg>